<?xml version="1.0" encoding="utf-8"?><svg version="1.1" id="Слой_1" xmlns="http://www.w3.org/2000/svg" xmlns:xlink="http://www.w3.org/1999/xlink" x="0px" y="0px" viewBox="0 0 960 540" style="enable-background:new 0 0 960 540;" xml:space="preserve"><style type="text/css">	.body-main-color{fill:#1968e5;}
	.back-leg-color{fill:#0f3e8a;}
	.wood-1-color{fill:#87796D;}
	.wood-2-color{fill:#776255;}
	.body-shadow-color{opacity:0.4;fill:#1249a1;}
	.st52{opacity:0.4;}
	.body-secondary-color{fill:#7519e5;}
	.st72{opacity:0.38;fill:#008986;}
	.back-fingers-color{fill:#1249a1;}
	.st92{opacity:0.6;}
	.body-grad-color-invisible{fill:url(#SVGID_1_);}
	.shadow-legs-color{fill:#1453b8;}
	.wood-3-color{fill:#B8ADA6;}
	.wood-4-color{fill:#E0DCDA;}
	.back-leg-color4{opacity:0.4;fill:#1968e5;}
	.body-grad-color0{stop-color:#1968e5;}
	.body-grad-color1{stop-color:#7519e5;}
	.tophead-main-color{fill:#1968e5;}
	.tophead-secondary-color{fill:#7519e5;}
	.tophead-darker-main-color{opacity:0.57;fill:#1249a1;}
	.head-main-color{fill:#1968e5;}
	.head-darker-main-color{fill:#1249a1;}
	.head-mouth1-color{opacity:0.73;fill:#175dcf;}
	.head-mouth2-color{opacity:0.4;fill:#1249a1;}
	.head-nostril-color{opacity:0.52;fill:#05152e;}
	.eye-ext-circle{fill:#8330e8;}
	.eye-secondary-color{fill:#460f8a;}
	.eye-middle-circle{fill:#772ed1;}
	.eye-in-circle{fill:#6a17cf;}
	.eye-st4{fill:#1E0E00;}
	.eye-st5{fill:#CBDCE2;}
	.eye-st6{opacity:0.52;fill:#CBDCE2;}
</style><path id="тело_1_" class="body-main-color" d="M732.1,370.5c-0.3-5.9-0.9-11.9-2.3-18.3c1.2-5.3,8.1,2.1,8.1,2.1l-14.7-24.8
	c0,0-0.1-0.1-0.3-0.2c-1.7-4.4-3.5-8.7-5.5-13c2.7-5.3,9.7-0.9,9.7-0.9l-23.6-23.4l0,0c-3.1-4.6-6.4-8.8-9.7-12.6
	c-0.5-7.2,8.6-3.9,8.6-3.9l-21.8-15.7c-3.4-5.2-7.2-11.1-11.3-17.4v0c-2-7,7.5-4,7.5-4l-16.3-9.7c-3.6-5.6-7.3-11.4-11-17.2v0
	c-0.9-10,15.1-0.9,15.1-0.9l-44.4-45l0,0c-6.6-10.2-11.1-17.3-11.9-18.4c-5.2-6.9-10.3-12-14.3-15.4c-0.1-12.2,7-10.8,7-10.8
	L563.9,109c-6.1-4-12.2-7.5-18-10.4c0,0,0,0,0,0c-0.5-8.1,7.5-8.7,7.5-8.7l-36.3-2.2c0,0,0,0,0,0c-2-0.5-4.1-1-6.1-1.4
	c-3.8-0.8-7.5-1.4-11.1-1.9c-3.2-6.1,4.1-12.2,4.1-12.2l-57.5,13.9c0,0,0,0-0.1,0c-4,0.5-7.4,0.9-10.3,1c-1.1,0-2.5,0.2-3.9,0.5
	c-2.9-5.8,1.6-11,1.6-11L395,103.7l-27.1,0.4l-1.7,16.2c-5.7,3.5-11.2,6.8-16,9.9c-12.4,7.8-20.9,13.5-20.9,13.5s-3.6,12.5-7.1,26.9
	l17.4,37.8c19.3,1,44.3,8.4,44.3,8.4c32.5,31.9,63.7,47.5,83.6,55.3c37.8,15,138.5,25.8,141.5,28.2c16.5,13,10.8,9.2,26.6,21.4
	c6.7,5.1,13.2,10.1,18.9,14.4c9.5,7.1,16.8,12.6,18.9,14.6c0.6,0.5,1.3,1.3,2.1,2.2c2.2,2.4,5,6.1,7.9,10.7
	c5,8.2,10.1,19.5,12.2,32.9c1.4,9.3,1.4,19.7-1.3,30.8c-0.7,3-1.6,6-2.7,9.1c-1.5,4.2-3.4,8.4-5.7,12.7c-1.9,3.6-3.9,6.8-6,9.6
	c-4.5,6.3-9.3,10.8-14,13.9c-8.3,5.5-16.5,6.8-23.6,6.3c-8.9-0.6-16.1-4.1-19.3-6c-4.3,1.3-9.1,2.8-14.2,4.4c-3.6,2.4-6,5-7.6,7.7
	c-2.9-1.8-5.5-3.4-5.5-3.4s-0.1-0.4-0.3-1.2l-7.8,8.7c3.7,4.2,7.3,8.9,6.1,10.5c-2.3,3-6.7,2.5-6.7,2.5l27,5.8c0,0,12.2,4,16.8,3.6
	c0.4,0.1,0.9,0.1,1.4,0.2c2.5,1.1,0.1,6.6,0.1,6.6l28.8-8.4c0,0,0,0,0.1,0c1.2-0.3,2.5-0.7,3.8-1.2c1.1-0.4,3.3-1.4,6.3-3
	c0,0,0,0,0,0c6.3-3,2,7.9,2,7.9l18.7-23.7c3.9-4.3,7.8-8.4,11.5-13.1l0,0c5.5-3.7,5,6.1,5,6.1l10.8-31.6l0,0c2.7-6,4.8-11.7,6.4-17
	l0,0c1.4-3.7,6.4,3.7,6.4,3.7l-1.9-24.1l0,0c0.4-2.7,0.7-5.2,0.9-7.2c0.3-2.6,0.7-5.7,1.1-8.7c1-7.7,8.4,1.2,8.4,1.2L732.1,370.5z"
	/>
<g id="хвост">
	<path class="body-main-color" d="M673.3,430.3l0,4.1c0.9-7.7,0-14.9-3-21.1c0,0.2-0.1,0.3-0.1,0.5C670.2,418.7,673.3,430.3,673.3,430.3z"/>
	<path class="body-main-color" d="M608.4,399.3c-5.9,2.5-11.3,5.7-15.6,9.4C597.2,409.2,606.6,400.9,608.4,399.3z"/>
	<path class="body-main-color" d="M653.1,397.5l7,3.8c-2-1.4-4.2-2.7-6.6-3.8c-6-2.7-12.8-3.9-19.8-3.8C635.6,398.4,653.1,397.5,653.1,397.5z"/>
	<path class="body-main-color" d="M664,461.5l-4-3.9l3.6-23.4l-2.4-20.5l-14.6-3l-18-4.9c0,0-16.6,7.6-17.4,7.9c-0.9,0.3-13.9,8.2-13.9,8.2
		l-4.8,18.3c0,0,1.3,21.6,0,22.5c-0.4,0.3-0.2,2.7,0.4,5.6l-14,8c2.6,8,7.2,17.1,15.2,23.1c3.5,2.6,7.4,4.6,7.9,4.8
		c6.7,3.3,14.6,3.4,18.8,5.1c11.5,4.5,25.2-24.6,29.1-29.6l-0.4-1.1c-6.3,0.7-32.1,1.6-39.2-27.2c0,0-1.1-18.6,9.8-27.2
		c5-3.9,13.8-6.3,20.6-3.3c3.7,1.6,6.3,4.7,6.3,4.7c0.7,0.8,2.5,2.9,3.6,6.2c0.4,1.1,1.5,4.6,1,9.3c-0.2,1.7-1.1,7.7-6.1,12.2
		c-1.8,1.6-4.5,4-8.4,3.9c-4.6-0.1-7.5-3.7-8.1-4.4c-8-9,5.7-12.7,5.7-12.7s-9,3.9-0.9,11.5c2.8,2.7,5.4,2.3,7.5,0.7
		c2.8-2.1,4.8-6.3,5.8-8.6c0.4-1,0.6-1.6,0.6-1.6s2.8-19-14.1-18.9c-17,0.1-24.1,21-15.8,37c5.6,10.7,18.6,19.2,30.7,15.7
		c5.9-1.7,11.5-6.2,16-14.6c1.8-3.5,3.4-7,4.8-10.5c-0.1,0.1-0.3,0.1-0.4,0.2C665.2,453.6,664,461.5,664,461.5z"/>
	<path class="body-main-color" d="M577.2,435.2c-1.1,4-3.1,13.3-1.8,25.2C579.2,458.5,577.6,439.4,577.2,435.2z"/>
	<path class="body-main-color" d="M677.4,410.7l-17.4-9.4l-7-3.8c0,0-17.5,0.8-19.4-3.8c0,0,0,0,0,0c-2-4.6,2.8-8.2,2.8-8.2l-27.8,13.5
		c0,0-0.1,0.1-0.3,0.3c-1.7,1.6-11.1,9.9-15.6,9.4c-0.1,0-0.2,0-0.3,0c-4.8-1-3.9-6.5-3.9-6.5l-11.4,32.2c0,0,0,0.3,0.1,0.8
		c0.4,4.2,2,23.3-1.8,25.2c-0.1,0-0.2,0.1-0.3,0.1c-4.7,1.1-7.4-4.1-7.4-4.1l11.3,20.4l0,0l14.5-8c-0.5-2.9-0.6-5.7-0.1-6
		c1.3-0.9-0.2-22.4-0.2-22.4l4.9-17.9c0,0,12.3-8.4,13.1-8.7c0.9-0.3,17.4-7.9,17.4-7.9l18,4.9l14.6,3l2.4,20.5l-3.6,23.4l4,3.9
		c0,0,1.2-8,4.7-10.3c0.1-0.1,0.3-0.2,0.4-0.2c3.2-1.5,4.3,5.4,4.3,5.4l-0.1-22l0-4.1c0,0-3.2-11.5-3.1-16.5c0-0.2,0-0.3,0.1-0.5
		C670.9,409,677.4,410.7,677.4,410.7z"/>
</g>
<path id="задняя_задняя_лапа_1_" class="back-leg-color" d="M560.8,330.9c-5.9-1.4-11.9-2.7-17.8-4.1
	c-3.9-16.1-7.7-32.2-11.6-48.3l36.2,1.7C565.3,297.1,563.1,314,560.8,330.9z"/>
<path id="ветка_1_" class="wood-1-color" d="M628.7,314.7c-3.8-7-101.6-6.8-127.2-7.7c-25.6-0.9-98.4-17.9-98.4-17.9
	c-12.1-6.4-31.6-9.5-52.9-10.7c-40.6-2.4-87.9,2-103.8,3.7c-3.5,0.4-5.5,0.6-5.5,0.6c-0.1,15.3,12,27.7,11.9,43
	c50.9-8,81.8-7.5,106.2-5.1c0.2-0.2,18.6,2.2,23.2,2.9c6.1,0.8,30.7,4.5,51.1,7.4c28.7,4.2,52.2,7.7,68,10l128.1,7.8
	c1.9-5,3.3-9.1,4.3-12.5C638.6,318.3,631.9,320.7,628.7,314.7z"/>
<g id="тени_ветка_1_">
	<path id="тень_ветка_1_" class="wood-2-color" d="M359.1,320.2c-68.6-11.4-100.2-24.5-103.8-28.5c-2.9-3.2-6.1-6.6-9-9.7
		c-3.5,0.4-5.5,0.6-5.5,0.6c3.8,13.7,8.1,29.3,11.9,43c44.5-2.3,99.1-3.2,123.3-3C376.1,321.8,358.6,320.7,359.1,320.2z"/>
	<path class="wood-2-color" d="M335.4,290.2c10-3.2,20.8-0.6,28.1,6.6c10.5,10.3,7.9,24.5,7.7,25.5l8.2-29.2
		C379.3,293.1,376.9,278.4,335.4,290.2z"/>
	<path class="wood-2-color" d="M508.8,341.4c0,0,15.1-6.2,16.6-24.5c0,0,88.7,1.7,107.9,19.3c0,0,10.1-22.4-14.2-25.7
		c-19-1-38.4-1.8-58.1-2.4c-14-0.4-27.8-0.7-41.4-0.8c0.3,2.5,0.5,6.1,0,10.4c-0.2,1.4-0.4,2.9-0.8,4.5
		C516.7,331.9,511.6,338.3,508.8,341.4z"/>
	<path class="wood-2-color" d="M543.6,333.7c0,0,8.7-1.6,14.4,7.7c0,0,1.2,2.5,0,3l-3.6-0.2L543.6,333.7z"/>
	<g>
		<path class="wood-2-color" d="M495.7,307.1c0,0-80.9-13.4-93.9-18.6c-0.1,0-0.1-0.1-0.2-0.1c-0.3-0.2-0.4-0.2-1.1-0.5
			c-0.3-0.1-0.5-0.2-0.7-0.3c0,0-0.2,2.7-0.2,9.4c0,11.8-4.8,24.5-10.9,27.4c0.3,0,0.6,0.1,0.9,0.1c1.4,0.2,7.9-4.9,10.4-8.9
			c5.3-8.3,9.8-13.5,11-14.1c5-2.5,19.6-1.3,31.1,1.5C454.4,306,472.2,308.7,495.7,307.1z"/>
	</g>
</g>
<path id="передняя_задняя_лапа_1_" class="back-leg-color" d="M333.4,289.2c-1.4-1.9,0.2-5.3,1.4-7.8
	c0.6-1.2,2.8-5.7,8.8-9.1c0,0,5-2.8,24-3.8l30.4-39.2l18.6,10.2L374.7,290c-2.8-1.2-7.1-2.7-12.4-3.2
	C347,285.3,336.1,292.9,333.4,289.2z"/>
<g id="тень_окрас">
	<path class="body-shadow-color" d="M658.8,225.5c-1.7-0.1-33.7-2.8-40.5,6.2c-7,9.3-7,11.8-7,11.8h-17.4l-1.9,5.3l21.9,7.9c0,0,0.7-10.4,7.6-19.7
		c7-9.3,40.6-6.2,40.6-6.2L658.8,225.5z"/>
	<g>
		<g class="st52">
			<path class="body-secondary-color" d="M568,111.6l-20.2-12c0,0,0.8,0.3,0,1l14.1,8.2c0,0-51.3,69.5-41.5,80c8.9,9.4-11.9,39.1-16.1,44.9l4.4,2.2
				c0,0,26.7-35.4,16.8-45.8C515.8,179.4,568,111.6,568,111.6z"/>
			<path class="body-secondary-color" d="M494.9,145.4l-5.2,22.6l5.3,0.7l5.1-22.1c0,0-1.4-47.9,20.2-58l-5.4-1.1C493.5,97.8,494.9,145.4,494.9,145.4
				z"/>
		</g>
		<path class="body-shadow-color" d="M454.6,142.3c-5.2-17.1-3.6-56.7-3.6-56.7l-4.2,0.4c-0.2,4.3-1.3,40.3,3.6,56.3c4,13,1.9,26.5,0.7,32.1
			l3.5,2.7C454.6,177.1,459.8,159.4,454.6,142.3z"/>
		<path class="body-shadow-color" d="M616.7,157.7c1,1.8,1.9,3.7,2.6,5.5c0,0-13.1-7.2-18.3,0s-45.8,41.4-52.8,85.5l-16-6.3l-2.5,3.3l22,8.7
			c7-44.1,47.6-78.3,52.8-85.5c5.2-7.2,18.3,0,18.3,0C621.4,165.2,619.2,161.4,616.7,157.7z"/>
		<polygon class="body-shadow-color" points="671.2,244.6 649.1,266.5 682.5,262 		"/>
		<polygon class="body-shadow-color" points="695.9,281.8 683,294 705.6,294.4 		"/>
		<polygon class="body-shadow-color" points="718.1,318.1 702.7,325.5 724.2,330.7 		"/>
		<polygon class="body-shadow-color" points="730.1,354.5 712.7,364.6 732.4,372.9 		"/>
		<polygon class="body-shadow-color" points="732.2,399.2 713.1,404.7 730.2,415.1 		"/>
		<polygon class="body-shadow-color" points="725.3,435.6 706.1,438.8 718.9,452.7 		"/>
		<polygon class="body-shadow-color" points="702.7,478.1 690.3,473.3 691.2,491.2 		"/>
		<path class="body-shadow-color" d="M669.7,506.6l-5.5-12.3l-4.7,16.6C659.5,510.8,665.2,508.9,669.7,506.6z"/>
		<polygon class="body-shadow-color" points="628.5,492.7 629.6,511.6 612.8,507.9 		"/>
		<path class="body-shadow-color" d="M593.4,498.7l11.3-23.1l-24.6,5.2C580.1,480.7,585.4,493.9,593.4,498.7z"/>
		<path class="body-shadow-color" d="M575.6,458.5l20.5-6.6l-18.5-19.5C577.6,432.3,573.5,447.2,575.6,458.5z"/>
		<path class="body-shadow-color" d="M595.6,407.1l13.4,11.4l2.8-21C611.8,397.5,601.2,401.5,595.6,407.1z"/>
		<path class="body-shadow-color" d="M635.4,394.8l2.9,15.9l16.6-12.2C654.8,398.6,646.3,393.7,635.4,394.8z"/>
		<path class="body-shadow-color" d="M670.6,415.6l-11.8,12.1l14.9,4.4C673.7,432.1,674.4,421.7,670.6,415.6z"/>
		<polygon class="body-shadow-color" points="668.3,452.7 658.8,451.9 663.6,463 		"/>
		<path class="body-shadow-color" d="M651.3,473.3l-8.3-7.9l-8.4,10.1C634.6,475.5,643.6,479.9,651.3,473.3z"/>
		<path class="body-shadow-color" d="M622.5,466.6l1.8-4.8l-7.4-2.9c0,0.1,0.1,0.2,0.2,0.4c0,0,0.5,1.2,1.4,2.5C619,462.7,620.4,464.5,622.5,466.6
			z"/>
		<path class="body-shadow-color" d="M614.5,450.8l5-4.8l-4.5-6.8C615.1,439.1,613.4,446.5,614.5,450.8z"/>
		<path class="body-shadow-color" d="M618.6,433.3l17,7.5l-1.3-17.3C634.2,423.5,625.5,422.2,618.6,433.3z"/>
	</g>
</g>
<g id="задняя_задняя_лапа_пальцы_1_">
	<path class="back-leg-color" d="M579.8,309.5c-0.1,0.5-0.5,2.6-3,3.4c-2.2,0.7-5.5,1.2-6.4,1.1c-3-0.3-4.7-3-4.9-3.4c-0.8-1.3-2.4-2.6-1.3-3.8
		c0.9-1,3.3-1.8,5.4-1.2C573.8,306.9,580.3,307.8,579.8,309.5z"/>
	<path class="st72" d="M530.3,336.8c2.8-2.7,8.3-4.5,9.8-3.1c0.6,0.5,0.1,1.1,0.3,3.8c0.1,2.1,0.6,4.7,1,4.7c0.3,0,0.3-1.5,1-4.5
		c0.5-2.4,0.8-3.6,1.3-3.9c2.8-1.6,9.5,4.2,10.9,6.4c0.2,0.3,0.7,1.2,0.7,2.3c0,0.6-0.3,1.2-0.3,1.3c0,0-0.2,0.5-0.8,1l-2.7,1.1
		c-0.8,0.5-11.2,1.5-16.6,0.5c-3-0.6-4.8-0.9-6.2-2.4c-0.4-0.5-1.4-1.7-1.3-3.2C527.6,339.5,528.7,338.4,530.3,336.8z"/>
</g>
<path id="пальцы_задня_лапа_1_" class="back-fingers-color" d="M530.3,336.8c2.8-2.7,8.3-4.5,9.8-3.1c0.6,0.5,0.1,1.1,0.3,3.8
	c0.1,2.1,0.6,4.7,1,4.7c0.3,0,0.3-1.5,1-4.5c0.5-2.4,0.8-3.6,1.3-3.9c2.8-1.6,9.5,4.2,10.9,6.4c0.2,0.3,0.7,1.2,0.7,2.3
	c0,0.6-0.3,1.2-0.3,1.3c0,0-0.2,0.5-0.8,1l-2.7,1.1c-0.8,0.5-11.2,1.5-16.6,0.5c-3-0.6-4.8-0.9-6.2-2.4c-0.4-0.5-1.4-1.7-1.3-3.2
	C527.6,339.5,528.7,338.4,530.3,336.8z"/>
<g id="окрас_1_">
	<path class="body-secondary-color" d="M649.9,211.4c0,0-38.3-6.8-52.8,17.8l-9.2,21.8l23.8,8.7c0,0,1.7-15.7,8.6-24.9s40.6-6.2,40.6-6.2L649.9,211.4
		z"/>
	<g>
		<polygon class="body-secondary-color" points="669.6,242.3 649.1,266.5 680.9,259.8 		"/>
		<path class="body-secondary-color" d="M432.6,87.6c0,0-4.6,25.5,5.5,38.1c10.1,12.6-3.3,39.3-3.3,39.3l16.4,12.5c0,0,5.2-17.7,0-34.8
			c-5.2-17.1-3.6-56.7-3.6-56.7L432.6,87.6z"/>
		<path class="body-secondary-color" d="M500.3,84.3c0,0-17.1,21.1-16.7,29.2l-2.5,24.9c0,0,3.5,40-7.5,49.3s13.4,37.7,13.4,37.7l19.1,9.3
			c0,0,26.7-35.4,16.8-45.8s41.5-80,41.5-80l-18-10.4c0,0-16.7,13.8-18.6,24.2c-1.9,10.4-15.8,48.2-15.8,48.2l-19.7-2.7l5.2-22.6
			c0,0-1.4-47.9,20.2-58L500.3,84.3z"/>
		<path class="body-secondary-color" d="M620.6,165.6c0,0-13.1-7.2-18.3,0c-5.2,7.2-45.8,41.4-52.8,85.5l-22-8.7l36.4-47.6c0,0,4.6-25.4,16-32.4
			c11.4-7.1,14.4-30.6,14.4-30.6S614.5,149.7,620.6,165.6z"/>
		<polygon class="body-secondary-color" points="694.1,279.4 683,294 703.9,291.9 		"/>
		<polygon class="body-secondary-color" points="717.7,316.2 702.7,325.5 723.5,329.4 		"/>
		<polygon class="body-secondary-color" points="730.1,352.2 714.7,363.7 732.4,370.5 		"/>
		<polygon class="body-secondary-color" points="732.4,397.9 713.1,404.7 730.4,413.8 		"/>
		<polygon class="body-secondary-color" points="726,434.2 706.1,438.8 719.6,451.3 		"/>
		<polygon class="body-secondary-color" points="703.9,476.8 690.3,473.3 692.4,490 		"/>
		<polygon class="body-secondary-color" points="628.5,492.7 631.3,511.6 614.4,508 		"/>
		<path class="body-secondary-color" d="M594.1,499.6l10.6-24.1l-23.9,6.1C580.8,481.7,586.1,494.8,594.1,499.6z"/>
		<path class="body-secondary-color" d="M575.5,460.5l20.7-8.6l-18.6-17.5C577.5,434.3,573.4,449.2,575.5,460.5z"/>
		<path class="body-secondary-color" d="M671.7,505.8l-7.5-11.5l-2.7,15.7C661.5,510,667.2,508.1,671.7,505.8z"/>
		<path class="body-secondary-color" d="M592.7,408.7l16.2,9.8v-19.4C609,399.1,598.4,403.1,592.7,408.7z"/>
		<path class="body-secondary-color" d="M634,393.8l4.3,16.9l15.2-13.2C653.4,397.5,644.9,392.7,634,393.8z"/>
		<path class="body-secondary-color" d="M670.6,413.8l-11.8,13.9l14.9,2.6C673.7,430.3,674.4,419.9,670.6,413.8z"/>
		<polygon class="body-secondary-color" points="669,451.3 658.8,451.9 664.4,461.5 		"/>
		<path class="body-secondary-color" d="M653.7,473.5c-3.6-2.7-7.1-5.4-10.7-8.1l-6.6,10.8c1.5,0.5,3.4,1,5.7,1C647.7,477.3,652,474.7,653.7,473.5z"
			/>
		<path class="body-secondary-color" d="M622.9,467.7l1.5-5.8l-6.7-1.4C617.6,460.5,619.5,464.7,622.9,467.7z"/>
		<path class="body-secondary-color" d="M614.4,451.3l5.1-5.3l-4.6-6.4C615,439.6,613.3,447,614.4,451.3z"/>
		<path class="body-secondary-color" d="M617.6,432.8l17,7.5l-1.1-16.9C633.5,423.5,624.6,421.8,617.6,432.8z"/>
	</g>
</g>
<g id="тень_под_хохолком_1_" class="st92">
	<path class="back-fingers-color" d="M433.1,76.8c-3.1,1.6-17.8,12.4-20.6,14.4C395,103.7,385,110.9,377,112.9l3.3,6.8L380,120l0.3,0.2l-2.5,27.5
		l-22.5,56.2l2.1,0.9l28-53.2l2.5-27.5l-0.3-0.2l0.3-0.3C399.2,112,421.7,88.3,433.1,76.8z"/>
</g>
<g id="брюхо">
	
		<radialGradient id="SVGID_1_" cx="518.6567" cy="322.6117" r="185.4376" gradientTransform="matrix(-0.5 0.866 -5.1962 -3 2454.3247 841.277)" gradientUnits="userSpaceOnUse">
		<stop  offset="0" class="body-grad-color0"/>
		<stop  offset="1" class="body-grad-color1"/>
	</radialGradient>
	<path class="body-grad-color-invisible" d="M322.6,201l25.4,8l36.2,7.7c0,0,27.4,35.4,83.6,55.3c56.2,20,134.1,22.3,141.5,28.2
		c7.4,5.9,64.4,50.4,64.4,50.4s22,22.8,22.1,45.8c0,0,5.7,36.7-15.7,62.2c0,0-21.8,33.6-56.8,14.2c-1.4-1-12.4-9.3-13.1-24.2
		c-0.6-14.1,8.4-23,9.8-24.3c0,0,20.8-14,30.5,7.6c0.9,3.9,0.8,7.1,0.6,9.2c-0.2,1.7-0.4,3.6-1.3,5.8c-1.3,3.1-3.2,5.2-4.4,6.4
		c-0.3,0.4-3.3,4.1-8.4,3.9c-5.1-0.2-7.8-4-8.1-4.4c-0.7-0.6-2.4-2.3-2.5-4.7c-0.1-3.4,3.2-7.1,8.2-7.9l-10.3-4.8
		c0,0-9.4,9.7-2.4,22.8s21,7,21,7s30.4-14.9,15.8-37.7c-14.6-22.8-32.3-17.3-32.3-17.3s-34.9,6.6-30.4,41.5s32.4,40.8,32.4,40.8
		s66,32.3,83.9-83.2s-77.1-149.7-77.1-149.7s-135.7-16.6-148.7-51c-13-34.4-30.9-55.2-51.7-58.8c-20.8-3.6-85.3-1.4-93.9,11.5
		S322.6,201,322.6,201z"/>
	<path class="body-shadow-color" d="M634.6,440.3c0,0-6.7,8.7,5.3,7.1c12-1.7,1.4-22.1,1.4-22.1c0.4,0.2,0.9,0.6,1.4,1.1c4.2,3.6,5.8,9.9,4.9,15.2
		c-1.2,7-6.3,10.8-7.5,11.6c0,0-4.6,3.3-9.4-5.1C630.8,448,628.3,443.4,634.6,440.3z"/>
</g>
<path id="тень_передняя_лапа_1_" class="shadow-legs-color" d="M483.4,201c-1.2-4.4-11.2-16.6-29.8-22.3
	c-1.4-0.4-2.8-0.8-4.1-1.2c10.5,6,16.3,13.6,17.1,16.8c1.2,4.4-7.5,43.9-22.5,50.9c-0.8,1-1.7,2-2.6,3.1c-2.5,2.9-5,5.7-7.5,8.2
	c2.1,1.4,4.4,2.7,6.8,4.1c3.6,2,7,3.6,10.2,5c3.3-4.6,6.5-9.2,9.8-13.7C475.9,244.9,484.6,205.4,483.4,201z"/>
<path id="тень_задняя_лапа_1_" class="shadow-legs-color" d="M575.3,230.5L521,242.8c0,0-17.6-0.7-16.8,14.2
	c-3.7,7.5-7.3,15-11,22.6c2.1,0.5,4.2,1,6.3,1.5c2.6,0.6,5.2,1.1,7.7,1.6c2.9-7.7,5.8-15.4,8.7-23.1c-0.2-1.6-0.2-4.5,1.4-7.4
	c2.6-4.7,8.6-7.2,15-6.4l54.3-12.2c0.4-0.1,0.8-0.1,1.1-0.2C584.3,230.6,580,229.5,575.3,230.5z"/>
<path id="тень_под_задней_лапой_1_" class="shadow-legs-color" d="M598.6,288.5c-4.3-4.2-7.7-7.7-9.9-9.9
	c-13.9,0.8-20-0.3-22.8-1.7c-0.2-0.1-2.4-1.1-5.3-2.4c-2.7-1.2-4.3-1.9-6.3-2.6c-2.2-0.7-5.1-1.5-6.7-1.7c-9.8-1.1-19.9,15-21.1,17
	c0.1,0,0.3,0,0.4,0c0,0,0.1,0,0.1,0c0.4,0,0.8,0,1.1,0.1c0.6,0.1,1.3,0.1,1.9,0.3c0.3,0.1,0.6,0.2,0.9,0.3l77.7,11.7
	C609.1,298.6,607.3,297.1,598.6,288.5z"/>
<path id="тень_под_передней_лапой_1_" class="shadow-legs-color" d="M416.4,212.7c-6.1-0.1-12.1-1.9-16.8-6.7
	c-4.7-4.9-7.6-7.7-9.2-9.2c-1.8-4.8-5-16.3,2.6-22.1c-0.8,0.2-1.5,0.4-2.3,0.6c-14.7,3.7-10.3,19.1-8,24.9c1.7,1.5,4.7,4.4,9.7,9.4
	c4.9,4.9,11.3,6.7,17.7,6.9c3.5,0.1,7-0.3,10.3-1c0,0-0.1,0.1-0.1,0.1c-2.3,1.8-3.9,3.6-6,6.1c-2.5,2.9-6.7,8.3-10.4,13.9l3.3,2.7
	c3-5,7.5-11.4,11.5-16.9c2.6-3.6,5.2-6.9,7.7-9.9C423,212.3,419.7,212.8,416.4,212.7z"/>
<g id="ветка_круг_1_">
	<path class="wood-3-color" d="M242.3,283.9c-1.5-1.1-4-0.8-4.9,0.4c-2.1,3.1-4.9,9.6-2.4,20.5c3.7,16.1,13.1,21.3,16.3,21.5
		c3.2,0.1,9.7-8.2,3.3-24.7C250.6,291.2,245.5,286.2,242.3,283.9z"/>
	<path class="wood-4-color" d="M245.1,288c-1.2-0.9-3.2-0.7-3.9,0.4c-1.7,2.5-4,7.7-1.9,16.6c3,13,10.6,17.2,13.1,17.3
		c2.5,0.1,7.8-6.6,2.7-19.9C251.8,293.9,247.7,289.9,245.1,288z"/>
	<path class="wood-3-color" d="M246.5,291.8c-0.9-0.7-2.5-0.5-3.1,0.3c-1.3,1.9-3.1,6.1-1.5,13c2.4,10.2,8.3,13.4,10.3,13.5
		c2,0.1,6.1-5.2,2.1-15.6C251.7,296.4,248.5,293.2,246.5,291.8z"/>
	<path class="wood-4-color" d="M245.8,295.2c-0.7-0.5-1.9-0.4-2.3,0.2c-1,1.5-2.3,4.6-1.1,9.8c1.8,7.7,6.3,10.2,7.8,10.2
		c1.5,0.1,4.6-3.9,1.6-11.8C249.8,298.7,247.3,296.3,245.8,295.2z"/>
</g>
<path id="полутень_передняя_лапа_1_" class="body-main-color" d="M473,196.2c-0.9-3.3-6.6-10.8-17.1-16.8
	c-3.7-2.1-7.9-4-12.7-5.5c-18.6-5.7-22.9-4.3-40.4,0.5c-2.2,0.6-3.9,1.5-5.3,2.5c-7.5,5.8-4.4,17.3-2.6,22.1
	c1.6,1.5,4.4,4.3,9.2,9.2c4.6,4.8,10.7,6.5,16.8,6.7c3.3,0.1,6.6-0.4,9.8-1.1c-1.5,1.5-3,3.2-4.5,5c-15.2,18.7,2.4,34.9,5.6,36.3
	c0.7,0,2.9,2.2,3.6,2.5c1,0.4,1.7,1.1,2.6,1.6c0.3,0.2,0.7,0.4,1,0.6c0,0,0.1,0.1,0.1,0.1c3.2-3.3,5.9-6.3,7.9-8.6
	c2.2-2.5,3.5-4.1,3.5-4.1c1.2-0.5,2.3-1.3,3.4-2.2C466.8,234.2,474.1,200.3,473,196.2z"/>
<path id="передняя_лапа_1_" class="body-main-color" d="M445.8,245.2c1.2-0.5,2.3-1.3,3.4-2.2c12.9-10.8,20.2-44.6,19.1-48.7
	c-0.9-3.3-6.6-10.8-17.1-16.8c-3.7-2.1-7.9-4-12.7-5.5c-18.6-5.7-22.9-4.3-40.4,0.5c-2.2,0.6-3.9,1.5-5.3,2.5
	c-7.5,5.8-4.4,17.3-2.6,22.1c1.6,1.5,4.4,4.3,9.2,9.2c4.6,4.8,10.7,6.5,16.8,6.7c3.3,0.1,6.6-0.4,9.8-1.1c-1.5,1.5-3,3.2-4.5,5
	c-15.2,18.7-29,49.4-29,49.4s-3.2,4.6-7,6.8c-2.2,1.3-3.2,2-4.8,3c-6.2,3.8-9.9,9.3-11.1,11.3c-3.4,5.6-4.3,11.1-4.6,14
	c-0.2,1.7-1.6,17,6.4,21c2.2,1.1,4.9,1.5,6.3,0.6c0.9-0.6,1.2-3.4,1.7-7c0.5-3.9,0.9-6.1,1.2-6.1c0.1,0,0.4,0.3,1.2,9.6
	c0.2,1.7,0.3,3.1,0.3,4.1c2.4,1.5,4.1,1.6,5.2,1.4c6.8-1.1,12.8-15.3,12.8-28.2c0-6.7-1.1-10.4,2.9-13.5c1.1-0.9,15.9-11,22.3-16.6
	c7-6.1,13.4-13,17.1-17.2C444.5,246.8,445.8,245.2,445.8,245.2z"/>
<g id="полутень_задняя_лапа_1_">
	<path class="back-leg-color4" d="M607.9,238.8c-7-7.4-17-7.4-19.5-7.4c0.7,0.5-53.5,14.6-53.5,14.6s-18.3-0.7-17.5,14.9c0,0,8.5,26.3,9.5,26.5
		c0,0,0.1,0,0.1,0c0.4,0,0.8,0,1.2,0.1c0.6,0.1,1.2,0.1,1.9,0.3c0.3,0.1,0.6,0.2,0.9,0.3l3.1-5.4c5-4.6,9.5-6,12.3-6.6
		c12.3-2.2,19.7,7.8,38.3,9.9c3.5,0.4,8.5,0.6,13.5-1.8c3.4-1.6,5.6-3.9,6.7-5c0,0,3.3-3.3,5.4-7.8
		C613.3,265.5,617.7,249.3,607.9,238.8z"/>
</g>
<path id="задняя_лапа_1_" class="body-main-color" d="M603,238c-6.7-7.1-16.4-7.2-18.9-7.1c0.7,0.5-51.6,13.8-51.6,13.8
	s-17.6-0.7-16.8,14.2c-6.2,13.3-9.9,25.5-16.1,38.8c-2.4-0.5-14.1,3.8-16,7.3c2.1,0.3,4.2,0.7,6.3,1c2,0.3,4,0.7,5.9,1
	c2,4,2.4,7.3,2.3,9.3c0,6-3.1,11.9-5.6,16.5c-2.2,4.2-3.1,4.9-2.7,6.4c1.1,4,10.2,6.5,16.7,3.6c1.7-0.8,4.6-2.5,7.9-8.5
	c5.3-9.7,5.9-19.8,5.4-27c-0.3-1.7-1.1-6.1-1.3-6.7l13.3-20.9c4.8-4.4,9.1-5.8,11.9-6.3c11.8-2.1,19.1,7.5,37.1,9.6
	c3.4,0.4,8.2,0.6,13-1.7c3.2-1.6,5.4-3.7,6.5-4.8c0,0,3.2-3.2,5.2-7.5C608.3,263.6,612.5,248,603,238z"/>
<polygon id="хохолок_1_" class="tophead-main-color" points="339.2,82.5 352.5,73.8 380,64 394.6,61.6 402.3,68.1 406.4,88.5 383.3,120.3 
	374.7,131.2 342,115.4 332.8,102.1 330.2,94.1 "/>
<path id="хохолок_окрас" class="tophead-secondary-color" d="M353.2,84.9c0,0,13.6-15,30.1-14.7c16.5,0.3,11.1,12.9,11.1,12.9
	s-6.8,20.9-13.7,22.8l-12.4,5.1l-13.4-8l-5.4-11.1L353.2,84.9z"/>
<polygon id="хохолок_тень" class="tophead-darker-main-color" points="402.3,68.1 394.6,61.6 388.3,62.6 390.1,64.2 394.2,84.5 371.1,116.4 
	383.3,120.3 406.4,88.5 "/>
<path id="голова" class="head-main-color" d="M383.3,120.8l-2.5,27.5c-4.2,38.7-10.8,52.8-16.4,58.3c-1.2,1.2-5.9,5.4-7,11.9
	c-0.9,5.3,0.9,10,2.5,12.9c-8.1-4.5-16.3-9.1-24.4-13.6c-4.4,2.9,1,12.2,1,12.2c-9.5-7.4-19-14.9-28.5-22.3
	c-0.3,0.9-0.6,2.7-0.2,4.8c0.7,3.3,2.8,5.2,3.5,5.8c-3.8-2.1-8.5-5.3-13.2-9.7c-6.8-6.4-11-13-13.6-17.9c-0.5,1.5-0.9,3.1-1.3,4.8
	c-0.7,3.1-0.9,6-0.9,8.4c-6.5-9.5-13-18.9-19.4-28.4c0.2,4.4,0.3,8.8,0.5,13.1c-4.9-8.6-9.9-17.2-14.8-25.8c-1.2-2.7-2.8-6.9-4.4-12
	c-1.7-10.7-4.7-15.1-2.7-19.6c0.7-1.6,4.5-6.2,11.4-8.8c0,0,18.7-8.3,32.2-30.2l15.4-8l13.6-1.2h25.3c5.9-0.3,10.6,0.7,14,1.8
	c0.6,3.6,2,9.1,6.2,14.2c2.5,3.1,4.5,5.6,7.9,6.6c5.8,1.6,11.2-1.7,14.2,0.9c0.8,0.7,0.3,1.1,0.9,3.3
	C383.1,112.3,383.7,116.1,383.3,120.8z"/>
<g id="голова_тень">
	<path class="head-darker-main-color" d="M310.9,88.7c5.1-0.1,9.4,0.3,15.8,0.9c9.2,1,11.4,1.9,12.5,2.4c6.7,3.2,10.2,9.5,11,12.8
		c2.2,9.4,10.3,8.3,16.4,15.5c7.3,8.7,7.2,19.4,6.9,36.2c-0.2,11.7-1.8,29.3-8.8,50.2c0.7-1,1.5-2.4,2.6-4c1-1.5,1.9-3.1,2.8-4.9
		c2.8-6,3.9-11.3,4.9-14.7c1.7-5.5,3.4-13,4.3-22.1c1.1-10.6,2.2-21.2,3.2-31.8c0.3-2.8,0.5-5.6,0.8-8.4c-0.1-10.4,0.6-13.2-2.6-15
		c-13.7,0.7-18.4-2.5-20.4-5.5c-7.3-11-4.3-9.6-7-15.5c-0.1-0.2-0.2-0.4-0.4-0.7c-1.2-1.3-4.3-1.2-13.6-1.2h-25.3l-13.6,1.2l-15.4,8
		l-1.8,3.1C283.1,95.2,303,88.8,310.9,88.7z"/>
</g>
<g id="рот_1_">
	<path class="head-mouth1-color" d="M247.3,160c9.1-3,15.8-3.9,20.8-4.3c18.8-1.7,27.7,3.5,43.7,0c7.9-1.7,14-4.7,17.7-6.9
		c-0.2,2.2-3.1,9.4-4.5,10.8c-1,0.4-2.6,1.1-4.7,1.8c-18.3,6.1-30.5-1.6-49.3-0.2c-4.9,0.4-11.8,1.3-20.7,5.1
		c-0.5-1-1.1-1.9-1.7-2.9L247.3,160z"/>
	<path class="head-mouth2-color" d="M250.5,166.3c9.9-4.4,17.5-5.3,23-5.4c15.6-0.5,24.7,5.6,40.8,2.2c4.8-1,8.5-2.5,10.8-3.5
		c0.9-1.8,1.9-3.6,2.8-5.3c-3.8,2.2-10,5.2-18,6.4c-11.8,1.9-18.6-1.4-30-2.1c-7.3-0.5-17.6-0.1-31.1,4.8
		C249.3,164.4,249.9,165.3,250.5,166.3z"/>
</g>
<path id="ноздря_1_" class="head-nostril-color" d="M251,126.7c0,0-5.3,2.1-5.8,4.4c-0.5,2.3,1.4,4.2,1.4,4.2s1.8,2.5,4.4-2.7
	C253.7,127.4,251,126.7,251,126.7z"/>
<g id="глаз_1_">
	
		<ellipse transform="matrix(0.5078 -0.8615 0.8615 0.5078 51.2355 316.366)" class="eye-ext-circle" cx="302.5" cy="113.3" rx="17.7" ry="17.7"/>
	<path class="eye-secondary-color" d="M304.4,135.3c-4.5,0.2-8.7-1.5-11.9-4.5c2.3,4.3,7,7.2,12.2,7c5.5-0.3,10-3.9,11.7-8.7
		C313.5,132.7,309.2,135.1,304.4,135.3z"/>
	<path class="eye-secondary-color" d="M312.5,96.8c3.5,2.1,6.1,5,7.5,8.1c-0.2-3.3-2.7-7.1-6.8-9.5c-4.3-2.6-9-3-12.1-1.3
		C304.7,93.7,308.8,94.6,312.5,96.8z"/>
	<ellipse transform="matrix(0.3787 -0.9255 0.9255 0.3787 85.6154 350.7169)" class="eye-middle-circle" cx="304" cy="111.6" rx="16" ry="16"/>
	<path class="eye-secondary-color" d="M301.1,104.5c0.3-1.4-0.1-3.8,0.1-5.4c0.1-1.2,0.2-2.3,0.3-3.3c0.9-0.1,2-0.2,3.2-0.2c0.7,0,1.3,0.1,1.9,0.2
		c-0.7,0.7-2.5,2.5-2.9,5.3c-0.2,1-0.1,1.9,0,2.6C303.2,103.6,301.5,104.4,301.1,104.5z"/>
	<path class="eye-secondary-color" d="M307,105.3c0,0,0.7-5.5,6.1-6.9c0,0,2.1,1.5,3.1,2.8c0,0-5.7,1.7-7.6,6.1c-0.1-0.3-0.3-0.5-0.5-0.8
		C307.7,105.9,307.3,105.6,307,105.3z"/>
	<path class="eye-secondary-color" d="M319.6,107.6c0,0-4.5-2.4-10.2,1.7c0,0,0.3,2.4-0.2,3.7c0,0,7.1-3.4,10.6,1.7
		C319.7,114.7,320.8,110.3,319.6,107.6z"/>
	<path class="eye-secondary-color" d="M308.4,114.6l10.4,3.1c-0.2,0.7-0.5,1.5-1,2.4c-0.9,1.5-2,2.6-2.8,3.2c-0.2-0.5-0.6-1.3-1.3-2.2
		c-2.3-2.7-6.8-4.7-6.8-4.7S307.9,115.5,308.4,114.6z"/>
	<path class="eye-secondary-color" d="M292.1,100.8c0,0,3.1,5.8,5.7,9.2c0.2-0.4,0.4-0.9,0.6-1.4c0.3-0.7,0.4-1.4,0.5-1.9l-3.5-8.6
		C295.5,98,293,99.8,292.1,100.8z"/>
	<path class="eye-secondary-color" d="M305,117.6c-0.1,0,3.5,8.8,2.3,9.7c0,0-3.6,0.5-5.3,0.2c0.4-1.2,0.9-2.7,1.2-4.4c0.4-1.9,0.5-4,0.5-5.5"/>
	
		<ellipse transform="matrix(8.672479e-02 -0.9962 0.9962 8.672479e-02 168.4337 405.0108)" class="eye-in-circle" cx="305.1" cy="110.6" rx="7.3" ry="7.3"/>
	<ellipse transform="matrix(0.5078 -0.8615 0.8615 0.5078 57.4622 318.149)" class="eye-secondary-color" cx="307.1" cy="108.8" rx="3.9" ry="3.9"/>
	
		<ellipse transform="matrix(8.672556e-02 -0.9962 0.9962 8.672556e-02 171.7788 405.9742)" class="eye-st4" cx="307.3" cy="109.3" rx="2.9" ry="2.9"/>
	
		<ellipse transform="matrix(0.6683 -0.7439 0.7439 0.6683 21.3772 265.5872)" class="eye-st5" cx="308.5" cy="108.8" rx="1.3" ry="1.3"/>
	<path class="eye-secondary-color" d="M300.1,115.9c0,0-2.9,8.4-3.9,9.6c0,0-1.9-0.9-4.3-3.5c0,0,7.6-6.9,7.2-7.3
		C299.2,114.8,299.8,115.8,300.1,115.9z"/>
	<path class="eye-secondary-color" d="M298.2,113.1l-10,1.3c0,0-0.5-3.4-0.1-5.3l9.8,3.3L298.2,113.1z"/>
	<ellipse transform="matrix(0.8705 -0.4922 0.4922 0.8705 -11.6181 168.8161)" class="eye-st6" cx="315" cy="106.5" rx="2.5" ry="4.8"/>
	
		<ellipse transform="matrix(0.9986 -5.350965e-02 5.350965e-02 0.9986 -5.427 16.5192)" class="eye-st5" cx="305.8" cy="109.6" rx="0.8" ry="0.8"/>
</g>
</svg>