<?xml version="1.0" encoding="utf-8"?><svg version="1.1" id="Слой_1" xmlns="http://www.w3.org/2000/svg" xmlns:xlink="http://www.w3.org/1999/xlink" x="0px" y="0px" viewBox="0 0 960 540" style="enable-background:new 0 0 960 540;" xml:space="preserve"><style type="text/css">	.back-leg-color{fill:#340f8a;}
	.wood-1-color{fill:#87796D;}
	.wood-2-color{fill:#776255;}
	.back-fingers-color{fill:#3d12a1;}
	.wood-3-color{fill:#B8ADA6;}
	.wood-4-color{fill:#E0DCDA;}
	.body-t3-tail-color{fill:#1779cf;}
	.body-shadow-color{fill:#125ea1;}
	.body-t3-skin-color{fill:#1986e5;}
	.t3-transparent1{opacity:0.68;}
	.body-t3-main-color{fill:#5719e5;}
	.body-t3-backspikes1-color{fill:#4e17cf;}
	.back-leg-color4{opacity:0.4;fill:#340f8a;}
	.body-t3-backspikes-shadow-color{fill:#FF5039;}
	.body-t3-backspikes2-color{fill:#4514b8;}
	.tophead-main-color{fill:#1986e5;}
	.tophead-secondary-color{fill:#5719e5;}
	.tophead-darker-main-color{opacity:0.57;fill:#125ea1;}
	.head-main-color{fill:#1986e5;}
	.head-darker-main-color{fill:#125ea1;}
	.head-mouth1-color{opacity:0.73;fill:#1779cf;}
	.head-mouth2-color{opacity:0.4;fill:#125ea1;}
	.head-nostril-color{opacity:0.52;fill:#051b2e;}
	.eye-ext-circle{fill:#6830e8;}
	.eye-secondary-color{fill:#340f8a;}
	.eye-middle-circle{fill:#5f2ed1;}
	.eye-in-circle{fill:#4e17cf;}
	.eye-st4{fill:#1E0E00;}
	.eye-st5{fill:#CBDCE2;}
	.eye-st6{opacity:0.52;fill:#CBDCE2;}
</style><path id="задняя_задняя_лапа" class="back-leg-color" d="M560.9,330.7c-5.9-1.4-11.9-2.7-17.8-4.1
	c-3.9-16.1-7.7-32.2-11.6-48.3l36.2,1.7C565.4,296.9,563.2,313.8,560.9,330.7z"/>
<path id="ветка" class="wood-1-color" d="M628.8,314.5c-3.8-7-101.7-6.8-127.3-7.7c-25.6-0.9-98.5-17.9-98.5-17.9
	c-12.1-6.4-31.6-9.5-52.9-10.7c-40.6-2.4-87.9,2-103.8,3.7c-3.5,0.4-5.5,0.6-5.5,0.6c-0.1,15.3,12,27.7,11.9,43
	c50.9-8,81.8-7.5,106.2-5.1c0.2-0.2,18.6,2.2,23.2,2.9c6.1,0.8,30.8,4.5,51.1,7.4c28.7,4.2,52.2,7.7,68,10.1l128.1,7.8
	c1.9-5,3.3-9.1,4.3-12.5C638.8,318,632,320.4,628.8,314.5z"/>
<g id="тени_ветка">
	<path id="тень_ветка" class="wood-2-color" d="M359.3,319.9c-68.6-11.4-100.2-24.5-103.9-28.5c-2.9-3.2-6.1-6.6-9-9.7
		c-3.5,0.4-5.5,0.6-5.5,0.6c3.8,13.7,8.1,29.3,11.9,43c44.5-2.3,99.1-3.2,123.3-3C376.3,321.6,358.7,320.5,359.3,319.9z"/>
	<path class="wood-2-color" d="M335.5,290c10-3.2,20.8-0.6,28.1,6.6c10.5,10.3,7.9,24.5,7.7,25.5l8.2-29.2C379.5,292.9,377.1,278.2,335.5,290
		z"/>
	<path class="wood-2-color" d="M509,341.2c0,0,15.1-6.2,16.6-24.5c0,0,88.7,1.7,107.9,19.3c0,0,10.1-22.4-14.2-25.7c-19-1-38.4-1.8-58.1-2.4
		c-14-0.4-27.8-0.7-41.4-0.8c0.3,2.5,0.5,6.1,0,10.4c-0.2,1.4-0.4,2.9-0.8,4.5C516.9,331.7,511.8,338.1,509,341.2z"/>
	<path class="wood-2-color" d="M543.8,333.5c0,0,8.7-1.6,14.4,7.7c0,0,1.2,2.5,0,3l-3.6-0.2L543.8,333.5z"/>
	<g>
		<path class="wood-2-color" d="M495.9,306.9c0,0-81-13.4-94-18.6c-0.1,0-0.1-0.1-0.2-0.1c-0.3-0.2-0.4-0.2-1.1-0.5c-0.3-0.1-0.5-0.2-0.7-0.3
			c0,0-0.2,2.7-0.2,9.4c0,11.8-4.8,24.5-10.9,27.4c0.3,0,0.6,0.1,0.9,0.1c1.4,0.2,7.9-4.9,10.4-8.9c5.3-8.3,9.8-13.5,11-14.1
			c5-2.5,19.6-1.3,31.1,1.5C454.6,305.8,472.4,308.5,495.9,306.9z"/>
	</g>
</g>
<path id="пальцы_задня_лапа" class="back-fingers-color" d="M530.4,336.6c2.8-2.7,8.3-4.5,9.8-3.1c0.6,0.5,0.1,1.1,0.3,3.8
	c0.1,2.1,0.6,4.7,1,4.7c0.3,0,0.3-1.5,1-4.5c0.5-2.4,0.8-3.6,1.3-3.9c2.8-1.6,9.5,4.2,10.9,6.4c0.2,0.3,0.7,1.2,0.7,2.3
	c0,0.6-0.3,1.2-0.3,1.3c0,0-0.2,0.5-0.8,1l-2.7,1.1c-0.8,0.5-11.2,1.5-16.6,0.5c-3-0.6-4.8-0.9-6.2-2.4c-0.4-0.5-1.4-1.7-1.3-3.2
	C527.7,339.2,528.7,338.2,530.4,336.6z"/>
<g id="ветка_круг">
	<path class="wood-3-color" d="M243.7,283c-1.5-1.1-4-0.8-4.9,0.4c-2.1,3.1-4.9,9.6-2.4,20.5c3.7,16.1,13.1,21.3,16.3,21.5
		c3.2,0.1,9.7-8.2,3.3-24.7C252,290.3,246.9,285.2,243.7,283z"/>
	<path class="wood-4-color" d="M246.4,287.1c-1.2-0.9-3.2-0.7-3.9,0.4c-1.7,2.5-4,7.7-1.9,16.6c3,13,10.6,17.2,13.2,17.3
		c2.5,0.1,7.8-6.6,2.7-19.9C253.1,293,249,288.9,246.4,287.1z"/>
	<path class="wood-3-color" d="M247.8,290.8c-0.9-0.7-2.5-0.5-3.1,0.3c-1.3,1.9-3.1,6.1-1.5,13c2.4,10.2,8.3,13.5,10.3,13.5s6.1-5.2,2.1-15.6
		C253.1,295.4,249.9,292.3,247.8,290.8z"/>
	<path class="wood-4-color" d="M247.1,294.2c-0.7-0.5-1.9-0.4-2.3,0.2c-1,1.5-2.3,4.6-1.1,9.8c1.8,7.7,6.3,10.2,7.8,10.2
		c1.5,0.1,4.6-3.9,1.6-11.8C251.1,297.7,248.7,295.3,247.1,294.2z"/>
</g>
<path id="передняя_задняя_лапа" class="back-leg-color" d="M333.4,289c-1.4-1.9,0.2-5.3,1.4-7.8c0.6-1.2,2.8-5.7,8.8-9.1
	c0,0,5-2.8,24-3.8L398,229l18.6,10.2l-41.9,50.5c-2.8-1.2-7.1-2.7-12.4-3.2C347,285,336.2,292.7,333.4,289z"/>
<path id="кончик_хвоста" class="body-t3-tail-color" d="M653.6,397.3c-25.1-11.4-63,4.7-70.8,24.1c-1.6,3.1-3.6,7.3-5.1,12.7
	c-1,3.5-3.5,13.3-2,26.2c0.5,4.7,3.2,27.4,18.6,39.1c3.5,2.6,7.4,4.6,7.9,4.8c6.7,3.3,14.6,3.4,18.8,5.1
	c11.5,4.6,25.2-24.6,29.1-29.6l-0.4-1.1c-6.3,0.7-32.1,1.6-39.2-27.2c0,0-1.1-18.6,9.8-27.2c5-3.9,13.8-6.3,20.6-3.3
	c3.7,1.6,6.3,4.7,6.3,4.7c0.7,0.8,2.5,2.9,3.6,6.2c0.4,1.1,1.5,4.6,1,9.3c-0.2,1.7-1.1,7.7-6.1,12.2c-1.8,1.6-4.5,4-8.4,3.9
	c-4.6-0.1-7.5-3.7-8.1-4.4c-8-9,5.7-12.7,5.7-12.7s-9,3.9-0.9,11.5c2.8,2.7,5.4,2.3,7.5,0.7c2.8-2.1,4.8-6.3,5.8-8.6
	c0.4-1,0.6-1.6,0.6-1.6s2.8-19-14.1-18.9c-17,0.1-24.1,21-15.8,37c5.6,10.7,18.6,19.2,30.7,15.7c5.9-1.7,11.5-6.2,16-14.7
	C678.1,435.5,678.7,408.7,653.6,397.3z"/>
<path id="тень_хвост" class="body-shadow-color" d="M650,479.7l-0.4-1.1c-6.3,0.7-32.1,1.6-39.2-27.2c0,0-1.1-18.6,9.8-27.2
	c6.3-5,15.1-5.6,20.6-3.3c1,0.4,1.9,0.9,2.1,1.1c4.9,2.9,7.1,7.6,7.9,9.8c1.8,5,1.1,9.4,0.6,11.2c0.6-1.4,1.4-3.5,2-6.1
	c0.1-0.4,2-10.7-2.3-17.7c-5.5-9-22.8-10.3-34.7-5.6c-20.5,8.2-25.3,34.4-26.6,41.4c-3.9,21.2,3.3,38.6,7,46.2
	c3.4,0.3,7.2,0.3,11.2-0.1C628.8,499,643.3,486.4,650,479.7z"/>
<path id="тело" class="body-t3-skin-color" d="M731.6,405.3c0.5-5.3,0.7-9.5,0.8-14.4c0.4-12.7,1-24.9-2.1-39c-1.4-6.5-3.3-13.1-5.6-19.5
	c-4.5-12.6-10.3-24.7-16.9-35.2c-4.3-6.8-8.8-12.9-13.4-18.2c-5.5-6.2-81.7-127.1-85.5-132.2c-11.1-14.8-22.1-21.1-22.1-21.1
	c-7.6-6.6-15.1-12.2-22.3-17c-11-7.2-21.6-12.6-31.6-16.4c-7.4-2.8-14.5-4.9-21.3-6.4c-17.5-3.8-33-3.6-45.8-2.4
	c-1.2,0.1-2.3,0.2-3.5,0.3c-5.4,0.6-10.3,1.3-14.6,1.8c-4.3,0.6-8,1-11.1,1.1c-1.1,0-2.5,0.2-3.9,0.5c-6.8,1.4-16.6,5.6-27.5,11.1
	c-12.3,6.2-26.1,14.2-38.4,21.6c-5.7,3.5-11.2,6.8-16,9.9c-12.4,7.8-20.9,13.5-20.9,13.5s-3.6,12.5-7.1,26.9L340,208
	c19.4,1,44.3,8.4,44.3,8.4c32.5,31.9,63.7,47.5,83.6,55.4c37.8,15,138.6,25.8,141.6,28.2c16.5,13,10.8,9.2,26.6,21.4
	c6.7,5.1,13.2,10.1,18.9,14.4c9.5,7.1,16.8,12.6,18.9,14.6c0.6,0.5,1.3,1.3,2.1,2.2c2.2,2.4,5,6.1,7.9,10.7
	c5,8.2,10.1,19.5,12.2,32.9c1.4,9.4,1.4,19.7-1.3,30.8c-0.7,3-1.6,6-2.7,9.1c-1.5,4.2-3.4,8.4-5.7,12.7c-1.9,3.6-3.9,6.8-6,9.6
	c-4.5,6.3-9.3,10.8-14,13.9c-8.3,5.5-16.5,6.8-23.6,6.3c-8.9-0.6-16.1-4.1-19.3-6c-4.3,1.3-9.1,2.8-14.2,4.4
	c-7,4.7-9.6,10.3-10.4,15.1c-0.9,5.7,0.8,10,0.8,10c8.9,4,16.8,6.2,22.7,7.5c5.3,1.1,12.6,2.6,22.2,2.3c4.9-0.2,12.2-0.4,20.9-3.6
	c1.7-0.6,6.3-2.9,12.4-6.1c6.1-3.3,10.1-7.7,14.6-12.6c8.3-9.1,16.4-17.8,23.9-31.9C728.4,435.4,730.6,415.1,731.6,405.3z"/>
<path id="тень_на_хвосте" class="body-shadow-color" d="M640.7,512.2c0,0,1.1-2.3,1.5-4.6c1.8-9.9,7.5-23,13.4-22.8
	c5.7,0.1,9.6,15.6,10.4,17.9c1-17.9,6.3-32.9,12.1-33.3c5.9-0.5,11.4,11.1,12.6,13.8c-6.1-15.7-4.1-28.2,1.5-30.9
	c4.8-2.3,15.4,7.1,15.4,7.1s-0.2-0.8-1.2-2.7c-5.5-10.7-7.8-13.6-8-18.7c-0.1-1.5-0.1-2.8,0.6-4.3c1.5-3.2,5.1-4.4,8.2-5.5
	c4.5-1.6,8.4-1.7,10.8-1.5c-0.5-0.1-1.2-0.4-2-0.6c-1.1-0.4-2.6-0.9-3.7-1.5c-3.2-1.5-6.9-3.9-9.2-7.6c-1.1-1.7-2.7-4.3-2.3-7.5
	c0.5-4,4-6.5,7-8.7c3.4-2.6,6.7-3.6,9-4.2c4.2-1.2,7.9-1.4,10.3-1.3c-1,0.1-16.3-0.6-23.4-7.6c-2.2-2.2-4.9-4.8-5.6-8.9
	c-1.7-9.2,7.7-18.8,16.3-22.8c2.1-1,4-1.5,5.4-1.8c-1.6,0.4-31.1,6.9-32.9,1.9c-1.8-5,24.7-18.6,26.3-19.4c0,0-25.1,9-37.8,3.4
	c-1.4-0.6-4.4-2-5.5-5c-1-2.8,0.1-6,2.3-9.6c0,0,5.4-8.9,24.4-21.6c0,0-19.5,13.2-39.2,16c-3,0.4-6.3,0.6-7.5-1.2
	c-2.1-3.1,3.4-10.3,5.8-13.4c4.2-5.5,11.6-13.2,24.3-19.9c-10.4,5.8-27.7,14.3-42.9,15.5c-5.6,0.4-9.2-0.3-10.8-2.6
	c-0.7-0.9-2.9-4.2,1.5-11.7c2.9-4.9,10.5-14.1,28-27.9c0,0-20.6,10.4-34.2,14.9c-6.2,2.1-12.2,3.6-17.7,4.8c1.5-4.8,3.2-12.6,2.1-22
	c-0.6-4.7-1.7-8.8-2.9-12c0,0-4.4-1.9-6.1-2.6l-14.5,0.8l-0.5,34.4c4.9-0.2,7.6-0.5,7.6-0.5c-4.1,9.8,76.5,66.3,84.6,73.8
	c8.1,7.5,39.2,48.9,12.4,98.5c-26.8,49.6-64.7,22.7-64.7,22.7c-2.9,0.1-11.7,0.5-18.2,7.3c-3.5,3.7-7.5,19.4-6.7,22.3
	c0.3,0.7-1-0.8,0,0c7.1-16.5,22.9-23.6,31-21c7.8,2.6,11.2,15.3,11.8,17.7C641.8,505.7,640.7,512.2,640.7,512.2z"/>
<path id="тень_передняя_лапа" class="body-shadow-color" d="M484.8,200.4c-1.2-4.4-11.2-16.6-29.8-22.3c-1.4-0.4-2.8-0.8-4.1-1.2
	c10.5,6,16.3,13.6,17.2,16.9c1.2,4.4-7.5,43.9-22.5,50.9c-0.8,1-1.7,2-2.6,3.1c-2.5,2.9-5,5.7-7.5,8.2c2.1,1.4,4.4,2.7,6.8,4.1
	c3.6,2,7,3.6,10.2,5c3.3-4.6,6.5-9.2,9.8-13.7C477.3,244.4,486,204.9,484.8,200.4z"/>
<g id="тень_окрас_1_" class="t3-transparent1">
	<path class="body-shadow-color" d="M417.3,104.5c0,0-5.9,6.1-8.1,6.1c0,0-2.5,7.5,2.1,11.6c4.6,4.1,17.5,0.3,18-1.5c0,0,3.5-1.4,0.6-4.9
		c-2.9-3.5-9.5-11.2-9.5-11.2H417.3z"/>
	<path class="body-shadow-color" d="M398.4,113.2c0,0-9.1,4.2-4.1,10.9c0,0,10.2,3,11.8,1.3s1-2.6,1-2.6s-4.1-6.7-5.9-8.1
		C401.1,114.7,400.5,113.8,398.4,113.2z"/>
	<path class="body-shadow-color" d="M426.1,101.1c0,0,9.8-1.2,13.4,2.6c3.6,3.8,3.4,5.8,3.4,5.8s0.7,8.1-0.1,9.5s-1.4,2.3-2.5,1.7
		c-1-0.6-4.3-4.4-4.3-4.4l-7.6-6.4C428.5,110,423.9,105.2,426.1,101.1z"/>
	<path class="body-shadow-color" d="M444.8,99.5c0,0,5.1,17.9,0,21.5c0,0,9,5,24.5,3c15.5-2,11-7.7,11-7.7L456,97.4
		C456,97.4,450.6,102.1,444.8,99.5z"/>
	<path class="body-shadow-color" d="M484.4,97.9c0,0,0.1,5.1-7.8,7c0,0-0.3,5.7,8.5,9.4c0,0,15.2,7.4,16.5,0.6c0,0,3.8-1.9-1.7-9.9
		C500,105,491,97.8,484.4,97.9z"/>
	<path class="body-shadow-color" d="M465.9,99.3c0,0,3.9,3,2.5,5.8c0,0,4.2-0.5,6.8-3.2c2.6-2.7,2.2-5.4,2.2-5.4S469.2,101,465.9,99.3z"/>
	<path class="body-shadow-color" d="M511,101.5c0,0,7.4,6.5,7,11.7s-2,6.4-2,6.4s-5.6,5.9-7.1,6.3s-2.7,0.5-2.9-0.7c-0.2-1.2,0.4-6.1,0.4-6.1
		l-0.3-9.9C506.1,109.2,506.5,102.6,511,101.5z"/>
	<g>
		<path class="body-shadow-color" d="M435.5,133.2c0,0,8.2-1.5,11.8,0c3.6,1.5,16.9-4.3,25.8-3.6c0,0,14-1.5,20.2-0.3c0,0,9.2,2,14.2,0.9
			c5.1-1.1,3,3,3,3s-4.7,5-9.3,4.2c0,0-17.1,3.1-23.9,2.3c-6.8-0.8-19.1,5.3-33.5,2.5s-34.9,8.7-39.7-8.2c0,0-0.9-6.4,4-8.8
			c5-2.4-1.6,6.6,9.1,7.5C428.1,133.8,435.5,133.2,435.5,133.2z"/>
		<path class="body-shadow-color" d="M394.9,149.9c0,0,8.5-5,13.4-3c4.8,2,5.5,4,5.5,4s3.9,7.2,3.7,8.8s-0.4,2.7-1.6,2.6c-1.2-0.1-5.7-2.3-5.7-2.3
			l-9.5-2.8C400.7,157.1,394.5,154.6,394.9,149.9z"/>
		<path class="body-shadow-color" d="M417.6,150.3c0,0,23-7.7,27-0.5c4,7.1-11.3,17.7-14.9,17c-3.5-0.7-5.4-0.3-8.6-3.7
			C421.2,163.1,422.1,155.2,417.6,150.3z"/>
		<path class="body-shadow-color" d="M444.6,158.7c0,0,14.4,7.9,12.3,12.6c-2,4.7-14.6,1.6-15.8-0.4c-1.2-1.9-2.2-2.7-1.8-5.5
			C439.3,165.4,444,162.8,444.6,158.7z"/>
		<path class="body-shadow-color" d="M455.2,146c0,0-4.6,4.8-6.4,4.8c0,0-2,5.9,1.7,9.1c3.6,3.2,13.7,0.3,14.1-1.2c0,0,2.8-1.1,0.4-3.9
			c-2.3-2.7-7.5-8.8-7.5-8.8H455.2z"/>
		<g>
			<path class="body-shadow-color" d="M461.4,146.1c0,0,8.5-5,13.4-3c4.8,2,5.5,4,5.5,4s3.9,7.2,3.7,8.8c-0.1,1.6-0.4,2.7-1.6,2.6
				c-1.2-0.1-5.7-2.3-5.7-2.3l-9.5-2.8C467.2,153.2,461.1,150.7,461.4,146.1z"/>
			<path class="body-shadow-color" d="M469.2,159.9c0,0-15.4,7.2-7,18.6c0,0,17.3,5.1,20.1,2.3s1.7-4.5,1.7-4.5s-6.9-11.4-10-13.8
				C473.9,162.6,472.7,161,469.2,159.9z"/>
			<path class="body-shadow-color" d="M491.2,140.3c0,0-6.3,4.1-6.6,5.9s0,5.3,0,5.3s1,3.5,4.3,5.2c3.2,1.7,13.5,0,13.9-1.7
				c0.4-1.8,0.6-6.4-4.1-9.4S491.2,140.3,491.2,140.3z"/>
			<path class="body-shadow-color" d="M478.7,161.3c0,0,5.8,12.7,16,13.5l5.2,0.2c0,0,1.4-5.1-2.3-8.1c-3.8-3-10.4-6.9-10.4-6.9
				S481.3,162.3,478.7,161.3z"/>
			<path class="body-shadow-color" d="M523.7,118.8c0,0-6.5,7.5-9,7.5c0,0-2.8,9.3,2.3,14.3c5.1,5.1,19.4,0.4,20-1.8c0,0,3.9-1.8,0.6-6.1
				c-3.3-4.3-10.6-13.9-10.6-13.9H523.7z"/>
			<path class="body-shadow-color" d="M501.9,144.1c0,0,7,9,5.4,12.1c0,0,5.7,0.8,13-3.7s3.6-6.8,3.6-6.8l-16.9-5.3
				C507,140.5,505.5,144.3,501.9,144.1z"/>
			<path class="body-shadow-color" d="M543.2,122.9c0,0-4.4-11.9-13.6-13.3l-4.7-0.5c0,0-1.6,4.5,1.6,7.5c3.2,3,8.9,6.9,8.9,6.9
				S540.9,121.9,543.2,122.9z"/>
			<path class="body-shadow-color" d="M547.3,122.3c0,0,14.4,7.9,12.3,12.6c-2,4.7-14.6,1.6-15.8-0.4c-1.2-1.9-2.2-2.7-1.8-5.5
				C542,129,546.6,126.4,547.3,122.3z"/>
			<path class="body-shadow-color" d="M536.9,137.6c0,0,7.5-1.8,9.7,0c2.3,1.8,2.1,2.9,2.1,2.9s2,2.3,0,4.8c-2,2.5-8.2,2.5-8.2,2.5
				s-7.3,0.5-7.4-1.9C533.2,143.4,532.8,139,536.9,137.6z"/>
			<path class="body-shadow-color" d="M522.6,153.8c0,0,8.5-5,13.4-3s5.5,4,5.5,4s3.9,7.2,3.7,8.8c-0.1,1.6-0.4,2.7-1.6,2.6s-5.7-2.3-5.7-2.3
				l-9.5-2.8C528.4,161,522.2,158.5,522.6,153.8z"/>
			<g>
				<path class="body-shadow-color" d="M503.8,162.2c0,0,0.3,8.4-1.2,10c0,0,3.7,7,9.9,6.5c6.2-0.5,12.3-12.4,11.3-14.1c0,0,1.4-3.5-3.2-3.8
					c-4.6-0.3-14.7-0.9-14.7-0.9L503.8,162.2z"/>
				<path class="body-shadow-color" d="M473.8,186c0,0,8.5-5,13.4-3c4.8,2,5.5,4,5.5,4s3.9,7.2,3.7,8.8c-0.1,1.6-0.4,2.7-1.6,2.6
					c-1.2-0.1-5.7-2.3-5.7-2.3l-9.5-2.8C479.6,193.2,473.5,190.7,473.8,186z"/>
				<path class="body-shadow-color" d="M490.5,180.8c0,0,7.1,8.9,5.5,12.1c0,0,5.8,0.8,13-3.9c7.2-4.6,3.5-6.8,3.5-6.8l-16.9-5.1
					C495.5,177,494.1,180.9,490.5,180.8z"/>
				<path class="body-shadow-color" d="M526,165.2c0,0,1,3.7-4.3,6.6c0,0,0.8,4.2,7.9,5.2c0,0,12.5,2.5,12.1-2.6c0,0,2.4-2.1-3-6.9
					C538.7,167.5,530.8,163.9,526,165.2z"/>
				<path class="body-shadow-color" d="M566.3,137.6c0,0-18.5,5-14.3,22.8c0,0,15.9,11.9,19.8,8.9c3.9-3,3.4-5.5,3.4-5.5s-2.8-17.3-5.1-21.3
					C570.2,142.4,569.6,140,566.3,137.6z"/>
				<path class="body-shadow-color" d="M544.3,169.3c0,0,8.5-5,13.4-3s5.5,4,5.5,4s3.9,7.2,3.7,8.8c-0.1,1.6-0.4,2.7-1.6,2.6
					c-1.2-0.1-5.7-2.3-5.7-2.3l-9.5-2.8C550.1,176.5,544,174,544.3,169.3z"/>
				<path class="body-shadow-color" d="M520.3,180.5c0,0,21.3-1.2,25.2,2.8c3.9,4-0.9,9.6-0.9,9.6s-13.3,3.3-15.9,1.7c0,0-13.2-1.4-11.6-9.6
					C517,185.1,517.5,182.3,520.3,180.5z"/>
				<path class="body-shadow-color" d="M576.1,149c0,0,9.9,0.5,12.8,4.8c2.9,4.3,2.4,6.3,2.4,6.3s-0.7,8.1-1.7,9.4s-1.8,2-2.7,1.3
					c-0.9-0.8-3.5-5-3.5-5l-6.4-7.6C577.1,158.2,573.3,152.7,576.1,149z"/>
				<path class="body-shadow-color" d="M569.1,173.3c0,0,5.5,15.4,1.2,18.9c0,0,8.1,3.9,21.4,1.3c13.3-2.6,9.1-7.4,9.1-7.4l-22.1-15.2
					C578.7,170.8,574.4,175.3,569.1,173.3z"/>
				<path class="body-shadow-color" d="M607.6,184.2c0,0-1.8-12.5-10.4-15.9l-4.5-1.5c0,0-2.6,4.1-0.1,7.7c2.5,3.6,7.3,8.7,7.3,8.7
					S605.6,182.7,607.6,184.2z"/>
				<path class="body-shadow-color" d="M555.4,178.7c0,0-5.8,4.3-6,6.2c-0.2,1.9,0,5.5,0,5.5s0.9,3.6,3.9,5.4c2.9,1.8,12.3,0,12.7-1.8
					s0.6-6.7-3.8-9.8C557.9,181.2,555.4,178.7,555.4,178.7z"/>
				<g>
					<path class="body-shadow-color" d="M488.5,209.2c0,0-0.8-1.8-0.6-2.2c0.2-0.5,3.4-6.2,9-7.6c0,0,9.4-4.5,11-3.5s3.3,0.8,3.2,2.6
						s-1.1,3.3-2.4,3.9c-1.3,0.6-7.9,5.9-14.6,10.7C494,213.2,491.4,213.9,488.5,209.2z"/>
					<path class="body-shadow-color" d="M547.4,201.5c0,0-3.9,0.2-5.5-0.6s-8.1,0.9-12.1,0.2c0,0-6.6-0.1-9.4-0.8c0,0-4.1-1.2-6.5-1
						c-2.4,0.2-1.2-1.3-1.2-1.3s2.4-1.7,4.5-1.2c0,0,8.1-0.4,11.2,0.2c3.1,0.6,9.1-1.2,15.7,0.6c6.5,1.7,16.6-1.8,18,5
						c0,0,0.1,2.5-2.3,3.2s1.1-2.5-3.8-3.3S547.4,201.5,547.4,201.5z"/>
					<path class="body-shadow-color" d="M494.7,251.2c0,0-4.8-16.3-17.4-9.7c0,0-7.6,16.4-5.2,19.6c2.4,3.1,4.2,2.3,4.2,2.3s12.3-5.2,15.1-7.9
						C491.4,255.5,493.1,254.6,494.7,251.2z"/>
					<path class="body-shadow-color" d="M482,237.5c0,0,8.1,2.1,9.2,4.1c0,0,7.8-1.5,9.1-7.5c1.3-6-8.3-15.4-10.1-15c0,0-3-2.4-4.6,1.9
						c-1.6,4.3-5.2,13.8-5.2,13.8L482,237.5z"/>
					<path class="body-shadow-color" d="M493.6,215c0,0,2.4,6.8,4.2,7.5s5.3,1.6,5.3,1.6s3.8,0.2,6.3-2.1c2.5-2.3,3.7-11.8,2-12.6
						c-1.7-0.9-6.2-2.5-10.5,0.7C496.7,213.4,493.6,215,493.6,215z"/>
					<path class="body-shadow-color" d="M507.5,227.8c0,0,14.4,7.9,12.3,12.6c-2,4.7-14.6,1.6-15.8-0.4c-1.2-1.9-2.2-2.7-1.8-5.5
						C502.1,234.5,506.8,231.8,507.5,227.8z"/>
					<path class="body-shadow-color" d="M518.1,215c0,0-4.6,4.8-6.4,4.8c0,0-2,5.9,1.7,9.1c3.6,3.2,13.7,0.3,14.1-1.2c0,0,2.8-1.1,0.4-3.9
						s-7.5-8.8-7.5-8.8H518.1z"/>
					<path class="body-shadow-color" d="M510.9,204.2c0,0,5.8,12.7,16,13.5l5.2,0.2c0,0,1.4-5.1-2.3-8.1s-10.4-6.9-10.4-6.9
						S513.5,205.1,510.9,204.2z"/>
					<path class="body-shadow-color" d="M549,223.8c0,0,22.9-0.6,13.2-12.1c0,0-23.4-9.5-27.8-8.3s-3.1,2.9-3.1,2.9s7.7,11.1,11.6,13.9
						C542.8,220.3,544.1,221.9,549,223.8z"/>
					<path class="body-shadow-color" d="M528.1,223.8c0,0,7.5,6.9,14.6,4.6l3.5-1.4c0,0-0.5-3.8-3.9-4.8c-3.4-1-9-1.7-9-1.7
						S530.1,223.7,528.1,223.8z"/>
					<g>
						<path class="body-shadow-color" d="M459.4,273.3c0,0,6.4,1.5,7.3,3.1c0,0,6.1-1.3,7-6.1c0.9-4.8-6.8-11.9-8.2-11.6c0,0-2.4-1.8-3.6,1.6
							s-3.8,10.9-3.8,10.9L459.4,273.3z"/>
						<path class="body-shadow-color" d="M504.4,259.7c0,0-2.4,8.2-6.7,9.8c-4.2,1.6-5.8,0.7-5.8,0.7s-6.7-2.2-7.5-3.3c-0.9-1.1-1.3-1.9-0.5-2.6
							s4.9-1.9,4.9-1.9l7.7-3.8C496.5,258.6,501.8,256.6,504.4,259.7z"/>
						<path class="body-shadow-color" d="M474.5,265.3c0,0,2.4,11.1-0.4,13.3c0,0,4.8,3.2,13.3,2.3c8.5-0.9,6.2-4.5,6.2-4.5l-12.9-12.1
							C480.7,264.2,477.7,267,474.5,265.3z"/>
						<path class="body-shadow-color" d="M494.8,243.1c0,0-1.1,5.6-0.2,6.9s3,3.3,3,3.3s2.5,1.6,5.2,1.1c2.7-0.5,7.3-6.6,6.5-7.9
							c-0.8-1.3-3.3-4.3-7.5-3.8C497.5,243.2,494.8,243.1,494.8,243.1z"/>
						<path class="body-shadow-color" d="M608.8,184.3c0,0-6.3,4.1-6.6,5.9c-0.3,1.8,0,5.3,0,5.3s1,3.5,4.3,5.2s13.5,0,13.9-1.7
							c0.4-1.8,0.6-6.4-4.1-9.4C611.5,186.7,608.8,184.3,608.8,184.3z"/>
						<path class="body-shadow-color" d="M563,197.9c0,0,7.9,11.5,18.1,10.6l5.1-0.7c0,0,0.5-5.3-3.7-7.6c-4.2-2.4-11.4-5-11.4-5
							S565.7,198.4,563,197.9z"/>
						<path class="body-shadow-color" d="M527.8,229.3c0,0-5,5.4-7.3,6c0,0-1.3,5.3,4.2,6.4c5.5,1.1,18-5,18.2-6.2c0,0,3.4-1.9-0.3-3.1
							c-3.6-1.2-11.7-4-11.7-4L527.8,229.3z"/>
						<path class="body-shadow-color" d="M584.1,198.8c0,0,9.4-6.4,11.7-3.7s-3.6,9.5-5.2,9.7c-1.6,0.1-2.4,0.5-4-0.6
							C586.6,204.2,586.3,200.5,584.1,198.8z"/>
						<path class="body-shadow-color" d="M547.6,230.4c0,0-0.1-2.1,0.3-2.5c0.4-0.4,6-4.7,12.1-3.8c0,0,11.3-0.6,12.4,1.1c1.1,1.7,2.9,2.2,2.1,3.9
							c-0.8,1.7-2.4,2.8-4,2.9c-1.6,0.1-10.3,2.6-19,4.6C551.4,236.6,548.5,236.3,547.6,230.4z"/>
						<path class="body-shadow-color" d="M581.5,216.4c0,0-8.2,2.8-12.2,0.5c-4-2.3-4.4-3.9-4.4-3.9s-2.5-6.3-2.2-7.5s0.7-2.1,1.7-1.8
							c1,0.3,4.7,2.6,4.7,2.6l8.1,3.6C577.2,209.8,582.4,212.7,581.5,216.4z"/>
						<path class="body-shadow-color" d="M587.1,208.7c0,0-4.5,3-4.7,4.3c-0.2,1.3,0,3.8,0,3.8s0.7,2.5,3,3.7c2.3,1.2,9.7,0,10-1.2s0.5-4.6-3-6.7
							C589.1,210.4,587.1,208.7,587.1,208.7z"/>
						<path class="body-shadow-color" d="M574.1,219.5c0,0,12,5.4,15.2,3.5c0,0,1.9-0.8,1.9,2.9s-8.5,2.4-8.5,2.4s-9.2-1.3-10.4-8.8
							C572.2,219.5,571.4,218.4,574.1,219.5z"/>
						<g>
							<path class="body-shadow-color" d="M594,207.3c0.7-2.3,1.5-5.7,7.2-5.9c5.7-0.1,8.3,2.9,8.3,2.9s1.6,3.6,0.7,4.3c0,0,1.1,1.7-2.1,4
								c-3.2,2.3-13.5,0.7-14-0.7C593.5,210.6,594,207.3,594,207.3z"/>
							<path class="body-shadow-color" d="M593,223.7c0,0,5.8,12.7,16,13.5l5.2,0.2c0,0,1.4-5.1-2.3-8.1c-3.8-3-10.4-6.9-10.4-6.9
								S595.5,224.7,593,223.7z"/>
							<path class="body-shadow-color" d="M615.6,237.8c0,0,9.3,3.4,10.8,8.4s0.4,6.7,0.4,6.7s-3,7.6-4.4,8.5c-1.3,0.9-2.3,1.4-3,0.4
								c-0.7-1-1.9-5.8-1.9-5.8l-3.9-9.1C613.8,246.9,611.8,240.6,615.6,237.8z"/>
							<path class="body-shadow-color" d="M615.9,204.5c0,0,0.7,2.3-2.8,4.1c0,0,0.5,2.6,5.1,3.3c0,0,8.1,1.6,7.8-1.7c0,0,1.6-1.3-2-4.3
								C624.1,205.9,619,203.7,615.9,204.5z"/>
							<path class="body-shadow-color" d="M616.2,266.5c0,0,10.8-2.4,12.9,1.6c2.1,3.9-0.1,10-0.1,10s-6.6,4.1-8,2.7c0,0-6.7-0.8-6.3-9.3
								C614.7,271.5,614.8,268.5,616.2,266.5z"/>
							<path class="body-shadow-color" d="M603.9,221c0,0,13.3,8,13.2,12.5c0,0,7.1-1.4,12.8-9.9c5.7-8.5,0.2-9.7,0.2-9.7l-22.5,0.5
								C607.6,214.5,608.1,219.7,603.9,221z"/>
							<path class="body-shadow-color" d="M631.6,223.4c0,0,7.8,0.2,9.1,3.9c1.3,3.7,0.5,5.5,0.5,5.5s-2.4,7.1-3.5,8.3c-1.1,1.1-1.9,1.8-2.5,1.2
								c-0.6-0.7-1.6-4.3-1.6-4.3l-3.4-6.5C630.2,231.5,628.5,226.8,631.6,223.4z"/>
							<path class="body-shadow-color" d="M628.5,241.1c0,0,2.5-3.1,2.4-4.2c-0.1-1.1-0.7-3.1-0.7-3.1s-1-1.9-2.8-2.5c-1.8-0.6-6.6,1.6-6.5,2.6
								c0.1,1.1,0.6,3.8,3.3,4.9C626.8,240.1,628.5,241.1,628.5,241.1z"/>
							<path class="body-shadow-color" d="M618.4,283.3c0,0-1.9,8.5-6,10.7c-4.1,2.2-5.6,1.7-5.6,1.7s-6.7-1.1-7.6-2c-0.9-0.9-1.4-1.7-0.6-2.4
								c0.8-0.7,4.7-2.7,4.7-2.7l7.3-5C610.6,283.6,615.8,280.7,618.4,283.3z"/>
							<path class="body-shadow-color" d="M629.5,242.4c0,0,3.1-1.6,4.1,0s0.9,2.6,0.9,2.6s0.8,2.1,0,4.4c-0.8,2.3-3.4,2.2-3.4,2.2s-3,0.4-3.1-1.8
								S627.8,243.7,629.5,242.4z"/>
							<path class="body-shadow-color" d="M642.5,236.4c0,0-3.3,10.4-6,11.4c0,0,1.6,4.2,7.3,5.9c5.7,1.7,5.8-2.1,5.8-2.1l-2.8-14.3
								C646.9,237.3,643.8,238.8,642.5,236.4z"/>
						</g>
					</g>
				</g>
			</g>
		</g>
	</g>
</g>
<g id="окрас">
	<path class="body-t3-main-color" d="M415,102.4c0,0-5.9,6.1-8.1,6.1c0,0-2.5,7.5,2.1,11.6s17.5,0.3,18-1.5c0,0,3.5-1.4,0.6-4.9
		c-2.9-3.5-9.5-11.2-9.5-11.2H415z"/>
	<path class="body-t3-main-color" d="M396,111c0,0-9.1,4.2-4.1,10.9c0,0,10.2,3,11.8,1.3c1.6-1.7,1-2.6,1-2.6s-4.1-6.7-5.9-8.1
		C398.8,112.6,398.1,111.6,396,111z"/>
	<path class="body-t3-main-color" d="M423.7,98.9c0,0,9.8-1.2,13.4,2.6c3.6,3.8,3.4,5.8,3.4,5.8s0.7,8.1-0.1,9.5s-1.4,2.3-2.5,1.7
		s-4.3-4.4-4.3-4.4l-7.6-6.4C426.2,107.8,421.5,103.1,423.7,98.9z"/>
	<path class="body-t3-main-color" d="M442.4,97.4c0,0,5.1,17.9,0,21.5c0,0,9,5,24.5,3c15.5-2,11-7.7,11-7.7l-24.2-18.9
		C453.6,95.3,448.3,100,442.4,97.4z"/>
	<path class="body-t3-main-color" d="M482,95.7c0,0,0.1,5.1-7.8,7c0,0-0.3,5.7,8.5,9.4c0,0,15.2,7.4,16.5,0.6c0,0,3.8-1.9-1.7-9.9
		C497.6,102.9,488.7,95.6,482,95.7z"/>
	<path class="body-t3-main-color" d="M463.5,97.2c0,0,3.9,3,2.5,5.8c0,0,4.2-0.5,6.8-3.2c2.6-2.7,2.2-5.4,2.2-5.4S466.8,98.8,463.5,97.2z"/>
	<path class="body-t3-main-color" d="M508.7,99.3c0,0,7.4,6.5,7,11.7s-2,6.4-2,6.4s-5.6,5.9-7.1,6.3c-1.6,0.4-2.7,0.5-2.9-0.7
		c-0.2-1.2,0.4-6.1,0.4-6.1l-0.3-9.9C503.7,107.1,504.1,100.5,508.7,99.3z"/>
	<g>
		<path class="body-t3-main-color" d="M433.1,131.1c0,0,8.2-1.5,11.8,0s16.9-4.3,25.8-3.6c0,0,14-1.5,20.2-0.3c0,0,9.2,2,14.2,0.9c5.1-1.1,3,3,3,3
			s-4.7,5-9.3,4.2c0,0-17.1,3.1-23.9,2.3c-6.8-0.8-19.1,5.3-33.5,2.5s-34.9,8.7-39.7-8.2c0,0-0.9-6.4,4-8.8c5-2.4-1.6,6.6,9.1,7.5
			C425.7,131.6,433.1,131.1,433.1,131.1z"/>
		<path class="body-t3-main-color" d="M392.5,147.8c0,0,8.5-5,13.4-3c4.8,2,5.5,4,5.5,4s3.9,7.2,3.7,8.8c-0.1,1.6-0.4,2.7-1.6,2.6
			s-5.7-2.3-5.7-2.3l-9.5-2.8C398.3,154.9,392.2,152.4,392.5,147.8z"/>
		<path class="body-t3-main-color" d="M415.3,148.2c0,0,23-7.7,27-0.5c4,7.1-11.3,17.7-14.9,17c-3.5-0.7-5.4-0.3-8.6-3.7
			C418.8,161,419.7,153.1,415.3,148.2z"/>
		<path class="body-t3-main-color" d="M442.3,156.6c0,0,14.4,7.9,12.3,12.6c-2,4.7-14.6,1.6-15.8-0.4c-1.2-1.9-2.2-2.7-1.8-5.5
			C437,163.3,441.6,160.6,442.3,156.6z"/>
		<path class="body-t3-main-color" d="M452.9,143.8c0,0-4.6,4.8-6.4,4.8c0,0-2,5.9,1.7,9.1c3.6,3.2,13.7,0.3,14.1-1.2c0,0,2.8-1.1,0.4-3.9
			c-2.3-2.7-7.5-8.8-7.5-8.8H452.9z"/>
		<g>
			<path class="body-t3-main-color" d="M459.1,143.9c0,0,8.5-5,13.4-3c4.8,2,5.5,4,5.5,4s3.9,7.2,3.7,8.8c-0.1,1.6-0.4,2.7-1.6,2.6
				c-1.2-0.1-5.7-2.3-5.7-2.3l-9.5-2.8C464.9,151.1,458.7,148.6,459.1,143.9z"/>
			<path class="body-t3-main-color" d="M466.8,157.8c0,0-15.4,7.2-7,18.6c0,0,17.3,5.1,20.1,2.3s1.7-4.5,1.7-4.5s-6.9-11.4-10-13.8
				C471.5,160.4,470.4,158.8,466.8,157.8z"/>
			<path class="body-t3-main-color" d="M488.9,138.2c0,0-6.3,4.1-6.6,5.9s0,5.3,0,5.3s1,3.5,4.3,5.2s13.5,0,13.9-1.7c0.4-1.8,0.6-6.4-4.1-9.4
				C491.6,140.5,488.9,138.2,488.9,138.2z"/>
			<path class="body-t3-main-color" d="M476.4,159.1c0,0,5.8,12.7,16,13.5l5.2,0.2c0,0,1.4-5.1-2.3-8.1c-3.8-3-10.4-6.9-10.4-6.9
				S478.9,160.1,476.4,159.1z"/>
			<path class="body-t3-main-color" d="M521.3,116.6c0,0-6.5,7.5-9,7.5c0,0-2.8,9.3,2.3,14.3s19.4,0.4,20-1.8c0,0,3.9-1.8,0.6-6.1
				c-3.3-4.3-10.6-13.9-10.6-13.9H521.3z"/>
			<path class="body-t3-main-color" d="M499.6,142c0,0,7,9,5.4,12.1c0,0,5.7,0.8,13-3.7c7.3-4.6,3.6-6.8,3.6-6.8l-16.9-5.3
				C504.7,138.3,503.2,142.2,499.6,142z"/>
			<path class="body-t3-main-color" d="M540.8,120.8c0,0-4.4-11.9-13.6-13.3l-4.7-0.5c0,0-1.6,4.5,1.6,7.5c3.2,3,8.9,6.9,8.9,6.9
				S538.6,119.7,540.8,120.8z"/>
			<path class="body-t3-main-color" d="M545,120.2c0,0,14.4,7.9,12.3,12.6c-2,4.7-14.6,1.6-15.8-0.4c-1.2-1.9-2.2-2.7-1.8-5.5
				C539.6,126.9,544.3,124.2,545,120.2z"/>
			<path class="body-t3-main-color" d="M534.5,135.5c0,0,7.5-1.8,9.7,0s2.1,2.9,2.1,2.9s2,2.3,0,4.8c-2,2.5-8.2,2.5-8.2,2.5s-7.3,0.5-7.4-1.9
				C530.8,141.2,530.4,136.9,534.5,135.5z"/>
			<path class="body-t3-main-color" d="M520.2,151.7c0,0,8.5-5,13.4-3c4.8,2,5.5,4,5.5,4s3.9,7.2,3.7,8.8c-0.1,1.6-0.4,2.7-1.6,2.6
				c-1.2-0.1-5.7-2.3-5.7-2.3l-9.5-2.8C526,158.9,519.9,156.4,520.2,151.7z"/>
			<g>
				<path class="body-t3-main-color" d="M501.5,160.1c0,0,0.3,8.4-1.2,10c0,0,3.7,7,9.9,6.5c6.2-0.5,12.3-12.4,11.3-14.1c0,0,1.4-3.5-3.2-3.8
					c-4.6-0.3-14.7-0.9-14.7-0.9L501.5,160.1z"/>
				<path class="body-t3-main-color" d="M471.4,183.9c0,0,8.5-5,13.4-3c4.8,2,5.5,4,5.5,4s3.9,7.2,3.7,8.8c-0.1,1.6-0.4,2.7-1.6,2.6
					c-1.2-0.1-5.7-2.3-5.7-2.3l-9.5-2.8C477.3,191.1,471.1,188.6,471.4,183.9z"/>
				<path class="body-t3-main-color" d="M488.1,178.6c0,0,7.1,8.9,5.5,12.1c0,0,5.8,0.8,13-3.9c7.2-4.6,3.5-6.8,3.5-6.8l-16.9-5.1
					C493.2,174.9,491.7,178.8,488.1,178.6z"/>
				<path class="body-t3-main-color" d="M523.6,163.1c0,0,1,3.7-4.3,6.6c0,0,0.8,4.2,7.9,5.2c0,0,12.5,2.5,12.1-2.6c0,0,2.4-2.1-3-6.9
					C536.3,165.4,528.4,161.8,523.6,163.1z"/>
				<path class="body-t3-main-color" d="M564,135.4c0,0-18.5,5-14.3,22.8c0,0,15.9,11.9,19.8,8.9s3.4-5.5,3.4-5.5s-2.8-17.3-5.1-21.3
					C567.8,140.3,567.2,137.9,564,135.4z"/>
				<path class="body-t3-main-color" d="M542,167.2c0,0,8.5-5,13.4-3c4.8,2,5.5,4,5.5,4s3.9,7.2,3.7,8.8c-0.1,1.6-0.4,2.7-1.6,2.6
					c-1.2-0.1-5.7-2.3-5.7-2.3l-9.5-2.8C547.8,174.3,541.6,171.8,542,167.2z"/>
				<path class="body-t3-main-color" d="M517.9,178.3c0,0,21.3-1.2,25.2,2.8s-0.9,9.6-0.9,9.6s-13.3,3.3-15.9,1.7c0,0-13.2-1.4-11.6-9.6
					C514.6,182.9,515.1,180.1,517.9,178.3z"/>
				<path class="body-t3-main-color" d="M573.8,146.8c0,0,9.9,0.5,12.8,4.8c2.9,4.3,2.4,6.3,2.4,6.3s-0.7,8.1-1.7,9.4s-1.8,2-2.7,1.3
					c-0.9-0.8-3.5-5-3.5-5l-6.4-7.6C574.7,156,570.9,150.6,573.8,146.8z"/>
				<path class="body-t3-main-color" d="M566.7,171.2c0,0,5.5,15.4,1.2,18.9c0,0,8.1,3.9,21.4,1.3c13.3-2.6,9.1-7.4,9.1-7.4l-22.1-15.2
					C576.4,168.7,572,173.1,566.7,171.2z"/>
				<path class="body-t3-main-color" d="M605.2,182.1c0,0-1.8-12.5-10.4-15.9l-4.5-1.5c0,0-2.6,4.1-0.1,7.7c2.5,3.6,7.3,8.7,7.3,8.7
					S603.2,180.5,605.2,182.1z"/>
				<path class="body-t3-main-color" d="M553.1,176.6c0,0-5.8,4.3-6,6.2c-0.2,1.9,0,5.5,0,5.5s0.9,3.6,3.9,5.4c2.9,1.8,12.3,0,12.7-1.8
					s0.6-6.7-3.8-9.8S553.1,176.6,553.1,176.6z"/>
				<g>
					<path class="body-t3-main-color" d="M486.1,207.1c0,0-0.8-1.8-0.6-2.2c0.2-0.5,3.4-6.2,9-7.6c0,0,9.4-4.5,11-3.5c1.6,1,3.3,0.8,3.2,2.6
						c-0.1,1.7-1.1,3.3-2.4,3.9c-1.3,0.6-7.9,5.9-14.6,10.7C491.6,211,489,211.8,486.1,207.1z"/>
					<path class="body-t3-main-color" d="M545,199.4c0,0-3.9,0.2-5.5-0.6c-1.6-0.8-8.1,0.9-12.1,0.2c0,0-6.6-0.1-9.4-0.8c0,0-4.1-1.2-6.5-1
						s-1.2-1.3-1.2-1.3s2.4-1.7,4.5-1.2c0,0,8.1-0.4,11.2,0.2s9.1-1.2,15.7,0.6c6.5,1.7,16.6-1.8,18,5c0,0,0.1,2.5-2.3,3.2
						c-2.4,0.7,1.1-2.5-3.8-3.3C548.5,199.5,545,199.4,545,199.4z"/>
					<path class="body-t3-main-color" d="M492.3,249.1c0,0-4.8-16.3-17.4-9.7c0,0-7.6,16.4-5.2,19.6c2.4,3.1,4.2,2.3,4.2,2.3s12.3-5.2,15.1-7.9
						C489,253.3,490.8,252.4,492.3,249.1z"/>
					<path class="body-t3-main-color" d="M479.6,235.3c0,0,8.1,2.1,9.2,4.1c0,0,7.8-1.5,9.1-7.5s-8.3-15.4-10.1-15c0,0-3-2.4-4.6,1.9
						c-1.6,4.3-5.2,13.8-5.2,13.8L479.6,235.3z"/>
					<path class="body-t3-main-color" d="M491.3,212.9c0,0,2.4,6.8,4.2,7.5c1.7,0.8,5.3,1.6,5.3,1.6s3.8,0.2,6.3-2.1c2.5-2.3,3.7-11.8,2-12.6
						c-1.7-0.9-6.2-2.5-10.5,0.7C494.3,211.3,491.3,212.9,491.3,212.9z"/>
					<path class="body-t3-main-color" d="M505.1,225.6c0,0,14.4,7.9,12.3,12.6c-2,4.7-14.6,1.6-15.8-0.4c-1.2-1.9-2.2-2.7-1.8-5.5
						C499.8,232.3,504.4,229.7,505.1,225.6z"/>
					<path class="body-t3-main-color" d="M515.7,212.9c0,0-4.6,4.8-6.4,4.8c0,0-2,5.9,1.7,9.1s13.7,0.3,14.1-1.2c0,0,2.8-1.1,0.4-3.9
						c-2.3-2.7-7.5-8.8-7.5-8.8H515.7z"/>
					<path class="body-t3-main-color" d="M508.6,202c0,0,5.8,12.7,16,13.5l5.2,0.2c0,0,1.4-5.1-2.3-8.1c-3.8-3-10.4-6.9-10.4-6.9
						S511.2,203,508.6,202z"/>
					<path class="body-t3-main-color" d="M546.6,221.7c0,0,22.9-0.6,13.2-12.1c0,0-23.4-9.5-27.8-8.3s-3.1,2.9-3.1,2.9s7.7,11.1,11.6,13.9
						C540.5,218.1,541.8,219.7,546.6,221.7z"/>
					<path class="body-t3-main-color" d="M525.7,221.7c0,0,7.5,6.9,14.6,4.6l3.5-1.4c0,0-0.5-3.8-3.9-4.8c-3.4-1-9-1.7-9-1.7
						S527.7,221.6,525.7,221.7z"/>
					<g>
						<path class="body-t3-main-color" d="M457,271.1c0,0,6.4,1.5,7.3,3.1c0,0,6.1-1.3,7-6.1c0.9-4.8-6.8-11.9-8.2-11.6c0,0-2.4-1.8-3.6,1.6
							c-1.2,3.4-3.8,10.9-3.8,10.9L457,271.1z"/>
						<path class="body-t3-main-color" d="M502,257.6c0,0-2.4,8.2-6.7,9.8c-4.2,1.6-5.8,0.7-5.8,0.7s-6.7-2.2-7.5-3.3c-0.9-1.1-1.3-1.9-0.5-2.6
							s4.9-1.9,4.9-1.9l7.7-3.8C494.1,256.5,499.5,254.4,502,257.6z"/>
						<path class="body-t3-main-color" d="M472.2,263.1c0,0,2.4,11.1-0.4,13.3c0,0,4.8,3.2,13.3,2.3c8.5-0.9,6.2-4.5,6.2-4.5L478.4,262
							C478.4,262,475.3,264.9,472.2,263.1z"/>
						<path class="body-t3-main-color" d="M492.4,241c0,0-1.1,5.6-0.2,6.9c0.9,1.2,3,3.3,3,3.3s2.5,1.6,5.2,1.1c2.7-0.5,7.3-6.6,6.5-7.9
							c-0.8-1.3-3.3-4.3-7.5-3.8C495.2,241.1,492.4,241,492.4,241z"/>
						<path class="body-t3-main-color" d="M606.4,182.2c0,0-6.3,4.1-6.6,5.9c-0.3,1.8,0,5.3,0,5.3s1,3.5,4.3,5.2c3.2,1.7,13.5,0,13.9-1.7
							c0.4-1.8,0.6-6.4-4.1-9.4C609.1,184.5,606.4,182.2,606.4,182.2z"/>
						<path class="body-t3-main-color" d="M560.6,195.8c0,0,7.9,11.5,18.1,10.6l5.1-0.7c0,0,0.5-5.3-3.7-7.6s-11.4-5-11.4-5
							S563.3,196.3,560.6,195.8z"/>
						<path class="body-t3-main-color" d="M525.5,227.2c0,0-5,5.4-7.3,6c0,0-1.3,5.3,4.2,6.4c5.5,1.1,18-5,18.2-6.2c0,0,3.4-1.9-0.3-3.1
							c-3.6-1.2-11.7-4-11.7-4L525.5,227.2z"/>
						<path class="body-t3-main-color" d="M581.7,196.7c0,0,9.4-6.4,11.7-3.7s-3.6,9.5-5.2,9.7c-1.6,0.1-2.4,0.5-4-0.6
							C584.2,202.1,584,198.3,581.7,196.7z"/>
						<path class="body-t3-main-color" d="M545.2,228.3c0,0-0.1-2.1,0.3-2.5c0.4-0.4,6-4.7,12.1-3.8c0,0,11.3-0.6,12.4,1.1
							c1.1,1.7,2.9,2.2,2.1,3.9c-0.8,1.7-2.4,2.8-4,2.9c-1.6,0.1-10.3,2.6-19,4.6C549.1,234.5,546.2,234.2,545.2,228.3z"/>
						<path class="body-t3-main-color" d="M579.1,214.2c0,0-8.2,2.8-12.2,0.5c-4-2.3-4.4-3.9-4.4-3.9s-2.5-6.3-2.2-7.5s0.7-2.1,1.7-1.8
							s4.7,2.6,4.7,2.6l8.1,3.6C574.9,207.7,580,210.6,579.1,214.2z"/>
						<path class="body-t3-main-color" d="M584.8,206.5c0,0-4.5,3-4.7,4.3c-0.2,1.3,0,3.8,0,3.8s0.7,2.5,3,3.7c2.3,1.2,9.7,0,10-1.2
							c0.3-1.3,0.5-4.6-3-6.7C586.7,208.2,584.8,206.5,584.8,206.5z"/>
						<path class="body-t3-main-color" d="M571.7,217.4c0,0,12,5.4,15.2,3.5c0,0,1.9-0.8,1.9,2.9c0,3.7-8.5,2.4-8.5,2.4s-9.2-1.3-10.4-8.8
							C569.8,217.4,569,216.2,571.7,217.4z"/>
						<g>
							<path class="body-t3-main-color" d="M591.6,205.2c0.7-2.3,1.5-5.7,7.2-5.9c5.7-0.1,8.3,2.9,8.3,2.9s1.6,3.6,0.7,4.3c0,0,1.1,1.7-2.1,4
								c-3.2,2.3-13.5,0.7-14-0.7C591.1,208.4,591.6,205.2,591.6,205.2z"/>
							<path class="body-t3-main-color" d="M590.6,221.6c0,0,5.8,12.7,16,13.5l5.2,0.2c0,0,1.4-5.1-2.3-8.1c-3.8-3-10.4-6.9-10.4-6.9
								S593.2,222.5,590.6,221.6z"/>
							<path class="body-t3-main-color" d="M613.2,235.7c0,0,9.3,3.4,10.8,8.4c1.5,5,0.4,6.7,0.4,6.7s-3,7.6-4.4,8.5c-1.3,0.9-2.3,1.4-3,0.4
								c-0.7-1-1.9-5.8-1.9-5.8l-3.9-9.1C611.4,244.7,609.4,238.4,613.2,235.7z"/>
							<path class="body-t3-main-color" d="M613.5,202.3c0,0,0.7,2.3-2.8,4.1c0,0,0.5,2.6,5.1,3.3c0,0,8.1,1.6,7.8-1.7c0,0,1.6-1.3-2-4.3
								C621.7,203.8,616.6,201.5,613.5,202.3z"/>
							<path class="body-t3-main-color" d="M613.8,264.3c0,0,10.8-2.4,12.9,1.6c2.1,3.9-0.1,10-0.1,10s-6.6,4.1-8,2.7c0,0-6.7-0.8-6.3-9.3
								C612.3,269.3,612.5,266.4,613.8,264.3z"/>
							<path class="body-t3-main-color" d="M601.5,218.9c0,0,13.3,8,13.2,12.5c0,0,7.1-1.4,12.8-9.9s0.2-9.7,0.2-9.7l-22.5,0.5
								C605.2,212.3,605.7,217.6,601.5,218.9z"/>
							<path class="body-t3-main-color" d="M629.2,221.3c0,0,7.8,0.2,9.1,3.9c1.3,3.7,0.5,5.5,0.5,5.5s-2.4,7.1-3.5,8.3c-1.1,1.1-1.9,1.8-2.5,1.2
								c-0.6-0.7-1.6-4.3-1.6-4.3l-3.4-6.5C627.9,229.3,626.1,224.6,629.2,221.3z"/>
							<path class="body-t3-main-color" d="M626.1,239c0,0,2.5-3.1,2.4-4.2c-0.1-1.1-0.7-3.1-0.7-3.1s-1-1.9-2.8-2.5c-1.8-0.6-6.6,1.6-6.5,2.6
								c0.1,1.1,0.6,3.8,3.3,4.9C624.5,238,626.1,239,626.1,239z"/>
							<path class="body-t3-main-color" d="M616.1,281.2c0,0-1.9,8.5-6,10.7c-4.1,2.2-5.6,1.7-5.6,1.7s-6.7-1.1-7.6-2c-0.9-0.9-1.4-1.7-0.6-2.4
								c0.8-0.7,4.7-2.7,4.7-2.7l7.3-5C608.3,281.4,613.4,278.5,616.1,281.2z"/>
							<path class="body-t3-main-color" d="M627.1,240.3c0,0,3.1-1.6,4.1,0c0.9,1.6,0.9,2.6,0.9,2.6s0.8,2.1,0,4.4s-3.4,2.2-3.4,2.2
								s-3,0.4-3.1-1.8C625.6,245.6,625.4,241.6,627.1,240.3z"/>
							<path class="body-t3-main-color" d="M640.2,234.3c0,0-3.3,10.4-6,11.4c0,0,1.6,4.2,7.3,5.9c5.7,1.7,5.8-2.1,5.8-2.1l-2.8-14.3
								C644.5,235.1,641.4,236.7,640.2,234.3z"/>
						</g>
					</g>
				</g>
			</g>
		</g>
	</g>
</g>
<path id="тень_задняя_лапа" class="body-shadow-color" d="M575.2,230.4l-54.3,12.2c0,0-17.6-0.7-16.8,14.2
	c-3.7,7.5-7.3,15.1-11,22.6c2.1,0.5,4.2,1,6.3,1.5c2.6,0.6,5.2,1.1,7.7,1.6c2.9-7.7,5.8-15.4,8.7-23.1c-0.2-1.6-0.2-4.5,1.4-7.4
	c2.6-4.7,8.6-7.2,15-6.4l54.3-12.2c0.4-0.1,0.8-0.1,1.1-0.2C584.3,230.4,579.9,229.3,575.2,230.4z"/>
<path id="передняя_лапа" class="body-t3-main-color" d="M445.9,245c1.2-0.5,2.3-1.3,3.4-2.2c12.9-10.8,20.2-44.7,19.1-48.7
	c-0.9-3.3-6.6-10.8-17.2-16.9c-3.7-2.1-7.9-4-12.7-5.5c-18.7-5.7-22.9-4.3-40.4,0.5c-2.2,0.6-3.9,1.5-5.3,2.5
	c-7.6,5.8-4.4,17.3-2.6,22.1c1.6,1.5,4.4,4.3,9.2,9.2c4.6,4.8,10.7,6.5,16.8,6.7c3.3,0.1,6.6-0.4,9.8-1.1c-1.5,1.5-3,3.2-4.5,5
	c-15.3,18.7-29,49.4-29,49.4s-3.2,4.6-7,6.8c-2.2,1.3-3.2,2-4.8,3c-6.3,3.8-9.9,9.3-11.1,11.3c-3.4,5.6-4.3,11.1-4.6,14
	c-0.2,1.7-1.6,17,6.4,21c2.2,1.1,4.9,1.5,6.3,0.6c0.9-0.6,1.2-3.4,1.7-7c0.5-3.9,0.9-6.1,1.2-6.1c0.1,0,0.4,0.3,1.2,9.6
	c0.2,1.7,0.3,3.1,0.3,4.1c2.4,1.5,4.1,1.6,5.2,1.4c6.8-1.1,12.8-15.3,12.8-28.2c0-6.7-1.1-10.4,2.9-13.5c1.2-0.9,15.9-11,22.3-16.6
	c7-6.1,13.4-13,17.1-17.2C444.6,246.6,445.9,245,445.9,245z"/>
<path id="тень_под_задней_лапой" class="body-shadow-color" d="M599.4,288.8c-4.3-4.2-7.7-7.7-9.9-10c-13.9,0.8-20-0.3-22.8-1.7
	c-0.2-0.1-2.4-1.1-5.3-2.4c-2.7-1.2-4.3-1.9-6.3-2.6c-2.2-0.7-5.1-1.5-6.7-1.7c-9.8-1.1-19.9,15-21.2,17c0.1,0,0.3,0,0.4,0
	c0,0,0.1,0,0.1,0c0.4,0,0.8,0,1.1,0.1c0.6,0.1,1.3,0.1,1.9,0.3c0.3,0.1,0.6,0.2,0.9,0.3l77.8,11.7
	C610,298.9,608.1,297.4,599.4,288.8z"/>
<g id="полутень_задняя_лапа">
	<path class="back-leg-color4" d="M608.6,239c-7-7.4-17-7.4-19.5-7.4c0.7,0.5-53.5,14.6-53.5,14.6s-18.3-0.7-17.5,14.9c0,0,8.5,26.3,9.5,26.5
		c0,0,0.1,0,0.1,0c0.4,0,0.8,0,1.2,0.1c0.6,0.1,1.2,0.1,1.9,0.3c0.3,0.1,0.6,0.2,0.9,0.3l3.1-5.4c5-4.6,9.5-6,12.3-6.6
		c12.3-2.2,19.7,7.8,38.3,9.9c3.5,0.4,8.5,0.6,13.5-1.8c3.4-1.6,5.6-3.9,6.7-5c0,0,3.3-3.3,5.4-7.8C614,265.7,618.5,249.4,608.6,239
		z"/>
</g>
<path id="задняя_лапа" class="body-t3-main-color" d="M603.1,237.8c-6.8-7.1-16.4-7.2-18.9-7.1c0.7,0.5-51.6,13.8-51.6,13.8
	s-17.6-0.7-16.8,14.2c-6.2,13.3-9.9,25.5-16.1,38.8c-2.4-0.5-14.1,3.8-16,7.3c2.1,0.3,4.2,0.7,6.3,1c2,0.3,4,0.7,5.9,1
	c2,4,2.4,7.3,2.4,9.3c0,6-3.1,11.9-5.6,16.5c-2.2,4.2-3.1,5-2.7,6.4c1.1,4,10.2,6.5,16.7,3.6c1.7-0.8,4.6-2.5,7.9-8.5
	c5.3-9.7,5.9-19.8,5.4-27c-0.3-1.7-1.1-6.1-1.3-6.7l13.3-20.9c4.8-4.4,9.1-5.8,11.9-6.3c11.8-2.1,19.1,7.5,37.1,9.6
	c3.4,0.4,8.2,0.6,13-1.7c3.2-1.6,5.4-3.7,6.5-4.8c0,0,3.2-3.2,5.2-7.5C608.4,263.3,612.6,247.7,603.1,237.8z"/>
<path id="тень_под_передней_лапой" class="body-t3-backspikes1-color" d="M416.2,212.5c-6.1-0.1-12.2-1.9-16.8-6.7
	c-4.7-4.9-7.6-7.7-9.2-9.2c-1.8-4.8-5-16.3,2.6-22.1c-0.8,0.2-1.5,0.4-2.3,0.6c-14.7,3.7-10.3,19.1-8,24.9c1.7,1.5,4.7,4.4,9.7,9.4
	c4.9,4.9,11.3,6.8,17.7,6.9c3.5,0.1,7-0.3,10.3-1c0,0-0.1,0.1-0.1,0.1c-2.3,1.8-3.9,3.6-6,6.1c-2.5,2.9-5.8,7.1-9.5,12.7l3.5,2.9
	c3-5,6.4-10.4,10.4-15.9c2.6-3.6,5.2-6.9,7.7-9.9C422.9,212.2,419.6,212.6,416.2,212.5z"/>
<path id="полутень_передняя_лапа" class="body-t3-main-color" d="M473.9,195.3c-0.9-3.3-6.6-10.8-17.2-16.9
	c-3.7-2.1-7.9-4-12.7-5.5c-18.7-5.7-22.9-4.3-40.4,0.5c-2.2,0.6-3.9,1.5-5.3,2.5c-7.6,5.8-4.4,17.3-2.6,22.1
	c1.6,1.5,4.4,4.3,9.2,9.2c4.6,4.8,10.7,6.5,16.8,6.7c3.3,0.1,6.6-0.4,9.8-1.1c-1.5,1.5-3,3.2-4.5,5c-15.3,18.7,2.4,34.9,5.6,36.3
	c0.7,0,2.9,2.2,3.6,2.5c1,0.4,1.7,1.1,2.6,1.6c0.3,0.2,0.7,0.4,1,0.6c0,0,0.1,0.1,0.1,0.1c3.2-3.3,5.9-6.3,7.9-8.6
	c2.2-2.5,3.5-4.1,3.5-4.1c1.2-0.5,2.3-1.3,3.4-2.2C467.7,233.3,475,199.4,473.9,195.3z"/>

<path id="шея" class="body-t3-skin-color" d="M408.3,220.4l-16.1-10.9l-6.3-5.3c0,0-0.8,0.1-0.8,0.1c0,0-1.6,0.1-4.4-0.1
	c-2.8-0.2-10.7-1.5-10.7-1.5s-1.6,2.9,1.4,4.9c0,0,0.8,1.6,1.4,4c0.6,2.4-4.7-1-4.7-1l-8.9-0.7c0,0-2.3-0.7-4.1-0.9
	c-1.1-0.1-2.8-2.4-2.8-2.4s-1.2,1.9-3.6,0.9c-3-1.2-5.5-0.9-5.5-0.9l-16,0.3c0,0-2.1-0.8-4.4-0.3c-2.3,0.5-14.5-4.6-16.6-1.9
	c0,0-1.2,1.2-2.6,2c9.2,1.4,36.8,8,42.7,9.8c1.1,0.3,19.8,6.2,19.8,6.2l5.7,2.4l10.8,4v-3.8l9.5,7.3l1.1-5.2l11.4,10l-0.1-3.1
	L408.3,220.4z"/>
<g id="задняя_задняя_лапа_пальцы">
	<path class="back-fingers-color" d="M580,309.2c-0.1,0.5-0.5,2.6-3,3.4c-2.2,0.7-5.5,1.2-6.4,1.1c-3-0.3-4.7-3-4.9-3.4c-0.8-1.3-2.4-2.6-1.3-3.8
		c0.9-1,3.3-1.8,5.4-1.2C574,306.7,580.4,307.6,580,309.2z"/>
</g>
<g id="хребет">
	<g>
		<polygon class="body-t3-backspikes-shadow-color" points="377.1,116.9 383.7,106.9 396,106.9 388.9,116.9 		"/>
		<path class="body-t3-backspikes1-color" d="M391.4,100.2c0,0-11.2,11-14.4,16.8h11.8C388.9,116.9,388,103.2,391.4,100.2z"/>
		<path class="body-t3-backspikes2-color" d="M391.4,100.2c0,0-1.1,4.3,4.6,6.8l-7.2,10c-0.3-2.5-0.3-4.6-0.3-6.1c0.1-5.3,1-7.5,1.3-8.1
			C390.4,101.6,391,100.7,391.4,100.2z"/>
		<path class="body-t3-main-color" d="M391.4,100.2l-7.8,6.8l-6.6,10C377.1,116.9,387.4,104.7,391.4,100.2z"/>
	</g>
	<g>
		<polygon class="body-t3-backspikes-shadow-color" points="364.3,125.2 370.5,115.4 382.1,115.4 375.4,125.2 		"/>
		<path class="body-t3-backspikes1-color" d="M377.8,108.8c0,0-10.6,10.8-13.5,16.4h11.1C375.4,125.2,374.6,111.8,377.8,108.8z"/>
		<path class="body-t3-backspikes2-color" d="M377.8,108.8c0,0-1.1,4.2,4.3,6.6l-6.8,9.8c-0.3-2.4-0.3-4.5-0.3-6c0.1-5.2,1-7.3,1.2-7.9
			C376.8,110.1,377.4,109.3,377.8,108.8z"/>
		<path class="body-t3-main-color" d="M377.8,108.8l-7.3,6.6l-6.2,9.8C364.3,125.2,374,113.2,377.8,108.8z"/>
	</g>
	<g>
		<polygon class="body-t3-backspikes-shadow-color" points="409.8,97.8 414.9,89.4 425,89 419.5,97.4 		"/>
		<path class="body-t3-backspikes1-color" d="M421,83.6c0,0-8.8,9.4-11.2,14.2l9.7-0.4C419.5,97.4,418.3,86.2,421,83.6z"/>
		<path class="body-t3-backspikes2-color" d="M421,83.6c0,0-0.8,3.5,4,5.4l-5.6,8.4c-0.3-2-0.4-3.8-0.5-5c-0.1-4.4,0.6-6.2,0.8-6.6
			C420.2,84.8,420.7,84,421,83.6z"/>
		<path class="body-t3-main-color" d="M421,83.6l-6.1,5.8l-5.1,8.4C409.8,97.8,417.9,87.4,421,83.6z"/>
	</g>
	<g>
		<polygon class="body-t3-backspikes-shadow-color" points="421.1,95 426.1,87.1 435.7,86.8 430.3,94.8 		"/>
		<path class="body-t3-backspikes1-color" d="M432,81.6c0,0-8.5,8.8-10.9,13.3l9.2-0.2C430.3,94.8,429.4,84.1,432,81.6z"/>
		<path class="body-t3-backspikes2-color" d="M432,81.6c0,0-0.8,3.3,3.7,5.2l-5.4,7.9c-0.3-1.9-0.4-3.6-0.4-4.8c0-4.2,0.7-5.9,0.9-6.3
			C431.2,82.8,431.7,82.1,432,81.6z"/>
		<path class="body-t3-main-color" d="M432,81.6l-5.9,5.4l-5,7.9C421.1,95,428.9,85.2,432,81.6z"/>
	</g>
	<g>
		<polygon class="body-t3-backspikes-shadow-color" points="429.9,94.8 436.6,84.8 448.9,84.8 441.7,94.8 		"/>
		<path class="body-t3-backspikes1-color" d="M444.3,78c0,0-11.2,11-14.4,16.8h11.8C441.7,94.8,440.9,81.1,444.3,78z"/>
		<path class="body-t3-backspikes2-color" d="M444.3,78c0,0-1.1,4.3,4.6,6.8l-7.2,10c-0.3-2.5-0.3-4.6-0.3-6.1c0.1-5.3,1-7.5,1.3-8.1
			C443.3,79.4,443.9,78.6,444.3,78z"/>
		<path class="body-t3-main-color" d="M444.3,78l-7.8,6.8l-6.6,10C429.9,94.8,440.3,82.5,444.3,78z"/>
	</g>
	<g>
		<polygon class="body-t3-backspikes-shadow-color" points="443.2,93.5 449.1,84.7 460,84.7 453.6,93.5 		"/>
		<path class="body-t3-backspikes1-color" d="M455.9,78.7c0,0-9.9,9.7-12.7,14.8h10.4C453.6,93.5,452.9,81.4,455.9,78.7z"/>
		<path class="body-t3-backspikes2-color" d="M455.9,78.7c0,0-1,3.8,4.1,6l-6.3,8.8c-0.3-2.2-0.3-4.1-0.3-5.4c0.1-4.7,0.9-6.6,1.2-7.1
			C455,80,455.5,79.2,455.9,78.7z"/>
		<path class="body-t3-main-color" d="M455.9,78.7l-6.9,6l-5.8,8.8C443.2,93.5,452.4,82.7,455.9,78.7z"/>
	</g>
	<g>
		<polygon class="body-t3-backspikes-shadow-color" points="394.3,106.2 400.9,96.2 413.3,96.2 406.1,106.2 		"/>
		<path class="body-t3-backspikes1-color" d="M408.7,89.4c0,0-11.2,11-14.4,16.8h11.8C406.1,106.2,405.2,92.5,408.7,89.4z"/>
		<path class="body-t3-backspikes2-color" d="M408.7,89.4c0,0-1.1,4.3,4.6,6.8l-7.2,10c-0.3-2.5-0.3-4.6-0.3-6.1c0.1-5.3,1-7.5,1.3-8.1
			C407.6,90.8,408.2,90,408.7,89.4z"/>
		<path class="body-t3-main-color" d="M408.7,89.4l-7.8,6.8l-6.6,10C394.3,106.2,404.7,93.9,408.7,89.4z"/>
	</g>
	<g>
		<polygon class="body-t3-backspikes-shadow-color" points="455.1,92.6 461.8,82.6 474.1,82.6 466.9,92.6 		"/>
		<path class="body-t3-backspikes1-color" d="M469.5,75.8c0,0-11.2,11-14.4,16.8h11.8C466.9,92.6,466.1,78.9,469.5,75.8z"/>
		<path class="body-t3-backspikes2-color" d="M469.5,75.8c0,0-1.1,4.3,4.6,6.8l-7.2,10c-0.3-2.5-0.3-4.6-0.3-6.1c0.1-5.3,1-7.5,1.3-8.1
			C468.5,77.2,469.1,76.3,469.5,75.8z"/>
		<path class="body-t3-main-color" d="M469.5,75.8l-7.8,6.8l-6.6,10C455.1,92.6,465.5,80.3,469.5,75.8z"/>
	</g>
	<g>
		<polygon class="body-t3-backspikes-shadow-color" points="467.5,92.6 474.1,82.6 486.5,82.6 479.3,92.6 		"/>
		<path class="body-t3-backspikes1-color" d="M481.9,75.8c0,0-11.2,11-14.4,16.8h11.8C479.3,92.6,478.4,78.9,481.9,75.8z"/>
		<path class="body-t3-backspikes2-color" d="M481.9,75.8c0,0-1.1,4.3,4.6,6.8l-7.2,10c-0.3-2.5-0.3-4.6-0.3-6.1c0.1-5.3,1-7.5,1.3-8.1
			C480.8,77.2,481.4,76.3,481.9,75.8z"/>
		<path class="body-t3-main-color" d="M481.9,75.8l-7.8,6.8l-6.6,10C467.5,92.6,477.9,80.3,481.9,75.8z"/>
	</g>
	<g>
		<polygon class="body-t3-backspikes-shadow-color" points="478.1,93 484.7,83.1 497.1,83.1 489.9,93 		"/>
		<path class="body-t3-backspikes1-color" d="M492.5,76.3c0,0-11.2,11-14.4,16.8h11.8C489.9,93,489,79.4,492.5,76.3z"/>
		<path class="body-t3-backspikes2-color" d="M492.5,76.3c0,0-1.1,4.3,4.6,6.8l-7.2,10c-0.3-2.5-0.3-4.6-0.3-6.1c0.1-5.3,1-7.5,1.3-8.1
			C491.4,77.7,492,76.8,492.5,76.3z"/>
		<path class="body-t3-main-color" d="M492.5,76.3l-7.8,6.8l-6.6,10C478.1,93,488.4,80.8,492.5,76.3z"/>
	</g>
	<g>
		<polygon class="body-t3-backspikes-shadow-color" points="488.8,95.4 495.4,85.4 507.8,85.4 500.6,95.4 		"/>
		<path class="body-t3-backspikes1-color" d="M503.2,78.7c0,0-11.2,11-14.4,16.8h11.8C500.6,95.4,499.7,81.7,503.2,78.7z"/>
		<path class="body-t3-backspikes2-color" d="M503.2,78.7c0,0-1.1,4.3,4.6,6.8l-7.2,10c-0.3-2.5-0.3-4.6-0.3-6.1c0.1-5.3,1-7.5,1.3-8.1
			C502.1,80.1,502.7,79.2,503.2,78.7z"/>
		<path class="body-t3-main-color" d="M503.2,78.7l-7.8,6.8l-6.6,10C488.8,95.4,499.1,83.2,503.2,78.7z"/>
	</g>
	<g>
		<polygon class="body-t3-backspikes-shadow-color" points="499.6,97.4 506.2,87.5 518.5,87.5 511.4,97.4 		"/>
		<path class="body-t3-backspikes1-color" d="M513.9,80.7c0,0-11.2,11-14.4,16.8h11.8C511.4,97.4,510.5,83.8,513.9,80.7z"/>
		<path class="body-t3-backspikes2-color" d="M513.9,80.7c0,0-1.1,4.3,4.6,6.8l-7.2,10c-0.3-2.5-0.3-4.6-0.3-6.1c0.1-5.3,1-7.5,1.3-8.1
			C512.9,82.1,513.5,81.2,513.9,80.7z"/>
		<path class="body-t3-main-color" d="M513.9,80.7l-7.8,6.8l-6.6,10C499.6,97.4,509.9,85.2,513.9,80.7z"/>
	</g>
	<g>
		<polygon class="body-t3-backspikes-shadow-color" points="508.8,100.4 515.5,90.4 527.8,90.4 520.6,100.4 		"/>
		<path class="body-t3-backspikes1-color" d="M523.2,83.6c0,0-11.2,11-14.4,16.8h11.8C520.6,100.4,519.8,86.7,523.2,83.6z"/>
		<path class="body-t3-backspikes2-color" d="M523.2,83.6c0,0-1.1,4.3,4.6,6.8l-7.2,10c-0.3-2.5-0.3-4.6-0.3-6.1c0.1-5.3,1-7.5,1.3-8.1
			C522.2,85,522.8,84.2,523.2,83.6z"/>
		<path class="body-t3-main-color" d="M523.2,83.6l-7.8,6.8l-6.6,10C508.8,100.4,519.2,88.1,523.2,83.6z"/>
	</g>
	<g>
		<polygon class="body-t3-backspikes-shadow-color" points="518.1,103.8 524.7,93.8 537.1,93.8 529.9,103.8 		"/>
		<path class="body-t3-backspikes1-color" d="M532.5,87c0,0-11.2,11-14.4,16.8h11.8C529.9,103.8,529,90.1,532.5,87z"/>
		<path class="body-t3-backspikes2-color" d="M532.5,87c0,0-1.1,4.3,4.6,6.8l-7.2,10c-0.3-2.5-0.3-4.6-0.3-6.1c0.1-5.3,1-7.5,1.3-8.1
			C531.4,88.4,532.1,87.6,532.5,87z"/>
		<path class="body-t3-main-color" d="M532.5,87l-7.8,6.8l-6.6,10C518.1,103.8,528.5,91.5,532.5,87z"/>
	</g>
	<g>
		<polygon class="body-t3-backspikes-shadow-color" points="527.6,107.2 534.2,97.2 546.6,97.2 539.4,107.2 		"/>
		<path class="body-t3-backspikes1-color" d="M542,90.4c0,0-11.2,11-14.4,16.8h11.8C539.4,107.2,538.5,93.5,542,90.4z"/>
		<path class="body-t3-backspikes2-color" d="M542,90.4c0,0-1.2,4.3,4.6,6.8l-7.2,10c-0.3-2.5-0.3-4.6-0.3-6.1c0.1-5.3,1-7.5,1.3-8.1
			C540.9,91.8,541.5,91,542,90.4z"/>
		<path class="body-t3-main-color" d="M542,90.4l-7.8,6.8l-6.6,10C527.6,107.2,538,94.9,542,90.4z"/>
	</g>
	<g>
		<polygon class="body-t3-backspikes-shadow-color" points="536.8,112.2 543.4,102.2 555.8,102.2 548.6,112.2 		"/>
		<path class="body-t3-backspikes1-color" d="M551.2,95.4c0,0-11.2,11-14.4,16.8h11.8C548.6,112.2,547.8,98.5,551.2,95.4z"/>
		<path class="body-t3-backspikes2-color" d="M551.2,95.4c0,0-1.1,4.3,4.6,6.8l-7.2,10c-0.3-2.5-0.3-4.6-0.3-6.1c0.1-5.3,1-7.5,1.3-8.1
			C550.2,96.8,550.8,96,551.2,95.4z"/>
		<path class="body-t3-main-color" d="M551.2,95.4l-7.8,6.8l-6.6,10C536.8,112.2,547.2,99.9,551.2,95.4z"/>
	</g>
	<g>
		<polygon class="body-t3-backspikes-shadow-color" points="544.6,117.2 551.2,107.2 563.6,107.2 556.4,117.2 		"/>
		<path class="body-t3-backspikes1-color" d="M559,100.4c0,0-11.2,11-14.4,16.8h11.8C556.4,117.2,555.5,103.5,559,100.4z"/>
		<path class="body-t3-backspikes2-color" d="M559,100.4c0,0-1.1,4.3,4.6,6.8l-7.2,10c-0.3-2.5-0.3-4.6-0.3-6.1c0.1-5.3,1-7.5,1.3-8.1
			C557.9,101.8,558.5,100.9,559,100.4z"/>
		<path class="body-t3-main-color" d="M559,100.4l-7.8,6.8l-6.6,10C544.6,117.2,554.9,104.9,559,100.4z"/>
	</g>
	<g>
		<polygon class="body-t3-backspikes-shadow-color" points="553.2,121.3 558.8,112.9 569.3,112.9 563.2,121.3 		"/>
		<path class="body-t3-backspikes1-color" d="M565.4,107.1c0,0-9.5,9.3-12.2,14.2h10C563.2,121.3,562.5,109.7,565.4,107.1z"/>
		<path class="body-t3-backspikes2-color" d="M565.4,107.1c0,0-1,3.6,3.9,5.7l-6.1,8.5c-0.3-2.1-0.3-3.9-0.3-5.2c0.1-4.5,0.9-6.3,1.1-6.8
			C564.5,108.3,565,107.6,565.4,107.1z"/>
		<path class="body-t3-main-color" d="M565.4,107.1l-6.6,5.7l-5.6,8.5C553.2,121.3,562,111,565.4,107.1z"/>
	</g>
	<g>
		<polygon class="body-t3-backspikes-shadow-color" points="558.2,128.7 564.8,118.7 577.2,118.7 570,128.7 		"/>
		<path class="body-t3-backspikes1-color" d="M572.6,111.9c0,0-11.2,11-14.4,16.8H570C570,128.7,569.2,115,572.6,111.9z"/>
		<path class="body-t3-backspikes2-color" d="M572.6,111.9c0,0-1.2,4.3,4.6,6.8l-7.2,10c-0.3-2.5-0.3-4.6-0.3-6.1c0.1-5.3,1-7.5,1.3-8.1
			C571.6,113.3,572.2,112.5,572.6,111.9z"/>
		<path class="body-t3-main-color" d="M572.6,111.9l-7.8,6.8l-6.6,10C558.2,128.7,568.6,116.4,572.6,111.9z"/>
	</g>
	<g>
		<g>
			<polygon class="body-t3-backspikes-shadow-color" points="567.7,134.2 574.3,124.3 586.7,124.3 579.5,134.2 			"/>
			<path class="body-t3-backspikes1-color" d="M582.1,117.5c0,0-11.2,11-14.4,16.8h11.8C579.5,134.2,578.6,120.6,582.1,117.5z"/>
			<path class="body-t3-backspikes2-color" d="M582.1,117.5c0,0-1.1,4.3,4.6,6.8l-7.2,10c-0.3-2.5-0.3-4.6-0.3-6.1c0.1-5.3,1-7.5,1.3-8.1
				C581,118.9,581.7,118,582.1,117.5z"/>
			<path class="body-t3-main-color" d="M582.1,117.5l-7.8,6.8l-6.6,10C567.7,134.2,578.1,122,582.1,117.5z"/>
		</g>
		<g>
			<polygon class="body-t3-backspikes-shadow-color" points="573.5,140 580.1,130 592.4,130 585.2,140 			"/>
			<path class="body-t3-backspikes1-color" d="M587.8,123.3c0,0-11.2,11-14.4,16.8h11.8C585.2,140,584.4,126.3,587.8,123.3z"/>
			<path class="body-t3-backspikes2-color" d="M587.8,123.3c0,0-1.2,4.3,4.6,6.8l-7.2,10c-0.3-2.5-0.3-4.6-0.3-6.1c0.1-5.3,1-7.5,1.3-8.1
				C586.8,124.7,587.4,123.8,587.8,123.3z"/>
			<path class="body-t3-main-color" d="M587.8,123.3l-7.8,6.8l-6.6,10C573.5,140,583.8,127.8,587.8,123.3z"/>
		</g>
		<g>
			<polygon class="body-t3-backspikes-shadow-color" points="579.2,145.5 585.8,135.5 598.2,135.5 591,145.5 			"/>
			<path class="body-t3-backspikes1-color" d="M593.6,128.8c0,0-11.2,11-14.4,16.8H591C591,145.5,590.1,131.8,593.6,128.8z"/>
			<path class="body-t3-backspikes2-color" d="M593.6,128.8c0,0-1.1,4.3,4.6,6.8l-7.2,10c-0.3-2.5-0.3-4.6-0.3-6.1c0.1-5.3,1-7.5,1.3-8.1
				C592.5,130.2,593.1,129.3,593.6,128.8z"/>
			<path class="body-t3-main-color" d="M593.6,128.8l-7.8,6.8l-6.6,10C579.2,145.5,589.5,133.3,593.6,128.8z"/>
		</g>
		<g>
			<polygon class="body-t3-backspikes-shadow-color" points="586.4,149.2 592.8,140.1 604.2,140.4 597.3,149.5 			"/>
			<path class="body-t3-backspikes1-color" d="M600.1,134c0,0-10.6,9.9-13.7,15.2l10.9,0.3C597.3,149.5,596.9,136.8,600.1,134z"/>
			<path class="body-t3-backspikes2-color" d="M600.1,134c0,0-1.2,3.9,4.1,6.4l-6.9,9.1c-0.2-2.3-0.2-4.3-0.2-5.7c0.2-4.9,1.1-6.9,1.4-7.4
				C599.1,135.3,599.7,134.5,600.1,134z"/>
			<path class="body-t3-main-color" d="M600.1,134l-7.3,6.1l-6.4,9.1C586.4,149.2,596.3,138.1,600.1,134z"/>
		</g>
		<g>
			<polygon class="body-t3-backspikes-shadow-color" points="591.9,156.1 598,146.9 609.5,146.9 602.8,156.1 			"/>
			<path class="body-t3-backspikes1-color" d="M605.2,140.6c0,0-10.4,10.2-13.3,15.5h10.9C602.8,156.1,602,143.4,605.2,140.6z"/>
			<path class="body-t3-backspikes2-color" d="M605.2,140.6c0,0-1.1,3.9,4.3,6.3l-6.7,9.2c-0.3-2.3-0.3-4.3-0.3-5.7c0.1-4.9,1-6.9,1.2-7.5
				C604.2,141.9,604.8,141.1,605.2,140.6z"/>
			<path class="body-t3-main-color" d="M605.2,140.6l-7.2,6.3l-6.1,9.2C591.9,156.1,601.5,144.8,605.2,140.6z"/>
		</g>
		<g>
			<polygon class="body-t3-backspikes-shadow-color" points="597.2,162.4 603.3,153.1 614.8,153.1 608.1,162.4 			"/>
			<path class="body-t3-backspikes1-color" d="M610.5,146.9c0,0-10.4,10.2-13.3,15.5h10.9C608.1,162.4,607.3,149.7,610.5,146.9z"/>
			<path class="body-t3-backspikes2-color" d="M610.5,146.9c0,0-1.1,3.9,4.3,6.3l-6.7,9.2c-0.3-2.3-0.3-4.3-0.3-5.7c0.1-4.9,1-6.9,1.2-7.5
				C609.5,148.2,610.1,147.4,610.5,146.9z"/>
			<path class="body-t3-main-color" d="M610.5,146.9l-7.2,6.3l-6.1,9.2C597.2,162.4,606.8,151,610.5,146.9z"/>
		</g>
		<g>
			<polygon class="body-t3-backspikes-shadow-color" points="601.7,168.7 607.9,159.4 619.3,159.4 612.6,168.7 			"/>
			<path class="body-t3-backspikes1-color" d="M615,153.1c0,0-10.4,10.2-13.3,15.5h10.9C612.6,168.7,611.8,156,615,153.1z"/>
			<path class="body-t3-backspikes2-color" d="M615,153.1c0,0-1.1,3.9,4.3,6.3l-6.7,9.2c-0.3-2.3-0.3-4.3-0.3-5.7c0.1-4.9,1-6.9,1.2-7.5
				C614.1,154.4,614.6,153.6,615,153.1z"/>
			<path class="body-t3-main-color" d="M615,153.1l-7.2,6.3l-6.1,9.2C601.7,168.7,611.3,157.3,615,153.1z"/>
		</g>
		<g>
			<polygon class="body-t3-backspikes-shadow-color" points="605.9,175.8 612,166.5 623.5,166.5 616.8,175.8 			"/>
			<path class="body-t3-backspikes1-color" d="M619.2,160.3c0,0-10.4,10.2-13.3,15.5h10.9C616.8,175.8,616,163.1,619.2,160.3z"/>
			<path class="body-t3-backspikes2-color" d="M619.2,160.3c0,0-1.1,3.9,4.3,6.3l-6.7,9.2c-0.3-2.3-0.3-4.3-0.3-5.7c0.1-4.9,1-6.9,1.2-7.5
				C618.2,161.6,618.8,160.8,619.2,160.3z"/>
			<path class="body-t3-main-color" d="M619.2,160.3l-7.2,6.3l-6.1,9.2C605.9,175.8,615.5,164.4,619.2,160.3z"/>
		</g>
		<g>
			<polygon class="body-t3-backspikes-shadow-color" points="609.9,183.5 616,174.3 627.4,174.3 620.8,183.5 			"/>
			<path class="body-t3-backspikes1-color" d="M623.2,168c0,0-10.4,10.2-13.3,15.5h10.9C620.8,183.5,620,170.9,623.2,168z"/>
			<path class="body-t3-backspikes2-color" d="M623.2,168c0,0-1.1,3.9,4.3,6.3l-6.7,9.2c-0.3-2.3-0.3-4.3-0.3-5.7c0.1-4.9,1-6.9,1.2-7.5
				C622.2,169.3,622.8,168.5,623.2,168z"/>
			<path class="body-t3-main-color" d="M623.2,168l-7.2,6.3l-6.1,9.2C609.9,183.5,619.4,172.2,623.2,168z"/>
		</g>
		<g>
			<polygon class="body-t3-backspikes-shadow-color" points="614.4,189.8 620.5,180.6 631.9,180.6 625.3,189.8 			"/>
			<path class="body-t3-backspikes1-color" d="M627.7,174.3c0,0-10.4,10.2-13.3,15.5h10.9C625.3,189.8,624.5,177.1,627.7,174.3z"/>
			<path class="body-t3-backspikes2-color" d="M627.7,174.3c0,0-1.1,3.9,4.3,6.3l-6.7,9.2c-0.3-2.3-0.3-4.3-0.3-5.7c0.1-4.9,1-6.9,1.2-7.5
				C626.7,175.6,627.3,174.8,627.7,174.3z"/>
			<path class="body-t3-main-color" d="M627.7,174.3l-7.2,6.3l-6.1,9.2C614.4,189.8,624,178.5,627.7,174.3z"/>
		</g>
		<g>
			<polygon class="body-t3-backspikes-shadow-color" points="617.9,197.6 624,188.3 635.4,188.3 628.8,197.6 			"/>
			<path class="body-t3-backspikes1-color" d="M631.2,182.1c0,0-10.4,10.2-13.3,15.5h10.9C628.8,197.6,628,184.9,631.2,182.1z"/>
			<path class="body-t3-backspikes2-color" d="M631.2,182.1c0,0-1.1,3.9,4.3,6.3l-6.7,9.2c-0.3-2.3-0.3-4.3-0.3-5.7c0.1-4.9,1-6.9,1.2-7.5
				C630.2,183.4,630.8,182.6,631.2,182.1z"/>
			<path class="body-t3-main-color" d="M631.2,182.1l-7.2,6.3l-6.1,9.2C617.9,197.6,627.4,186.2,631.2,182.1z"/>
		</g>
		<g>
			<polygon class="body-t3-backspikes-shadow-color" points="622.4,203.8 628.5,194.6 640,194.6 633.3,203.8 			"/>
			<path class="body-t3-backspikes1-color" d="M635.7,188.3c0,0-10.4,10.2-13.3,15.5h10.9C633.3,203.8,632.5,191.2,635.7,188.3z"/>
			<path class="body-t3-backspikes2-color" d="M635.7,188.3c0,0-1.1,3.9,4.3,6.3l-6.7,9.2c-0.3-2.3-0.3-4.3-0.3-5.7c0.1-4.9,1-6.9,1.2-7.5
				C634.7,189.6,635.3,188.8,635.7,188.3z"/>
			<path class="body-t3-main-color" d="M635.7,188.3l-7.2,6.3l-6.1,9.2C622.4,203.8,632,192.5,635.7,188.3z"/>
		</g>
		<g>
			<polygon class="body-t3-backspikes-shadow-color" points="626.6,210.1 632.8,200.9 644.2,200.9 637.6,210.1 			"/>
			<path class="body-t3-backspikes1-color" d="M640,194.6c0,0-10.4,10.2-13.3,15.5h10.9C637.6,210.1,636.8,197.4,640,194.6z"/>
			<path class="body-t3-backspikes2-color" d="M640,194.6c0,0-1.1,3.9,4.3,6.3l-6.7,9.2c-0.3-2.3-0.3-4.3-0.3-5.7c0.1-4.9,1-6.9,1.2-7.5
				C639,195.9,639.5,195.1,640,194.6z"/>
			<path class="body-t3-main-color" d="M640,194.6l-7.2,6.3l-6.1,9.2C626.6,210.1,636.2,198.8,640,194.6z"/>
		</g>
		<g>
			<polygon class="body-t3-backspikes-shadow-color" points="631.2,216.4 637.3,207.1 648.7,207.1 642.1,216.4 			"/>
			<path class="body-t3-backspikes1-color" d="M644.5,200.9c0,0-10.4,10.2-13.3,15.5h10.9C642.1,216.4,641.3,203.7,644.5,200.9z"/>
			<path class="body-t3-backspikes2-color" d="M644.5,200.9c0,0-1.1,3.9,4.3,6.3l-6.7,9.2c-0.3-2.3-0.3-4.3-0.3-5.7c0.1-4.9,1-6.9,1.2-7.5
				C643.5,202.2,644.1,201.4,644.5,200.9z"/>
			<path class="body-t3-main-color" d="M644.5,200.9l-7.2,6.3l-6.1,9.2C631.2,216.4,640.8,205,644.5,200.9z"/>
		</g>
		<g>
			<polygon class="body-t3-backspikes-shadow-color" points="633.2,220.9 640.7,212.7 652,214.4 644,222.5 			"/>
			<path class="body-t3-backspikes1-color" d="M648.7,207.6c0,0-11.8,8.5-15.5,13.3l10.8,1.6C644,222.5,645.1,209.9,648.7,207.6z"/>
			<path class="body-t3-backspikes2-color" d="M648.7,207.6c0,0-1.6,3.7,3.3,6.8l-8,8.1c0.1-2.3,0.3-4.3,0.6-5.7c0.8-4.9,2-6.7,2.3-7.2
				C647.6,208.7,648.3,208,648.7,207.6z"/>
			<path class="body-t3-main-color" d="M648.7,207.6l-8.1,5.1l-7.4,8.2C633.2,220.9,644.4,211.1,648.7,207.6z"/>
		</g>
		<g>
			<polygon class="body-t3-backspikes-shadow-color" points="637.5,225.9 645.4,218.2 656.6,220.6 648.1,228.2 			"/>
			<path class="body-t3-backspikes1-color" d="M653.8,213.6c0,0-12.3,7.8-16.3,12.3l10.7,2.3C648.1,228.2,650.1,215.7,653.8,213.6z"/>
			<path class="body-t3-backspikes2-color" d="M653.8,213.6c0,0-1.9,3.6,2.8,7l-8.5,7.6c0.2-2.3,0.6-4.2,0.9-5.6c1.1-4.8,2.4-6.6,2.8-7
				C652.5,214.6,653.3,214,653.8,213.6z"/>
			<path class="body-t3-main-color" d="M653.8,213.6l-8.4,4.6l-7.9,7.7C637.5,225.9,649.2,216.8,653.8,213.6z"/>
		</g>
		<g>
			<polygon class="body-t3-backspikes-shadow-color" points="641.3,233.1 649.1,225.2 660.3,227.4 652,235.2 			"/>
			<path class="body-t3-backspikes1-color" d="M657.3,220.4c0,0-12.2,8-16.1,12.6l10.7,2.1C652,235.2,653.6,222.6,657.3,220.4z"/>
			<path class="body-t3-backspikes2-color" d="M657.3,220.4c0,0-1.8,3.7,3,7l-8.3,7.8c0.2-2.3,0.5-4.2,0.8-5.6c1-4.8,2.3-6.6,2.6-7.1
				C656.1,221.5,656.8,220.8,657.3,220.4z"/>
			<path class="body-t3-main-color" d="M657.3,220.4l-8.3,4.8l-7.8,7.9C641.3,233.1,652.9,223.8,657.3,220.4z"/>
		</g>
		<g>
			<g>
				<polygon class="body-t3-backspikes-shadow-color" points="645.4,237.8 654.1,230.8 665,234.3 655.8,241.1 				"/>
				<path class="body-t3-backspikes1-color" d="M662.8,227c0,0-13,6.6-17.4,10.7l10.4,3.3C655.8,241.1,658.9,228.8,662.8,227z"/>
				<path class="body-t3-backspikes2-color" d="M662.8,227c0,0-2.2,3.4,2.2,7.3l-9.1,6.8c0.4-2.3,1-4.2,1.4-5.5c1.6-4.7,3-6.3,3.4-6.7
					C661.5,228,662.3,227.4,662.8,227z"/>
				<path class="body-t3-main-color" d="M662.8,227l-8.8,3.8l-8.6,7C645.4,237.8,658,229.9,662.8,227z"/>
			</g>
			<g>
				<polygon class="body-t3-backspikes-shadow-color" points="649.9,244.6 658.2,237.2 669.3,240.2 660.5,247.4 				"/>
				<path class="body-t3-backspikes1-color" d="M666.7,233c0,0-12.6,7.2-16.8,11.6l10.6,2.8C660.5,247.4,662.9,235,666.7,233z"/>
				<path class="body-t3-backspikes2-color" d="M666.7,233c0,0-2,3.5,2.5,7.1l-8.8,7.3c0.3-2.3,0.8-4.2,1.2-5.6c1.3-4.8,2.7-6.5,3.1-6.9
					C665.5,234,666.2,233.4,666.7,233z"/>
				<path class="body-t3-main-color" d="M666.7,233l-8.5,4.2l-8.3,7.4C649.9,244.6,662.1,236.1,666.7,233z"/>
			</g>
			<g>
				<polygon class="body-t3-backspikes-shadow-color" points="654.4,249.8 664.1,244.4 674.2,249.6 664.1,254.8 				"/>
				<path class="body-t3-backspikes1-color" d="M673.3,242.1c0,0-13.9,4.3-18.9,7.7l9.7,5C664.1,254.8,669.2,243.2,673.3,242.1z"/>
				<path class="body-t3-backspikes2-color" d="M673.3,242.1c0,0-2.8,3,0.9,7.5l-10.2,5.2c0.8-2.2,1.7-3.9,2.3-5.2c2.3-4.4,4-5.7,4.5-6.1
					C671.9,242.8,672.7,242.4,673.3,242.1z"/>
				<path class="body-t3-main-color" d="M673.3,242.1l-9.3,2.3l-9.7,5.4C654.4,249.8,668.1,244.1,673.3,242.1z"/>
			</g>
			<g>
				<polygon class="body-t3-backspikes-shadow-color" points="660.3,257.2 670.1,252 680.2,257.6 669.9,262.4 				"/>
				<path class="body-t3-backspikes1-color" d="M679.5,250c0,0-14,3.9-19.2,7.2l9.6,5.3C669.9,262.4,675.3,251,679.5,250z"/>
				<path class="body-t3-backspikes2-color" d="M679.5,250c0,0-2.8,2.9,0.7,7.5l-10.3,4.9c0.9-2.2,1.8-3.9,2.5-5.1c2.5-4.3,4.2-5.6,4.7-5.9
					C678,250.7,678.9,250.3,679.5,250z"/>
				<path class="body-t3-main-color" d="M679.5,250l-9.3,2l-9.8,5.1C660.3,257.2,674.2,251.9,679.5,250z"/>
			</g>
			<g>
				<polygon class="body-t3-backspikes-shadow-color" points="666.7,265.2 676.8,260.6 686.5,266.7 676,271 				"/>
				<path class="body-t3-backspikes1-color" d="M686.3,259.2c0,0-14.2,3.1-19.5,6.1l9.2,5.8C676,271,682,259.9,686.3,259.2z"/>
				<path class="body-t3-backspikes2-color" d="M686.3,259.2c0,0-3,2.8,0.3,7.6L676,271c1-2.1,2-3.8,2.8-5c2.7-4.1,4.5-5.4,5-5.7
					C684.7,259.7,685.6,259.4,686.3,259.2z"/>
				<path class="body-t3-main-color" d="M686.3,259.2l-9.4,1.5l-10.1,4.6C666.7,265.2,680.9,260.7,686.3,259.2z"/>
			</g>
			<g>
				<polygon class="body-t3-backspikes-shadow-color" points="673.3,271.3 682.2,268.5 689.6,274.6 680.4,277 				"/>
				<path class="body-t3-backspikes1-color" d="M690.1,268.3c0,0-12.1,1.1-16.8,3l7,5.8C680.4,277,686.6,268.4,690.1,268.3z"/>
				<path class="body-t3-backspikes2-color" d="M690.1,268.3c0,0-2.8,2-0.6,6.3l-9.2,2.5c1-1.6,2-2.9,2.8-3.8c2.7-3.2,4.3-4,4.7-4.2
					C688.8,268.6,689.6,268.4,690.1,268.3z"/>
				<path class="body-t3-main-color" d="M690.1,268.3l-8,0.3l-8.8,2.7C673.3,271.3,685.5,269,690.1,268.3z"/>
			</g>
			<g>
				<polygon class="body-t3-backspikes-shadow-color" points="681.2,276.9 689.4,274.3 696.2,279.9 687.7,282.2 				"/>
				<path class="body-t3-backspikes1-color" d="M696.8,274.1c0,0-11.2,1.1-15.6,2.8l6.5,5.3C687.7,282.2,693.5,274.2,696.8,274.1z"/>
				<path class="body-t3-backspikes2-color" d="M696.8,274.1c0,0-2.6,1.9-0.5,5.9l-8.5,2.3c1-1.5,1.9-2.7,2.6-3.6c2.5-2.9,4-3.7,4.4-3.9
					C695.5,274.4,696.3,274.2,696.8,274.1z"/>
				<path class="body-t3-main-color" d="M696.8,274.1l-7.4,0.3l-8.2,2.6C681.2,276.9,692.5,274.7,696.8,274.1z"/>
			</g>
			<g>
				<polygon class="body-t3-backspikes-shadow-color" points="686.5,283 694.7,280.4 701.6,286 693.1,288.3 				"/>
				<path class="body-t3-backspikes1-color" d="M702.1,280.2c0,0-11.2,1.1-15.6,2.8l6.5,5.3C693.1,288.3,698.8,280.3,702.1,280.2z"/>
				<path class="body-t3-backspikes2-color" d="M702.1,280.2c0,0-2.6,1.9-0.5,5.9l-8.5,2.3c1-1.5,1.9-2.7,2.6-3.6c2.5-2.9,4-3.7,4.4-3.9
					C700.9,280.5,701.6,280.3,702.1,280.2z"/>
				<path class="body-t3-main-color" d="M702.1,280.2l-7.4,0.3l-8.2,2.6C686.5,283,697.8,280.9,702.1,280.2z"/>
			</g>
			<g>
				<polygon class="body-t3-backspikes-shadow-color" points="691.3,289.3 699.2,286.9 705.8,292.2 697.6,294.5 				"/>
				<path class="body-t3-backspikes1-color" d="M706.3,286.6c0,0-10.8,1-15,2.7l6.3,5.1C697.6,294.5,703.1,286.8,706.3,286.6z"/>
				<path class="body-t3-backspikes2-color" d="M706.3,286.6c0,0-2.5,1.8-0.5,5.6l-8.2,2.2c0.9-1.5,1.8-2.6,2.5-3.4c2.4-2.8,3.8-3.5,4.2-3.7
					C705.1,286.9,705.8,286.7,706.3,286.6z"/>
				<path class="body-t3-main-color" d="M706.3,286.6l-7.1,0.2l-7.9,2.5C691.3,289.3,702.2,287.3,706.3,286.6z"/>
			</g>
			<g>
				<polygon class="body-t3-backspikes-shadow-color" points="695.1,293.9 702.5,291.6 708.7,296.6 701,298.7 				"/>
				<path class="body-t3-backspikes1-color" d="M709.2,291.3c0,0-10.1,1-14.1,2.6l5.9,4.8C701,298.7,706.2,291.5,709.2,291.3z"/>
				<path class="body-t3-backspikes2-color" d="M709.2,291.3c0,0-2.3,1.7-0.5,5.3l-7.7,2.1c0.9-1.4,1.7-2.5,2.4-3.2c2.2-2.7,3.6-3.3,4-3.5
					C708.1,291.6,708.7,291.4,709.2,291.3z"/>
				<path class="body-t3-main-color" d="M709.2,291.3l-6.7,0.2l-7.4,2.3C695.1,293.9,705.3,292,709.2,291.3z"/>
			</g>
			<g>
				<polygon class="body-t3-backspikes-shadow-color" points="699.2,299.9 706.1,297.7 711.9,302.4 704.7,304.3 				"/>
				<path class="body-t3-backspikes1-color" d="M712.3,297.5c0,0-9.4,0.9-13.1,2.4l5.5,4.5C704.7,304.3,709.5,297.6,712.3,297.5z"/>
				<path class="body-t3-backspikes2-color" d="M712.3,297.5c0,0-2.2,1.6-0.5,4.9l-7.2,1.9c0.8-1.3,1.6-2.3,2.2-3c2.1-2.5,3.3-3.1,3.7-3.3
					C711.3,297.7,711.9,297.6,712.3,297.5z"/>
				<path class="body-t3-main-color" d="M712.3,297.5l-6.2,0.2l-6.9,2.2C699.2,299.9,708.7,298.1,712.3,297.5z"/>
			</g>
			<g>
				<polygon class="body-t3-backspikes-shadow-color" points="702.6,305.5 709.5,303.3 715.3,308 708.1,310 				"/>
				<path class="body-t3-backspikes1-color" d="M715.7,303.1c0,0-9.4,0.9-13.1,2.4l5.5,4.5C708.1,310,712.9,303.2,715.7,303.1z"/>
				<path class="body-t3-backspikes2-color" d="M715.7,303.1c0,0-2.2,1.6-0.5,4.9l-7.2,1.9c0.8-1.3,1.6-2.3,2.2-3c2.1-2.5,3.3-3.1,3.7-3.3
					C714.7,303.4,715.3,303.2,715.7,303.1z"/>
				<path class="body-t3-main-color" d="M715.7,303.1l-6.2,0.2l-6.9,2.2C702.6,305.5,712.1,303.7,715.7,303.1z"/>
			</g>
			<g>
				<polygon class="body-t3-backspikes-shadow-color" points="706.9,309.7 714.1,309.1 718.7,314.9 711.3,315.3 				"/>
				<path class="body-t3-backspikes1-color" d="M720.2,310.2c0,0-9.4-1.2-13.3-0.5l4.4,5.6C711.3,315.3,717.4,309.8,720.2,310.2z"/>
				<path class="body-t3-backspikes2-color" d="M720.2,310.2c0,0-2.4,1.1-1.5,4.7l-7.4,0.4c1.1-1.1,2.1-1.9,2.8-2.5c2.6-2,3.9-2.3,4.3-2.4
					C719.1,310.3,719.8,310.2,720.2,310.2z"/>
				<path class="body-t3-main-color" d="M720.2,310.2l-6.1-1.1l-7.2,0.6C706.9,309.7,716.5,310,720.2,310.2z"/>
			</g>
			<g>
				<g>
					<polygon class="body-t3-backspikes-shadow-color" points="710,315.9 717.2,315.3 721.8,321.1 714.4,321.5 					"/>
					<path class="body-t3-backspikes1-color" d="M723.3,316.4c0,0-9.4-1.1-13.3-0.4l4.4,5.5C714.4,321.5,720.5,315.9,723.3,316.4z"/>
					<path class="body-t3-backspikes2-color" d="M723.3,316.4c0,0-2.4,1.1-1.5,4.7l-7.4,0.4c1.1-1.1,2-1.9,2.8-2.5c2.6-2,3.9-2.3,4.3-2.4
						C722.2,316.4,722.9,316.4,723.3,316.4z"/>
					<path class="body-t3-main-color" d="M723.3,316.4l-6.1-1.1l-7.2,0.7C710,315.9,719.6,316.2,723.3,316.4z"/>
				</g>
				<g>
					<polygon class="body-t3-backspikes-shadow-color" points="712,322.1 718.8,321.5 723.1,326.9 716.2,327.3 					"/>
					<path class="body-t3-backspikes1-color" d="M724.5,322.5c0,0-8.8-1-12.5-0.4l4.2,5.2C716.2,327.3,721.9,322.1,724.5,322.5z"/>
					<path class="body-t3-backspikes2-color" d="M724.5,322.5c0,0-2.3,1-1.4,4.4l-7,0.4c1-1,1.9-1.8,2.6-2.3c2.4-1.9,3.7-2.2,4-2.3
						C723.5,322.5,724.1,322.5,724.5,322.5z"/>
					<path class="body-t3-main-color" d="M724.5,322.5l-5.7-1l-6.8,0.6C712,322.1,721.1,322.3,724.5,322.5z"/>
				</g>
				<g>
					<polygon class="body-t3-backspikes-shadow-color" points="715.7,327.9 722.3,327.3 726.6,332.6 719.7,333 					"/>
					<path class="body-t3-backspikes1-color" d="M727.9,328.3c0,0-8.7-1-12.3-0.4l4.1,5.1C719.7,333,725.4,327.9,727.9,328.3z"/>
					<path class="body-t3-backspikes2-color" d="M727.9,328.3c0,0-2.3,1-1.4,4.4l-6.8,0.4c1-1,1.9-1.8,2.6-2.3c2.4-1.8,3.6-2.2,4-2.2
						C727,328.3,727.6,328.3,727.9,328.3z"/>
					<path class="body-t3-main-color" d="M727.9,328.3l-5.6-1l-6.6,0.6C715.7,327.9,724.6,328.1,727.9,328.3z"/>
				</g>
				<g>
					<polygon class="body-t3-backspikes-shadow-color" points="718.2,333.5 723.7,333 727.2,337.4 721.6,337.7 					"/>
					<path class="body-t3-backspikes1-color" d="M728.3,333.9c0,0-7.2-0.8-10.1-0.3l3.4,4.2C721.6,337.7,726.2,333.5,728.3,333.9z"/>
					<path class="body-t3-backspikes2-color" d="M728.3,333.9c0,0-1.9,0.8-1.1,3.6l-5.6,0.3c0.8-0.8,1.6-1.4,2.1-1.9c1.9-1.5,3-1.8,3.3-1.8
						C727.5,333.9,728,333.9,728.3,333.9z"/>
					<path class="body-t3-main-color" d="M728.3,333.9l-4.6-0.8l-5.5,0.5C718.2,333.5,725.6,333.7,728.3,333.9z"/>
				</g>
				<g>
					<polygon class="body-t3-backspikes-shadow-color" points="720.4,338.2 725.5,337.8 728.7,341.9 723.5,342.2 					"/>
					<path class="body-t3-backspikes1-color" d="M729.8,338.5c0,0-6.7-0.8-9.4-0.3l3.1,3.9C723.5,342.2,727.8,338.2,729.8,338.5z"/>
					<path class="body-t3-backspikes2-color" d="M729.8,338.5c0,0-1.7,0.8-1,3.3l-5.2,0.3c0.8-0.8,1.4-1.3,2-1.7c1.8-1.4,2.8-1.7,3-1.7
						C729,338.6,729.5,338.6,729.8,338.5z"/>
					<path class="body-t3-main-color" d="M729.8,338.5l-4.3-0.8l-5.1,0.5C720.4,338.2,727.2,338.4,729.8,338.5z"/>
				</g>
				<g>
					<polygon class="body-t3-backspikes-shadow-color" points="722.7,342.8 727,342.4 729.7,345.9 725.3,346.1 					"/>
					<path class="body-t3-backspikes1-color" d="M730.6,343.1c0,0-5.6-0.7-7.9-0.3l2.6,3.3C725.3,346.1,729,342.8,730.6,343.1z"/>
					<path class="body-t3-backspikes2-color" d="M730.6,343.1c0,0-1.5,0.6-0.9,2.8l-4.4,0.2c0.6-0.6,1.2-1.1,1.7-1.5c1.5-1.2,2.3-1.4,2.6-1.4
						C730,343.1,730.3,343.1,730.6,343.1z"/>
					<path class="body-t3-main-color" d="M730.6,343.1l-3.6-0.6l-4.3,0.4C722.7,342.8,728.4,343,730.6,343.1z"/>
				</g>
				<g>
					<polygon class="body-t3-backspikes-shadow-color" points="724,346.8 728,346.4 730.7,349.7 726.5,349.9 					"/>
					<path class="body-t3-backspikes1-color" d="M731.5,347c0,0-5.3-0.6-7.5-0.2l2.5,3.1C726.5,349.9,729.9,346.8,731.5,347z"/>
					<path class="body-t3-backspikes2-color" d="M731.5,347c0,0-1.4,0.6-0.8,2.7l-4.2,0.2c0.6-0.6,1.2-1.1,1.6-1.4c1.4-1.1,2.2-1.3,2.4-1.4
						C730.9,347.1,731.3,347,731.5,347z"/>
					<path class="body-t3-main-color" d="M731.5,347l-3.5-0.6l-4.1,0.4C724,346.8,729.4,346.9,731.5,347z"/>
				</g>
				<g>
					<polygon class="body-t3-backspikes-shadow-color" points="725.7,350.5 729,350.2 731.1,352.8 727.7,353 					"/>
					<path class="body-t3-backspikes1-color" d="M731.7,350.7c0,0-4.2-0.5-6-0.2l2,2.5C727.7,353,730.5,350.5,731.7,350.7z"/>
					<path class="body-t3-backspikes2-color" d="M731.7,350.7c0,0-1.1,0.5-0.7,2.1l-3.3,0.2c0.5-0.5,0.9-0.9,1.3-1.1c1.2-0.9,1.8-1.1,1.9-1.1
						C731.3,350.7,731.5,350.7,731.7,350.7z"/>
					<path class="body-t3-main-color" d="M731.7,350.7l-2.8-0.5l-3.2,0.3C725.7,350.5,730.1,350.6,731.7,350.7z"/>
				</g>
				<g>
					<polygon class="body-t3-backspikes-shadow-color" points="726.6,353.8 729.5,353.6 731.3,355.9 728.4,356 					"/>
					<path class="body-t3-backspikes1-color" d="M731.9,354c0,0-3.7-0.4-5.3-0.2l1.8,2.2C728.4,356,730.8,353.8,731.9,354z"/>
					<path class="body-t3-backspikes2-color" d="M731.9,354c0,0-1,0.4-0.6,1.9l-2.9,0.2c0.4-0.4,0.8-0.8,1.1-1c1-0.8,1.6-0.9,1.7-1
						C731.5,354,731.7,354,731.9,354z"/>
					<path class="body-t3-main-color" d="M731.9,354l-2.4-0.4l-2.9,0.3C726.6,353.8,730.5,353.9,731.9,354z"/>
				</g>
			</g>
		</g>
	</g>
</g>
<polygon id="хохолок_1_" class="tophead-main-color" points="339.2,82.5 352.5,73.8 380,64 394.6,61.6 402.3,68.1 406.4,88.5 383.3,120.3 
	374.7,131.2 342,115.4 332.8,102.1 330.2,94.1 "/>
<path id="хохолок_окрас" class="tophead-secondary-color" d="M353.2,84.9c0,0,13.6-15,30.1-14.7c16.5,0.3,11.1,12.9,11.1,12.9
	s-6.8,20.9-13.7,22.8l-12.4,5.1l-13.4-8l-5.4-11.1L353.2,84.9z"/>
<polygon id="хохолок_тень" class="tophead-darker-main-color" points="402.3,68.1 394.6,61.6 388.3,62.6 390.1,64.2 394.2,84.5 371.1,116.4 
	383.3,120.3 406.4,88.5 "/>
<path id="голова" class="head-main-color" d="M383.3,120.8l-2.5,27.5c-4.2,38.7-10.8,52.8-16.4,58.3c-1.2,1.2-5.9,5.4-7,11.9
	c-0.9,5.3,0.9,10,2.5,12.9c-8.1-4.5-16.3-9.1-24.4-13.6c-4.4,2.9,1,12.2,1,12.2c-9.5-7.4-19-14.9-28.5-22.3
	c-0.3,0.9-0.6,2.7-0.2,4.8c0.7,3.3,2.8,5.2,3.5,5.8c-3.8-2.1-8.5-5.3-13.2-9.7c-6.8-6.4-11-13-13.6-17.9c-0.5,1.5-0.9,3.1-1.3,4.8
	c-0.7,3.1-0.9,6-0.9,8.4c-6.5-9.5-13-18.9-19.4-28.4c0.2,4.4,0.3,8.8,0.5,13.1c-4.9-8.6-9.9-17.2-14.8-25.8c-1.2-2.7-2.8-6.9-4.4-12
	c-1.7-10.7-4.7-15.1-2.7-19.6c0.7-1.6,4.5-6.2,11.4-8.8c0,0,18.7-8.3,32.2-30.2l15.4-8l13.6-1.2h25.3c5.9-0.3,10.6,0.7,14,1.8
	c0.6,3.6,2,9.1,6.2,14.2c2.5,3.1,4.5,5.6,7.9,6.6c5.8,1.6,11.2-1.7,14.2,0.9c0.8,0.7,0.3,1.1,0.9,3.3
	C383.1,112.3,383.7,116.1,383.3,120.8z"/>
<g id="голова_тень">
	<path class="head-darker-main-color" d="M310.9,88.7c5.1-0.1,9.4,0.3,15.8,0.9c9.2,1,11.4,1.9,12.5,2.4c6.7,3.2,10.2,9.5,11,12.8
		c2.2,9.4,10.3,8.3,16.4,15.5c7.3,8.7,7.2,19.4,6.9,36.2c-0.2,11.7-1.8,29.3-8.8,50.2c0.7-1,1.5-2.4,2.6-4c1-1.5,1.9-3.1,2.8-4.9
		c2.8-6,3.9-11.3,4.9-14.7c1.7-5.5,3.4-13,4.3-22.1c1.1-10.6,2.2-21.2,3.2-31.8c0.3-2.8,0.5-5.6,0.8-8.4c-0.1-10.4,0.6-13.2-2.6-15
		c-13.7,0.7-18.4-2.5-20.4-5.5c-7.3-11-4.3-9.6-7-15.5c-0.1-0.2-0.2-0.4-0.4-0.7c-1.2-1.3-4.3-1.2-13.6-1.2h-25.3l-13.6,1.2l-15.4,8
		l-1.8,3.1C283.1,95.2,303,88.8,310.9,88.7z"/>
</g>
<g id="рот_1_">
	<path class="head-mouth1-color" d="M247.3,160c9.1-3,15.8-3.9,20.8-4.3c18.8-1.7,27.7,3.5,43.7,0c7.9-1.7,14-4.7,17.7-6.9
		c-0.2,2.2-3.1,9.4-4.5,10.8c-1,0.4-2.6,1.1-4.7,1.8c-18.3,6.1-30.5-1.6-49.3-0.2c-4.9,0.4-11.8,1.3-20.7,5.1
		c-0.5-1-1.1-1.9-1.7-2.9L247.3,160z"/>
	<path class="head-mouth2-color" d="M250.5,166.3c9.9-4.4,17.5-5.3,23-5.4c15.6-0.5,24.7,5.6,40.8,2.2c4.8-1,8.5-2.5,10.8-3.5
		c0.9-1.8,1.9-3.6,2.8-5.3c-3.8,2.2-10,5.2-18,6.4c-11.8,1.9-18.6-1.4-30-2.1c-7.3-0.5-17.6-0.1-31.1,4.8
		C249.3,164.4,249.9,165.3,250.5,166.3z"/>
</g>
<path id="ноздря_1_" class="head-nostril-color" d="M251,126.7c0,0-5.3,2.1-5.8,4.4c-0.5,2.3,1.4,4.2,1.4,4.2s1.8,2.5,4.4-2.7
	C253.7,127.4,251,126.7,251,126.7z"/>
<g id="глаз_1_">
	
		<ellipse transform="matrix(0.5078 -0.8615 0.8615 0.5078 51.2355 316.366)" class="eye-ext-circle" cx="302.5" cy="113.3" rx="17.7" ry="17.7"/>
	<path class="eye-secondary-color" d="M304.4,135.3c-4.5,0.2-8.7-1.5-11.9-4.5c2.3,4.3,7,7.2,12.2,7c5.5-0.3,10-3.9,11.7-8.7
		C313.5,132.7,309.2,135.1,304.4,135.3z"/>
	<path class="eye-secondary-color" d="M312.5,96.8c3.5,2.1,6.1,5,7.5,8.1c-0.2-3.3-2.7-7.1-6.8-9.5c-4.3-2.6-9-3-12.1-1.3
		C304.7,93.7,308.8,94.6,312.5,96.8z"/>
	<ellipse transform="matrix(0.3787 -0.9255 0.9255 0.3787 85.6154 350.7169)" class="eye-middle-circle" cx="304" cy="111.6" rx="16" ry="16"/>
	<path class="eye-secondary-color" d="M301.1,104.5c0.3-1.4-0.1-3.8,0.1-5.4c0.1-1.2,0.2-2.3,0.3-3.3c0.9-0.1,2-0.2,3.2-0.2c0.7,0,1.3,0.1,1.9,0.2
		c-0.7,0.7-2.5,2.5-2.9,5.3c-0.2,1-0.1,1.9,0,2.6C303.2,103.6,301.5,104.4,301.1,104.5z"/>
	<path class="eye-secondary-color" d="M307,105.3c0,0,0.7-5.5,6.1-6.9c0,0,2.1,1.5,3.1,2.8c0,0-5.7,1.7-7.6,6.1c-0.1-0.3-0.3-0.5-0.5-0.8
		C307.7,105.9,307.3,105.6,307,105.3z"/>
	<path class="eye-secondary-color" d="M319.6,107.6c0,0-4.5-2.4-10.2,1.7c0,0,0.3,2.4-0.2,3.7c0,0,7.1-3.4,10.6,1.7
		C319.7,114.7,320.8,110.3,319.6,107.6z"/>
	<path class="eye-secondary-color" d="M308.4,114.6l10.4,3.1c-0.2,0.7-0.5,1.5-1,2.4c-0.9,1.5-2,2.6-2.8,3.2c-0.2-0.5-0.6-1.3-1.3-2.2
		c-2.3-2.7-6.8-4.7-6.8-4.7S307.9,115.5,308.4,114.6z"/>
	<path class="eye-secondary-color" d="M292.1,100.8c0,0,3.1,5.8,5.7,9.2c0.2-0.4,0.4-0.9,0.6-1.4c0.3-0.7,0.4-1.4,0.5-1.9l-3.5-8.6
		C295.5,98,293,99.8,292.1,100.8z"/>
	<path class="eye-secondary-color" d="M305,117.6c-0.1,0,3.5,8.8,2.3,9.7c0,0-3.6,0.5-5.3,0.2c0.4-1.2,0.9-2.7,1.2-4.4c0.4-1.9,0.5-4,0.5-5.5"/>
	
		<ellipse transform="matrix(8.672479e-02 -0.9962 0.9962 8.672479e-02 168.4337 405.0108)" class="eye-in-circle" cx="305.1" cy="110.6" rx="7.3" ry="7.3"/>
	<ellipse transform="matrix(0.5078 -0.8615 0.8615 0.5078 57.4622 318.149)" class="eye-secondary-color" cx="307.1" cy="108.8" rx="3.9" ry="3.9"/>
	
		<ellipse transform="matrix(8.672556e-02 -0.9962 0.9962 8.672556e-02 171.7788 405.9742)" class="eye-st4" cx="307.3" cy="109.3" rx="2.9" ry="2.9"/>
	
		<ellipse transform="matrix(0.6683 -0.7439 0.7439 0.6683 21.3772 265.5872)" class="eye-st5" cx="308.5" cy="108.8" rx="1.3" ry="1.3"/>
	<path class="eye-secondary-color" d="M300.1,115.9c0,0-2.9,8.4-3.9,9.6c0,0-1.9-0.9-4.3-3.5c0,0,7.6-6.9,7.2-7.3
		C299.2,114.8,299.8,115.8,300.1,115.9z"/>
	<path class="eye-secondary-color" d="M298.2,113.1l-10,1.3c0,0-0.5-3.4-0.1-5.3l9.8,3.3L298.2,113.1z"/>
	<ellipse transform="matrix(0.8705 -0.4922 0.4922 0.8705 -11.6181 168.8161)" class="eye-st6" cx="315" cy="106.5" rx="2.5" ry="4.8"/>
	
		<ellipse transform="matrix(0.9986 -5.350965e-02 5.350965e-02 0.9986 -5.427 16.5192)" class="eye-st5" cx="305.8" cy="109.6" rx="0.8" ry="0.8"/>
</g>
</svg>