<?xml version="1.0" encoding="utf-8"?><svg version="1.1" id="Слой_1" xmlns="http://www.w3.org/2000/svg" xmlns:xlink="http://www.w3.org/1999/xlink" x="0px" y="0px" viewBox="0 0 960 540" style="enable-background:new 0 0 960 540;" xml:space="preserve"><style type="text/css">	.back-leg-color{fill:#618a0f;}
	.wood-1-color{fill:#87796D;}
	.wood-2-color{fill:#776255;}
	.wood-3-color{fill:#B8ADA6;}
	.wood-4-color{fill:#E0DCDA;}
	.body-main-color{fill:#a1e519;}
	.body-shadow-color{opacity:0.6;fill:#71a112;}
	.body-secondary-color{fill:#e57f19;}
	.shadow-legs-color{fill:#81b814;}
	.shadow-legs-2-color{opacity:0.4;fill:#a1e519;}
	.back-fingers-color{opacity:0.38;fill:#71a112;}
	.tophead-main-color{fill:#a1e519;}
	.tophead-secondary-color{fill:#e57f19;}
	.tophead-darker-main-color{fill:#71a112;}
	.head-main-color{fill:#a1e519;}
	.head-darker-main-color{fill:#71a112;}
	.head-mouth1-color{opacity:0.73;fill:#91cf17;}
	.head-mouth2-color{opacity:0.4;fill:#71a112;}
	.head-nostril-color{opacity:0.52;fill:#202e05;}
	.eye-ext-circle{fill:#e88c30;}
	.eye-secondary-color{fill:#8a4c0f;}
	.eye-middle-circle{fill:#d17f2e;}
	.eye-in-circle{fill:#cf7317;}
	.eye-st4{fill:#1E0E00;}
	.eye-st5{fill:#CBDCE2;}
	.eye-st6{opacity:0.52;fill:#CBDCE2;}
</style><path id="задняя_задняя_лапа" class="back-leg-color" d="M560.1,330.9c-5.9-1.4-11.8-2.7-17.7-4.1c-3.9-16-7.7-32.1-11.6-48.1
	l36.1,1.7C564.6,297.2,562.3,314.1,560.1,330.9z"/>
<path id="ветка" class="wood-1-color" d="M627.7,314.8c-3.8-7-101.2-6.8-126.7-7.7c-25.5-0.9-98-17.8-98-17.8
	c-12.1-6.3-31.5-9.4-52.7-10.7c-40.4-2.4-87.5,2-103.4,3.7c-3.5,0.4-5.5,0.6-5.5,0.6c-0.1,15.2,11.9,27.6,11.8,42.8
	c50.7-7.9,81.5-7.5,105.8-5.1c0.2-0.2,18.5,2.2,23.1,2.9c6.1,0.8,30.6,4.4,50.9,7.4c28.5,4.2,52,7.7,67.7,10l127.6,7.7
	c1.9-5,3.3-9.1,4.3-12.4C637.6,318.3,630.9,320.7,627.7,314.8z"/>
<g id="тени_ветка">
	<path id="тень_ветка" class="wood-2-color" d="M359.3,320.2c-68.3-11.3-99.8-24.4-103.4-28.4c-2.9-3.2-6.1-6.6-9-9.6
		c-3.5,0.4-5.5,0.6-5.5,0.6c3.8,13.6,8,29.2,11.8,42.8c44.3-2.3,98.7-3.2,122.8-3C376.2,321.8,358.8,320.7,359.3,320.2z"/>
	<path class="wood-2-color" d="M335.6,290.3c9.9-3.1,20.7-0.6,28,6.5c10.5,10.3,7.9,24.4,7.7,25.4l8.1-29.1
		C379.4,293.2,377,278.6,335.6,290.3z"/>
	<path class="wood-2-color" d="M508.4,341.4c0,0,15.1-6.2,16.6-24.4c0,0,88.3,1.7,107.5,19.3c0,0,10-22.3-14.1-25.6
		c-18.9-1-38.2-1.8-57.9-2.3c-13.9-0.4-27.6-0.7-41.2-0.8c0.3,2.5,0.5,6,0,10.3c-0.2,1.4-0.4,2.9-0.8,4.5
		C516.3,331.9,511.2,338.3,508.4,341.4z"/>
	<path class="wood-2-color" d="M543.1,333.7c0,0,8.7-1.6,14.4,7.7c0,0,1.2,2.4,0,3l-3.6-0.2L543.1,333.7z"/>
	<g>
		<path class="wood-2-color" d="M495.3,307.2c0,0-80.6-13.3-93.6-18.5c-0.1,0-0.1-0.1-0.2-0.1c-0.3-0.2-0.4-0.2-1.1-0.5
			c-0.3-0.1-0.5-0.2-0.7-0.3c0,0-0.2,2.7-0.2,9.4c0,11.8-4.8,24.4-10.8,27.3c0.3,0,0.6,0.1,0.9,0.1c1.4,0.2,7.8-4.9,10.4-8.9
			c5.3-8.3,9.8-13.5,11-14.1c4.9-2.5,19.5-1.3,31,1.5C454.2,306.1,472,308.8,495.3,307.2z"/>
	</g>
</g>
<g id="ветка_круг">
	<path class="wood-3-color" d="M244.2,283.4c-1.5-1.1-4-0.8-4.8,0.4c-2.1,3.1-4.9,9.6-2.4,20.4c3.7,16.1,13.1,21.2,16.2,21.4
		c3.1,0.1,9.6-8.2,3.3-24.6C252.4,290.6,247.4,285.6,244.2,283.4z"/>
	<path class="wood-4-color" d="M246.9,287.5c-1.2-0.9-3.2-0.7-3.9,0.4c-1.7,2.5-4,7.7-1.9,16.5c3,13,10.6,17.1,13.1,17.2
		c2.5,0.1,7.8-6.6,2.7-19.8C253.6,293.3,249.5,289.3,246.9,287.5z"/>
	<path class="wood-3-color" d="M248.3,291.2c-0.9-0.7-2.5-0.5-3.1,0.3c-1.3,1.9-3.1,6-1.5,12.9c2.4,10.1,8.3,13.4,10.2,13.5
		c2,0.1,6.1-5.2,2.1-15.5C253.6,295.8,250.3,292.6,248.3,291.2z"/>
	<path class="wood-4-color" d="M247.6,294.6c-0.7-0.5-1.9-0.4-2.3,0.2c-1,1.5-2.3,4.6-1.1,9.8c1.8,7.7,6.2,10.1,7.7,10.2
		c1.5,0.1,4.6-3.9,1.6-11.7C251.6,298,249.2,295.6,247.6,294.6z"/>
</g>
<path id="передняя_задняя_лапа" class="back-leg-color" d="M333.5,289.3c-1.4-1.9,0.2-5.3,1.4-7.8c0.6-1.2,2.8-5.7,8.7-9.1
	c0,0,5-2.8,23.9-3.8l30.3-39l18.6,10.1l-41.7,50.3c-2.8-1.2-7-2.7-12.4-3.2C347.1,285.4,336.3,293.1,333.5,289.3z"/>
<path id="кончик_хвоста" class="body-main-color" d="M652.3,397.2c-25-11.3-62.8,4.7-70.5,24c-1.6,3-3.6,7.3-5.1,12.6
	c-1,3.5-3.5,13.2-2,26.1c0.5,4.7,3.1,27.3,18.5,39c3.4,2.6,7.4,4.5,7.9,4.8c6.7,3.3,14.5,3.4,18.7,5.1c11.5,4.5,25.1-24.5,29-29.5
	l-0.4-1.1c-6.3,0.7-32,1.6-39-27.1c0,0-1-18.5,9.8-27.1c5-3.9,13.8-6.3,20.5-3.3c3.7,1.6,6.3,4.7,6.3,4.7c0.7,0.8,2.4,2.9,3.6,6.2
	c0.4,1.1,1.5,4.6,1,9.2c-0.2,1.7-1.1,7.7-6.1,12.1c-1.8,1.6-4.5,4-8.4,3.9c-4.6-0.1-7.5-3.7-8.1-4.4c-8-8.9,5.7-12.6,5.7-12.6
	s-8.9,3.9-0.9,11.5c2.8,2.7,5.3,2.3,7.4,0.7c2.8-2.1,4.8-6.3,5.8-8.6c0.4-1,0.6-1.6,0.6-1.6s2.8-18.9-14.1-18.8
	c-16.9,0.1-24,21-15.8,36.9c5.6,10.7,18.6,19.1,30.6,15.6c5.9-1.7,11.5-6.2,15.9-14.6C676.8,435.3,677.4,408.6,652.3,397.2z"/>
<path id="тень_хвост" class="body-shadow-color" d="M648.8,479.3l-0.4-1.1c-6.3,0.7-32,1.6-39-27.1c0,0-1-18.5,9.8-27.1
	c6.3-5,15-5.6,20.5-3.3c1,0.4,1.9,0.9,2.1,1.1c4.9,2.9,7,7.6,7.8,9.8c1.8,5,1.1,9.3,0.6,11.2c0.6-1.4,1.4-3.4,2-6.1
	c0.1-0.4,2-10.7-2.3-17.7c-5.5-9-22.7-10.3-34.5-5.6c-20.4,8.1-25.2,34.2-26.5,41.2c-3.9,21.2,3.3,38.5,7,46
	c3.4,0.3,7.2,0.3,11.1-0.1C627.7,498.5,642.1,486,648.8,479.3z"/>
<path id="тело" class="body-main-color" d="M730,405.2c0.5-5.3,0.7-9.5,0.8-14.3c0.4-12.7,1-24.8-2.1-38.9c-1.4-6.5-3.3-13-5.6-19.4
	c-4.4-12.5-10.3-24.6-16.9-35c-4.2-6.8-8.8-12.9-13.4-18.1c-5.5-6.2-81.3-126.6-85.2-131.7c-11.1-14.8-22-21-22-21
	c-7.6-6.6-15-12.2-22.3-16.9c-10.9-7.2-21.5-12.5-31.5-16.4c-7.3-2.8-14.4-4.9-21.2-6.3c-17.4-3.7-32.8-3.5-45.6-2.4
	c-1.2,0.1-2.3,0.2-3.5,0.3c-5.4,0.6-10.2,1.3-14.5,1.8c-4.3,0.6-8,1-11.1,1.1c-1.1,0-2.5,0.2-3.9,0.5c-6.7,1.4-16.5,5.5-27.4,11
	c-12.3,6.2-26,14.1-38.3,21.5c-5.7,3.5-11.1,6.8-15.9,9.8c-12.3,7.8-20.8,13.4-20.8,13.4s-3.6,12.5-7,26.8l17.3,37.6
	c19.3,1,44.1,8.4,44.1,8.4c32.3,31.8,63.4,47.3,83.3,55.1c37.6,14.9,138,25.7,141,28.1c16.4,13,10.7,9.1,26.5,21.3
	c6.6,5.1,13.1,10,18.8,14.3c9.4,7.1,16.7,12.6,18.9,14.6c0.6,0.5,1.3,1.3,2.1,2.2c2.2,2.4,5,6,7.8,10.7c5,8.1,10.1,19.4,12.1,32.8
	c1.4,9.3,1.3,19.6-1.3,30.7c-0.7,3-1.6,6-2.7,9.1c-1.5,4.1-3.4,8.4-5.7,12.7c-1.9,3.6-3.9,6.8-6,9.6c-4.5,6.3-9.2,10.7-13.9,13.9
	c-8.2,5.5-16.4,6.8-23.5,6.3c-8.9-0.6-16-4.1-19.2-6c-4.3,1.3-9.1,2.8-14.1,4.4c-7,4.7-9.6,10.3-10.3,15c-0.9,5.6,0.8,10,0.8,10
	c8.9,4,16.8,6.2,22.6,7.5c5.3,1.1,12.5,2.6,22.1,2.3c4.9-0.1,12.1-0.4,20.8-3.5c1.7-0.6,6.3-2.9,12.3-6.1
	c6.1-3.3,10.1-7.7,14.6-12.6c8.3-9,16.3-17.8,23.8-31.8C726.8,435.1,729.1,414.9,730,405.2z"/>
<g id="окрас">
	<path class="body-secondary-color" d="M405,99.5c-0.9,36.4,7.4,96.8,15.9,147.7c1,0.5,1.9,1.1,2.9,1.6c-1.4-42.3,4.6-116.9,8.6-160.4
		C425.7,89.8,415.9,94,405,99.5z"/>
	<path class="body-secondary-color" d="M350.8,130.9c-12.3,7.8-20.8,13.4-20.8,13.4s-3.6,12.5-7,26.8l17.3,37.6c19.3,1,44.1,8.4,44.1,8.4
		c4,4.9,8.8,8.4,13.5,12.6c-11.3-43.5-24.8-87.5-31.1-108.6C361,124.5,355.6,127.8,350.8,130.9z"/>
	<path class="body-secondary-color" d="M660.7,230.5c-1.3-2.1-27.8-42.7-27.8-42.7c-27.5,14.6-67.5,70.3-80.9,90.3c12.4,0.3,22.5,0.1,28.9-0.2
		c2.6-0.1,4.5-0.2,5.8-0.3C600.9,262,646.5,238.1,660.7,230.5z"/>
	<path class="body-secondary-color" d="M622.5,472.3c-1.7-0.4-4.6-0.9-8.1-0.4c-1.3,0.2-8.1,1.4-12.5,7.5c-3.6,4.9-6.9,19.8-6.1,21.2
		c0.7,1.3,5.8,3.4,9.8,4.9c7.3,2.7,14.6,2.8,17.9,4.1c2,0.5,4.3,0.9,6.6,1.2c3.4,0.5,6.6,0.7,9.4,0.7c2.7-7.9,2.1-21.5,2.2-33.3
		C632.8,477.7,625.7,474.2,622.5,472.3z"/>
	<path class="body-secondary-color" d="M730.3,395.4c2.6-13.5,1.7-28.5-1.5-43.4c-14.4,2.8-33.9,8-46.1,11.4c5,8.1,10.1,19.4,12.1,32.8
		C705.6,395,720.5,395.2,730.3,395.4z"/>
	<path class="body-secondary-color" d="M607.8,147.8c-51.1,11.2-91.4,98.1-103,125.9c3.1,0.5,6.1,0.9,9.1,1.2c13.6-30.4,74.4-83.2,105-108.6
		C615.5,159,611.6,152.9,607.8,147.8z"/>
	<path class="body-secondary-color" d="M510.9,87.1c-17.4-3.7-32.8-3.5-45.6-2.4c-2.3,29.2-4.2,59.2-5.8,89.7c-1.6,31.6-2.8,62.6-3.6,92.8
		c1.4,0.8,3,1.6,4.7,2.3c1.8,0.8,3.4,1.4,4.9,1.9C458.2,167.9,491.8,108.5,510.9,87.1z"/>
	<path class="body-secondary-color" d="M672.7,350.5c0.6,0.5,1.3,1.3,2.1,2.2c14.6-7.5,33.9-14.9,48.4-20.1c-4.4-12.5-10.3-24.6-16.9-35
		c-17.5,9.1-38.8,26.5-52.5,38.4C663.3,343.1,670.6,348.5,672.7,350.5z"/>
	<path class="body-secondary-color" d="M693,279.5c-5.5-6.2-16.7-27.6-21.1-31.6c-19.3,9.7-51.2,38.4-63.3,52.4c8,6.8,17.4,14.3,26.5,21.3
		C646.8,299.2,678.4,285,693,279.5z"/>
	<path class="body-secondary-color" d="M665.2,472c0.5,10.4-0.2,25.5-0.9,36c4.3-1.9,8.4-4,12.3-6.1c5.1-2.7,10-7,14.6-12.6
		c-2.8-10.5-8.3-23-12.1-31.2C674.6,464.4,669.9,468.9,665.2,472z"/>
	<path class="body-secondary-color" d="M690.8,435.9c5.9,7.1,14.5,21.7,19.2,30c3.2-5,6.5-11,9.6-18.2c3.2-7.4,5.3-14.3,6.7-20.2
		c-7.6-1.6-23.7-1.5-32.8-0.7C692.8,429.8,691.9,432.8,690.8,435.9z"/>
	<path class="body-secondary-color" d="M567.9,112.8c-0.1-0.1-1-0.7-2.7-1.8c0,0-3.1-2.1-6.2-4c-11-6.7-21.2-11.1-21.2-11.1c-3.3-1.4-7.8-3.2-13.1-5
		c-7.3,17.8-16.7,43.8-22.5,66.7c-11,43.3-14.1,82.1-14,113.2c9.4-51.4,26.4-79.5,40.7-95.8c0,0,0,0,0,0
		C556.2,147.1,572.6,117.5,567.9,112.8z"/>
</g>
<path id="тень_на_хвосте" class="body-shadow-color" d="M639.5,511.6c0,0,1.1-2.2,1.5-4.6c1.8-9.9,7.4-22.9,13.3-22.7
	c5.7,0.1,9.6,15.5,10.3,17.9c1-17.9,6.3-32.7,12-33.2c5.8-0.5,11.3,11.1,12.5,13.8c-6-15.6-4.1-28.1,1.5-30.7
	c4.8-2.3,15.3,7.1,15.3,7.1s-0.2-0.7-1.2-2.6c-5.5-10.6-7.8-13.6-8-18.6c-0.1-1.5-0.1-2.8,0.6-4.2c1.5-3.2,5-4.3,8.2-5.5
	c4.5-1.6,8.4-1.7,10.7-1.5c-0.5-0.1-1.2-0.4-2-0.6c-1.1-0.4-2.6-0.9-3.7-1.5c-3.1-1.5-6.9-3.9-9.2-7.5c-1.1-1.7-2.7-4.3-2.3-7.5
	c0.5-4,4-6.4,6.9-8.6c3.4-2.6,6.7-3.5,9-4.2c4.2-1.2,7.8-1.4,10.3-1.3c-1,0.1-16.3-0.6-23.3-7.6c-2.2-2.2-4.9-4.8-5.6-8.9
	c-1.7-9.2,7.6-18.7,16.2-22.7c2.1-1,4-1.5,5.4-1.8c-1.6,0.4-30.9,6.9-32.7,1.9c-1.8-5,24.6-18.5,26.2-19.3c0,0-25,8.9-37.7,3.3
	c-1.4-0.6-4.4-2-5.5-5c-1-2.8,0.1-6,2.3-9.5c0,0,5.4-8.9,24.3-21.5c0,0-19.4,13.1-39.1,15.9c-3,0.4-6.3,0.6-7.5-1.2
	c-2.1-3.1,3.4-10.3,5.8-13.4c4.2-5.4,11.5-13.2,24.2-19.9c-10.3,5.8-27.6,14.3-42.7,15.4c-5.5,0.4-9.1-0.3-10.8-2.6
	c-0.7-0.9-2.9-4.2,1.5-11.6c2.9-4.9,10.5-14,27.9-27.8c0,0-20.5,10.4-34,14.8c-6.2,2.1-12.1,3.6-17.6,4.8c1.5-4.8,3.1-12.5,2-21.9
	c-0.6-4.7-1.7-8.7-2.9-11.9c0,0-4.4-1.9-6-2.6l-14.5,0.8l-0.5,34.3c4.9-0.2,7.6-0.5,7.6-0.5c-4.1,9.7,76.2,66,84.2,73.5
	c8.1,7.5,39,48.7,12.3,98c-26.7,49.4-64.5,22.6-64.5,22.6c-2.9,0.1-11.7,0.5-18.1,7.3c-3.4,3.7-7.5,19.3-6.7,22.2c0.3,0.7-1-0.8,0,0
	c7.1-16.4,22.8-23.5,30.9-20.9c7.8,2.5,11.1,15.2,11.8,17.6C640.6,505.1,639.5,511.6,639.5,511.6z"/>
<path id="тень_передняя_лапа" class="shadow-legs-color" d="M484.3,201.2c-1.2-4.4-11.1-16.5-29.7-22.2c-1.4-0.4-2.8-0.8-4.1-1.2
	c10.5,6,16.2,13.5,17.1,16.8c1.2,4.4-7.5,43.7-22.4,50.7c-0.8,1-1.7,2-2.6,3.1c-2.5,2.9-5,5.6-7.5,8.2c2.1,1.3,4.4,2.7,6.8,4
	c3.6,2,7,3.6,10.2,5c3.2-4.6,6.5-9.1,9.7-13.7C476.8,244.9,485.5,205.6,484.3,201.2z"/>
<path id="тень_задняя_лапа" class="shadow-legs-color" d="M574.3,231l-54,12.2c0,0-17.6-0.7-16.8,14.2c-3.6,7.5-7.3,15-10.9,22.5
	c2.1,0.5,4.2,1,6.3,1.5c2.6,0.6,5.2,1.1,7.7,1.6c2.9-7.7,5.8-15.4,8.7-23c-0.2-1.6-0.2-4.5,1.4-7.3c2.6-4.7,8.6-7.2,15-6.4l54-12.2
	c0.4-0.1,0.8-0.1,1.1-0.2C583.3,231.1,579,229.9,574.3,231z"/>
<path id="передняя_лапа" class="body-main-color" d="M445.5,245.5c1.2-0.5,2.3-1.3,3.4-2.2c12.8-10.7,20.1-44.5,19-48.5
	c-0.9-3.3-6.6-10.8-17.1-16.8c-3.6-2.1-7.8-4-12.6-5.4c-18.6-5.7-22.8-4.3-40.2,0.5c-2.2,0.6-3.9,1.5-5.3,2.5
	c-7.5,5.7-4.3,17.2-2.6,22c1.6,1.5,4.4,4.3,9.1,9.1c4.6,4.7,10.6,6.5,16.7,6.6c3.3,0.1,6.6-0.4,9.7-1.1c-1.5,1.5-3,3.2-4.5,5
	c-15.2,18.6-28.9,49.2-28.9,49.2s-3.2,4.6-7,6.7c-2.2,1.3-3.2,2-4.8,3c-6.2,3.8-9.8,9.2-11.1,11.2c-3.4,5.6-4.3,11.1-4.6,14
	c-0.2,1.7-1.6,16.9,6.3,20.9c2.2,1.1,4.9,1.5,6.3,0.6c0.9-0.6,1.2-3.4,1.6-6.9c0.4-3.9,0.9-6.1,1.2-6.1c0.1,0,0.4,0.3,1.2,9.5
	c0.2,1.7,0.3,3.1,0.3,4.1c2.3,1.5,4.1,1.6,5.2,1.4c6.8-1.1,12.7-15.3,12.7-28.1c0-6.7-1-10.3,2.9-13.4c1.1-0.9,15.8-11,22.2-16.6
	c7-6.1,13.3-12.9,17-17.2C444.2,247.1,445.5,245.5,445.5,245.5z"/>
<path id="тень_спина" class="body-shadow-color" d="M585.8,126.8c-8.5-7-14.2-11.6-22.2-16.9c-10.9-7.2-21.5-12.5-31.5-16.4
	c-28-10.8-52.1-10.3-70.3-8.4c0,0,0,0,0,0c-2.4-0.3-4.8,0.3-4.8,0.6c0,0.6,15.8,0.2,34.4,4.2c14.1,3,20.5,3.9,24.3,9.7
	c3.3,5-0.9,14.5-6,28.5c-3.6,9.8-8,24.3-10.7,43.4c6.8-19.2,13.4-33.3,18.2-42.4c2.6-5,6.9-12.8,15.1-15.6c1.4-0.5,6.5-2.2,9.9,0.3
	c2,1.4,4.2,4.8,2.8,15.7c-2.3,17.7-11.8,36.7-19.6,49.9c7.5-9.2,23.2-26.7,41.2-33.8c2.9-1.1,5.2-1.8,6.5-0.7
	c4.4,3.8-8.1,25.5-19.2,43.1c0,0,24.9-23.3,40.7-22.7c1.7,0.1,2.8,0.5,3.5,1.4c4.1,5.1-10.1,23.2-23,38c3.5-2.6,26.4-19.6,37.3-14.9
	c0.8,0.4,2.2,0.9,2.8,2.3c0.8,1.5,1.3,5.1-14.2,23c-2.7,3.1-5,5.6-6.6,7.4c4-1.4,8.1-2.7,12.1-4c6.3-2.1,12.5-4.1,18.7-6
	c2.7-0.6,6-1,9.6-1.1c6-0.2,11,0.7,14.9,1.6c-3.5-5.7,2.3,3.4-4.4-6.8c-6.8-10.4-7.5-10.8-12.3-18.2c-6.5-9.8-15.3-30.4-29.7-46
	C599.9,138.4,595.2,134.5,585.8,126.8z"/>
<path id="тень_под_задней_лапой" class="shadow-legs-color" d="M598.4,289.2c-4.3-4.2-7.7-7.7-9.8-9.9
	c-13.9,0.8-19.9-0.3-22.7-1.7c-0.2-0.1-2.4-1.1-5.3-2.4c-2.7-1.2-4.3-1.9-6.3-2.6c-2.2-0.7-5.1-1.5-6.6-1.7
	c-9.7-1.1-19.8,14.9-21.1,17c0.1,0,0.3,0,0.4,0c0,0,0.1,0,0.1,0c0.4,0,0.8,0,1.1,0.1c0.6,0.1,1.3,0.1,1.9,0.3
	c0.3,0.1,0.6,0.2,0.9,0.3l77.4,11.7C608.9,299.2,607.1,297.8,598.4,289.2z"/>
<path id="задняя_лапа" class="body-main-color" d="M602.1,238.3c-6.7-7-16.3-7.1-18.8-7.1c0.7,0.5-51.4,13.8-51.4,13.8
	s-17.6-0.7-16.8,14.2c-6.2,13.2-9.8,25.4-16,38.7c-2.3-0.5-14,3.8-16,7.3c2.1,0.3,4.2,0.7,6.3,1c2,0.3,3.9,0.6,5.9,1
	c2,4,2.4,7.2,2.3,9.2c0,6-3.1,11.8-5.6,16.4c-2.2,4.2-3.1,4.9-2.7,6.4c1.1,4,10.1,6.5,16.6,3.6c1.7-0.8,4.6-2.5,7.9-8.5
	c5.3-9.6,5.9-19.7,5.3-26.9c-0.3-1.7-1.1-6-1.3-6.6l13.2-20.8c4.8-4.4,9.1-5.7,11.8-6.2c11.8-2.1,19,7.5,36.9,9.6
	c3.4,0.4,8.1,0.6,13-1.7c3.2-1.5,5.4-3.7,6.5-4.8c0,0,3.1-3.2,5.2-7.4C607.3,263.8,611.6,248.3,602.1,238.3z"/>
<path id="тень_под_передней_лапой" class="shadow-legs-color" d="M416,213.2c-6.1-0.1-12.1-1.9-16.7-6.6
	c-4.7-4.8-7.5-7.6-9.1-9.1c-1.8-4.8-5-16.3,2.6-22c-0.8,0.2-1.5,0.4-2.3,0.6c-14.7,3.7-10.3,19-8,24.8c1.7,1.5,4.7,4.4,9.7,9.4
	c4.9,4.9,11.2,6.7,17.6,6.9c3.5,0.1,6.9-0.3,10.2-1c0,0-0.1,0.1-0.1,0.1c-2.2,1.8-3.9,3.6-6,6.1c-2.4,2.9-5.8,7.1-9.5,12.6l3.4,2.8
	c2.9-5,6.4-10.3,10.4-15.8c2.6-3.5,5.2-6.8,7.7-9.9C422.6,212.9,419.3,213.3,416,213.2z"/>
<path id="полутень_передняя_лапа" class="shadow-legs-2-color" d="M473.5,196.1c-0.9-3.3-6.6-10.8-17.1-16.8
	c-3.6-2.1-7.8-4-12.6-5.4c-18.6-5.7-22.8-4.3-40.2,0.5c-2.2,0.6-3.9,1.5-5.3,2.5c-7.5,5.7-4.3,17.2-2.6,22c1.6,1.5,4.4,4.3,9.1,9.1
	c4.6,4.7,10.6,6.5,16.7,6.6c3.3,0.1,6.6-0.4,9.7-1.1c-1.5,1.5-3,3.2-4.5,5c-15.2,18.6,2.4,34.8,5.6,36.1c0.7,0,2.9,2.2,3.6,2.5
	c1,0.4,1.7,1.1,2.6,1.6c0.3,0.2,0.7,0.4,1,0.6c0,0,0.1,0.1,0.1,0.1c3.2-3.3,5.9-6.3,7.9-8.5c2.2-2.5,3.4-4.1,3.4-4.1
	c1.2-0.5,2.3-1.3,3.4-2.2C467.3,233.9,474.6,200.2,473.5,196.1z"/>
<g id="полутень_задняя_лапа">
	<path class="shadow-legs-2-color" d="M607.6,239.6c-6.9-7.3-16.9-7.4-19.4-7.4c0.7,0.5-53.3,14.5-53.3,14.5s-18.2-0.7-17.4,14.8
		c0,0,8.5,26.2,9.5,26.4c0,0,0.1,0,0.1,0c0.4,0,0.8,0,1.2,0.1c0.6,0.1,1.2,0.1,1.8,0.3c0.3,0.1,0.6,0.2,0.9,0.3l3.1-5.4
		c5-4.6,9.4-6,12.3-6.5c12.2-2.2,19.7,7.8,38.2,9.9c3.5,0.4,8.4,0.6,13.4-1.8c3.3-1.6,5.6-3.9,6.7-5c0,0,3.3-3.3,5.4-7.8
		C613,266.2,617.4,250,607.6,239.6z"/>
</g>
<path id="пальцы_задня_лапа" class="body-main-color" d="M529.7,336.7c2.8-2.7,8.3-4.5,9.8-3.1c0.6,0.5,0.1,1.1,0.3,3.8
	c0.1,2.1,0.6,4.6,1,4.6c0.3,0,0.3-1.5,1-4.5c0.5-2.4,0.8-3.5,1.3-3.8c2.8-1.6,9.5,4.2,10.8,6.3c0.2,0.3,0.7,1.2,0.7,2.3
	c0,0.6-0.3,1.2-0.3,1.3c0,0-0.2,0.5-0.8,1l-2.7,1.1c-0.8,0.5-11.2,1.5-16.5,0.5c-3-0.6-4.8-0.9-6.1-2.4c-0.4-0.5-1.4-1.7-1.2-3.2
	C527,339.4,528,338.3,529.7,336.7z"/>
<path id="тень_на_задней_лапе" class="back-fingers-color" d="M495.3,307.2c0,0,15.3,7-6,32.1c0,0,0,0,0,0c0,0,0,0-0.1,0
	c0,0,0-0.6,0-1.2c0-0.5,3.7-7,3.8-7.2c0.1-0.2,2.6-5.4,3.2-7.3c0.2-0.7,0.8-2.6,1.1-4.4C497.7,317.2,498,312.9,495.3,307.2z"/>
<g id="задняя_задняя_лапа_пальцы">
	<path class="back-leg-color" d="M579,309.5c-0.1,0.5-0.5,2.6-3,3.4c-2.2,0.7-5.4,1.2-6.3,1.1c-2.9-0.3-4.7-3-4.9-3.3c-0.8-1.3-2.4-2.6-1.3-3.7
		c0.9-1,3.3-1.8,5.4-1.2C573.1,307,579.5,307.9,579,309.5z"/>
	<path class="back-fingers-color" d="M529.7,336.7c2.8-2.7,8.3-4.5,9.8-3.1c0.6,0.5,0.1,1.1,0.3,3.8c0.1,2.1,0.6,4.6,1,4.6c0.3,0,0.3-1.5,1-4.5
		c0.5-2.4,0.8-3.5,1.3-3.8c2.8-1.6,9.5,4.2,10.8,6.3c0.2,0.3,0.7,1.2,0.7,2.3c0,0.6-0.3,1.2-0.3,1.3c0,0-0.2,0.5-0.8,1l-2.7,1.1
		c-0.8,0.5-11.2,1.5-16.5,0.5c-3-0.6-4.8-0.9-6.1-2.4c-0.4-0.5-1.4-1.7-1.2-3.2C527,339.4,528.1,338.3,529.7,336.7z"/>
</g>
<g id="хохолок">
	<path class="tophead-main-color" d="M387.7,88.4c0,0-2.9-25.1,3.9-29.1c6.1-3.6-4.2-29.7-16.8-25.4c-1.3,0.4-2.7,1.2-4,2.4c0,0-1.1,0.8-2.9,2.3
		c-9.8,8-41.6,35.5-50.9,59.4c0.6-0.3,1.3-0.5,2-0.6c1.4-0.2,2.9,0.1,4.3,0.4c0.6,0.1,1.1,0.3,1.7,0.4c0.2,0,1.8,0.3,1.3,0.3
		c2.5,0.2,4.4,1.8,4.6,4.4c0.1,2.3-2.1,4.8-4.4,4.6c-1.5-0.1-2.9-0.4-4.4-0.8c-0.6-0.1-1.1-0.3-1.7-0.4c0.4,0,0.3,0-0.2,0
		c-0.3,0-0.6,0-0.9,0.1c-1.7,0.2-3.2-0.9-4-2.4c-0.3,1.3-0.5,2.5-0.6,3.7c0,0.4-0.1,0.8-0.1,1.2c-1,21.1,31.1,28.9,50.1,31.8
		c7.8,1.2,13.4,1.6,13.4,1.7C378.1,142.9,396.2,127.2,387.7,88.4z"/>
	<path id="окрас_хохолок" class="tophead-secondary-color" d="M372.7,80.9C365,70.1,377.3,53,374,44.6c-1.6-4.1-3.5-5.9-6.2-6.1
		c-9.8,8-41.6,35.5-50.9,59.4c0.6-0.3,1.3-0.5,2-0.6c1.4-0.2,2.9,0.1,4.3,0.4c0.2,0.1,0.5,0.1,0.7,0.2c6.5-6.2,13.1-11.1,17.4-10.9
		c0,0,9.1-2.4,13.4,5.3c4.3,7.8,14.7,15.8,21.3,4.4C376,96.8,380.4,91.7,372.7,80.9z"/>
</g>
<path id="тень_хохолок" class="tophead-darker-main-color" d="M387.7,88.4c0,0-2.9-25.1,3.9-29.1c6.1-3.6-4.2-29.7-16.8-25.4
	c4.2,2.6,7.8,6.8,8.1,13.5c0,0,4.5,6.3,1.2,17.5c-3.3,11.2-5.7,22.8-4.3,35.5c1.4,12.7-1,27.5-12.3,32.6c-4.4,2-4.5,5-2.9,7.8
	c7.8,1.2,13.4,1.6,13.4,1.7C378.1,142.9,396.2,127.2,387.7,88.4z"/>
<path id="голова" class="head-main-color" d="M383.3,120.8l-2.5,27.5c-4.2,38.7-10.8,52.8-16.4,58.3c-1.2,1.2-5.9,5.4-7,11.9
	c-0.9,5.3,0.9,10,2.5,12.9c-8.1-4.5-16.3-9.1-24.4-13.6c-4.4,2.9,1,12.2,1,12.2c-9.5-7.4-19-14.9-28.5-22.3
	c-0.3,0.9-0.6,2.7-0.2,4.8c0.7,3.3,2.8,5.2,3.5,5.8c-3.8-2.1-8.5-5.3-13.2-9.7c-6.8-6.4-11-13-13.6-17.9c-0.5,1.5-0.9,3.1-1.3,4.8
	c-0.7,3.1-0.9,6-0.9,8.4c-6.5-9.5-13-18.9-19.4-28.4c0.2,4.4,0.3,8.8,0.5,13.1c-4.9-8.6-9.9-17.2-14.8-25.8c-1.2-2.7-2.8-6.9-4.4-12
	c-1.7-10.7-4.7-15.1-2.7-19.6c0.7-1.6,4.5-6.2,11.4-8.8c0,0,18.7-8.3,32.2-30.2l15.4-8l13.6-1.2h25.3c5.9-0.3,10.6,0.7,14,1.8
	c0.6,3.6,2,9.1,6.2,14.2c2.5,3.1,4.5,5.6,7.9,6.6c5.8,1.6,11.2-1.7,14.2,0.9c0.8,0.7,0.3,1.1,0.9,3.3
	C383.1,112.3,383.7,116.1,383.3,120.8z"/>
<g id="голова_тень">
	<path class="head-darker-main-color" d="M310.9,88.7c5.1-0.1,9.4,0.3,15.8,0.9c9.2,1,11.4,1.9,12.5,2.4c6.7,3.2,10.2,9.5,11,12.8
		c2.2,9.4,10.3,8.3,16.4,15.5c7.3,8.7,7.2,19.4,6.9,36.2c-0.2,11.7-1.8,29.3-8.8,50.2c0.7-1,1.5-2.4,2.6-4c1-1.5,1.9-3.1,2.8-4.9
		c2.8-6,3.9-11.3,4.9-14.7c1.7-5.5,3.4-13,4.3-22.1c1.1-10.6,2.2-21.2,3.2-31.8c0.3-2.8,0.5-5.6,0.8-8.4c-0.1-10.4,0.6-13.2-2.6-15
		c-13.7,0.7-18.4-2.5-20.4-5.5c-7.3-11-4.3-9.6-7-15.5c-0.1-0.2-0.2-0.4-0.4-0.7c-1.2-1.3-4.3-1.2-13.6-1.2h-25.3l-13.6,1.2l-15.4,8
		l-1.8,3.1C283.1,95.2,303,88.8,310.9,88.7z"/>
</g>
<g id="рот_1_">
	<path class="head-mouth1-color" d="M247.3,160c9.1-3,15.8-3.9,20.8-4.3c18.8-1.7,27.7,3.5,43.7,0c7.9-1.7,14-4.7,17.7-6.9
		c-0.2,2.2-3.1,9.4-4.5,10.8c-1,0.4-2.6,1.1-4.7,1.8c-18.3,6.1-30.5-1.6-49.3-0.2c-4.9,0.4-11.8,1.3-20.7,5.1
		c-0.5-1-1.1-1.9-1.7-2.9L247.3,160z"/>
	<path class="head-mouth2-color" d="M250.5,166.3c9.9-4.4,17.5-5.3,23-5.4c15.6-0.5,24.7,5.6,40.8,2.2c4.8-1,8.5-2.5,10.8-3.5
		c0.9-1.8,1.9-3.6,2.8-5.3c-3.8,2.2-10,5.2-18,6.4c-11.8,1.9-18.6-1.4-30-2.1c-7.3-0.5-17.6-0.1-31.1,4.8
		C249.3,164.4,249.9,165.3,250.5,166.3z"/>
</g>
<path id="ноздря_1_" class="head-nostril-color" d="M251,126.7c0,0-5.3,2.1-5.8,4.4c-0.5,2.3,1.4,4.2,1.4,4.2s1.8,2.5,4.4-2.7
	C253.7,127.4,251,126.7,251,126.7z"/>
<g id="глаз_1_">
	
		<ellipse transform="matrix(0.5078 -0.8615 0.8615 0.5078 51.2355 316.366)" class="eye-ext-circle" cx="302.5" cy="113.3" rx="17.7" ry="17.7"/>
	<path class="eye-secondary-color" d="M304.4,135.3c-4.5,0.2-8.7-1.5-11.9-4.5c2.3,4.3,7,7.2,12.2,7c5.5-0.3,10-3.9,11.7-8.7
		C313.5,132.7,309.2,135.1,304.4,135.3z"/>
	<path class="eye-secondary-color" d="M312.5,96.8c3.5,2.1,6.1,5,7.5,8.1c-0.2-3.3-2.7-7.1-6.8-9.5c-4.3-2.6-9-3-12.1-1.3
		C304.7,93.7,308.8,94.6,312.5,96.8z"/>
	<ellipse transform="matrix(0.3787 -0.9255 0.9255 0.3787 85.6154 350.7169)" class="eye-middle-circle" cx="304" cy="111.6" rx="16" ry="16"/>
	<path class="eye-secondary-color" d="M301.1,104.5c0.3-1.4-0.1-3.8,0.1-5.4c0.1-1.2,0.2-2.3,0.3-3.3c0.9-0.1,2-0.2,3.2-0.2c0.7,0,1.3,0.1,1.9,0.2
		c-0.7,0.7-2.5,2.5-2.9,5.3c-0.2,1-0.1,1.9,0,2.6C303.2,103.6,301.5,104.4,301.1,104.5z"/>
	<path class="eye-secondary-color" d="M307,105.3c0,0,0.7-5.5,6.1-6.9c0,0,2.1,1.5,3.1,2.8c0,0-5.7,1.7-7.6,6.1c-0.1-0.3-0.3-0.5-0.5-0.8
		C307.7,105.9,307.3,105.6,307,105.3z"/>
	<path class="eye-secondary-color" d="M319.6,107.6c0,0-4.5-2.4-10.2,1.7c0,0,0.3,2.4-0.2,3.7c0,0,7.1-3.4,10.6,1.7
		C319.7,114.7,320.8,110.3,319.6,107.6z"/>
	<path class="eye-secondary-color" d="M308.4,114.6l10.4,3.1c-0.2,0.7-0.5,1.5-1,2.4c-0.9,1.5-2,2.6-2.8,3.2c-0.2-0.5-0.6-1.3-1.3-2.2
		c-2.3-2.7-6.8-4.7-6.8-4.7S307.9,115.5,308.4,114.6z"/>
	<path class="eye-secondary-color" d="M292.1,100.8c0,0,3.1,5.8,5.7,9.2c0.2-0.4,0.4-0.9,0.6-1.4c0.3-0.7,0.4-1.4,0.5-1.9l-3.5-8.6
		C295.5,98,293,99.8,292.1,100.8z"/>
	<path class="eye-secondary-color" d="M305,117.6c-0.1,0,3.5,8.8,2.3,9.7c0,0-3.6,0.5-5.3,0.2c0.4-1.2,0.9-2.7,1.2-4.4c0.4-1.9,0.5-4,0.5-5.5"/>
	
		<ellipse transform="matrix(8.672479e-02 -0.9962 0.9962 8.672479e-02 168.4337 405.0108)" class="eye-in-circle" cx="305.1" cy="110.6" rx="7.3" ry="7.3"/>
	<ellipse transform="matrix(0.5078 -0.8615 0.8615 0.5078 57.4622 318.149)" class="eye-secondary-color" cx="307.1" cy="108.8" rx="3.9" ry="3.9"/>
	
		<ellipse transform="matrix(8.672556e-02 -0.9962 0.9962 8.672556e-02 171.7788 405.9742)" class="eye-st4" cx="307.3" cy="109.3" rx="2.9" ry="2.9"/>
	
		<ellipse transform="matrix(0.6683 -0.7439 0.7439 0.6683 21.3772 265.5872)" class="eye-st5" cx="308.5" cy="108.8" rx="1.3" ry="1.3"/>
	<path class="eye-secondary-color" d="M300.1,115.9c0,0-2.9,8.4-3.9,9.6c0,0-1.9-0.9-4.3-3.5c0,0,7.6-6.9,7.2-7.3
		C299.2,114.8,299.8,115.8,300.1,115.9z"/>
	<path class="eye-secondary-color" d="M298.2,113.1l-10,1.3c0,0-0.5-3.4-0.1-5.3l9.8,3.3L298.2,113.1z"/>
	<ellipse transform="matrix(0.8705 -0.4922 0.4922 0.8705 -11.6181 168.8161)" class="eye-st6" cx="315" cy="106.5" rx="2.5" ry="4.8"/>
	
		<ellipse transform="matrix(0.9986 -5.350965e-02 5.350965e-02 0.9986 -5.427 16.5192)" class="eye-st5" cx="305.8" cy="109.6" rx="0.8" ry="0.8"/>
</g>
</svg>